<svg version="1.1" viewBox="0.0 0.0 960.0 540.0" fill="none" stroke="none" stroke-linecap="square" stroke-miterlimit="10" xmlns:xlink="http://www.w3.org/1999/xlink" xmlns="http://www.w3.org/2000/svg"><clipPath id="g44e8d5cd8f_0_41.0"><path d="m0 0l960.0 0l0 540.0l-960.0 0l0 -540.0z" clip-rule="nonzero"/></clipPath><g clip-path="url(#g44e8d5cd8f_0_41.0)"><path fill="#000000" fill-opacity="0.0" d="m0 0l960.0 0l0 540.0l-960.0 0z" fill-rule="evenodd"/><path fill="#000000" fill-opacity="0.0" d="m32.72441 444.15485l629.7953 0l0 63.527557l-629.7953 0z" fill-rule="evenodd"/><path fill="#adadad" d="m50.333786 488.02927q-2.3125 0 -4.109375 -0.875q-1.78125 -0.890625 -3.03125 -2.296875l0.96875 -1.03125q1.140625 1.3125 2.734375 2.09375q1.609375 0.765625 3.4375 0.765625q2.4375 0 3.84375 -1.171875q1.40625 -1.171875 1.40625 -3.0625q0 -0.984375 -0.3125 -1.671875q-0.296875 -0.6875 -0.8125 -1.1875q-0.515625 -0.5 -1.203125 -0.84375q-0.6875 -0.359375 -1.453125 -0.703125l-3.203125 -1.453125q-0.671875 -0.28125 -1.4375 -0.6875q-0.765625 -0.421875 -1.390625 -1.046875q-0.625 -0.625 -1.046875 -1.46875q-0.40625 -0.859375 -0.40625 -2.03125q0 -1.15625 0.453125 -2.09375q0.46875 -0.953125 1.28125 -1.640625q0.828125 -0.6875 1.953125 -1.0625q1.140625 -0.390625 2.453125 -0.390625q1.921875 0 3.40625 0.75q1.484375 0.75 2.453125 1.78125l-0.828125 0.953125q-0.9375 -0.953125 -2.1875 -1.546875q-1.234375 -0.59375 -2.84375 -0.59375q-2.109375 0 -3.390625 1.03125q-1.28125 1.015625 -1.28125 2.734375q0 0.9375 0.34375 1.578125q0.359375 0.640625 0.90625 1.109375q0.546875 0.453125 1.1875 0.796875q0.640625 0.328125 1.21875 0.59375l3.1875 1.40625q0.90625 0.375 1.703125 0.859375q0.796875 0.484375 1.40625 1.125q0.609375 0.640625 0.96875 1.515625q0.375 0.875 0.375 2.09375q0 1.21875 -0.484375 2.265625q-0.46875 1.03125 -1.359375 1.78125q-0.875 0.75 -2.125 1.1875q-1.25 0.4375 -2.78125 0.4375zm16.703278 0q-1.5 0 -2.765625 -0.546875q-1.265625 -0.546875 -2.21875 -1.5625q-0.9375 -1.03125 -1.46875 -2.515625q-0.53125 -1.5 -0.53125 -3.40625q0 -1.921875 0.578125 -3.4375q0.578125 -1.53125 1.53125 -2.546875q0.96875 -1.03125 2.234375 -1.578125q1.265625 -0.546875 2.671875 -0.546875q1.59375 0 2.65625 0.578125q1.0625 0.578125 1.859375 1.3125l-0.828125 1.0q-0.75 -0.703125 -1.640625 -1.171875q-0.890625 -0.46875 -2.015625 -0.46875q-1.1875 0 -2.203125 0.5q-1.0 0.5 -1.75 1.40625q-0.75 0.90625 -1.1875 2.15625q-0.421875 1.25 -0.421875 2.796875q0 1.5 0.390625 2.75q0.40625 1.25 1.125 2.140625q0.71875 0.890625 1.75 1.390625q1.046875 0.5 2.296875 0.5q1.21875 0 2.25 -0.515625q1.046875 -0.515625 1.84375 -1.25l0.734375 1.0q-0.984375 0.859375 -2.203125 1.4375q-1.21875 0.578125 -2.6875 0.578125zm8.664902 -0.390625l0 -23.015625l1.421875 0l0 10.0625q1.203125 -1.21875 2.453125 -2.0q1.25 -0.796875 2.84375 -0.796875q2.40625 0 3.515625 1.453125q1.125 1.4375 1.125 4.4375l0 9.859375l-1.40625 0l0 -9.65625q0 -2.46875 -0.8125 -3.640625q-0.8125 -1.171875 -2.703125 -1.171875q-1.375 0 -2.5 0.71875q-1.109375 0.71875 -2.515625 2.171875l0 11.578125l-1.421875 0zm22.724167 0.390625q-1.46875 0 -2.765625 -0.546875q-1.296875 -0.546875 -2.265625 -1.578125q-0.953125 -1.046875 -1.515625 -2.53125q-0.5625 -1.5 -0.5625 -3.375q0 -1.890625 0.5625 -3.390625q0.5625 -1.515625 1.5 -2.546875q0.953125 -1.046875 2.15625 -1.609375q1.203125 -0.5625 2.484375 -0.5625q2.75 0 4.3125 1.859375q1.5625 1.859375 1.5625 5.25q0 0.28125 0 0.578125q0 0.28125 -0.0625 0.578125l-11.0625 0q0.03125 1.4375 0.4375 2.671875q0.421875 1.234375 1.171875 2.109375q0.75 0.875 1.796875 1.375q1.0625 0.5 2.375 0.5q1.25 0 2.25 -0.359375q1.015625 -0.375 1.890625 -1.015625l0.5625 1.078125q-0.921875 0.546875 -2.03125 1.03125q-1.09375 0.484375 -2.796875 0.484375zm-5.65625 -9.03125l9.78125 0q0 -2.96875 -1.21875 -4.421875q-1.203125 -1.46875 -3.28125 -1.46875q-1.0 0 -1.90625 0.40625q-0.890625 0.390625 -1.609375 1.171875q-0.71875 0.765625 -1.1875 1.859375q-0.453125 1.078125 -0.578125 2.453125zm15.284149 8.640625l0 -15.359375l1.21875 0l0.125 2.375l0.109375 0q1.015625 -1.1875 2.28125 -1.96875q1.265625 -0.796875 2.546875 -0.796875q1.859375 0 2.84375 0.859375q1.0 0.84375 1.40625 2.28125q1.34375 -1.4375 2.609375 -2.28125q1.265625 -0.859375 2.609375 -0.859375q4.609375 0 4.609375 5.890625l0 9.859375l-1.4375 0l0 -9.65625q0 -2.46875 -0.84375 -3.640625q-0.828125 -1.171875 -2.578125 -1.171875q-2.078125 0 -4.609375 2.890625l0 11.578125l-1.40625 0l0 -9.65625q0 -2.46875 -0.84375 -3.640625q-0.828125 -1.171875 -2.625 -1.171875q-2.078125 0 -4.59375 2.890625l0 11.578125l-1.421875 0zm29.34343 0.390625q-0.921875 0 -1.71875 -0.265625q-0.796875 -0.25 -1.40625 -0.765625q-0.609375 -0.515625 -0.96875 -1.3125q-0.34375 -0.796875 -0.34375 -1.890625q0 -2.5625 2.375 -3.890625q2.390625 -1.328125 7.546875 -1.890625q0 -0.875 -0.140625 -1.75q-0.125 -0.875 -0.546875 -1.5625q-0.40625 -0.6875 -1.109375 -1.125q-0.703125 -0.4375 -1.859375 -0.4375q-1.53125 0 -2.8125 0.609375q-1.28125 0.609375 -2.078125 1.1875l-0.640625 -1.0625q0.421875 -0.28125 1.0 -0.625q0.59375 -0.359375 1.328125 -0.640625q0.734375 -0.296875 1.59375 -0.5q0.875 -0.21875 1.796875 -0.21875q1.34375 0 2.265625 0.46875q0.9375 0.46875 1.515625 1.265625q0.578125 0.796875 0.828125 1.875q0.265625 1.0625 0.265625 2.3125l0 9.828125l-1.21875 0l-0.125 -1.984375l-0.09375 0q-1.1875 0.921875 -2.546875 1.65625q-1.359375 0.71875 -2.90625 0.71875zm0.265625 -1.21875q1.34375 0 2.5625 -0.640625q1.21875 -0.640625 2.65625 -1.859375l0 -5.21875q-2.375 0.296875 -4.015625 0.71875q-1.625 0.40625 -2.625 0.984375q-0.984375 0.578125 -1.421875 1.3125q-0.421875 0.734375 -0.421875 1.625q0 0.828125 0.25 1.40625q0.265625 0.578125 0.703125 0.953125q0.453125 0.359375 1.046875 0.546875q0.59375 0.171875 1.265625 0.171875zm16.290161 1.21875q-1.125 0 -1.859375 -0.34375q-0.734375 -0.328125 -1.1875 -0.9375q-0.453125 -0.609375 -0.625 -1.46875q-0.171875 -0.875 -0.171875 -1.890625l0 -9.890625l-2.40625 0l0 -1.09375l2.4375 -0.125l0.1875 -4.453125l1.21875 0l0 4.453125l4.453125 0l0 1.21875l-4.453125 0l0 10.015625q0 0.734375 0.109375 1.328125q0.109375 0.59375 0.390625 1.03125q0.296875 0.421875 0.796875 0.671875q0.5 0.234375 1.296875 0.234375q0.453125 0 0.96875 -0.140625q0.53125 -0.15625 0.953125 -0.34375l0.375 1.15625q-0.671875 0.25 -1.34375 0.40625q-0.671875 0.171875 -1.140625 0.171875zm17.884033 0q-1.5 0 -2.765625 -0.546875q-1.265625 -0.546875 -2.21875 -1.5625q-0.9375 -1.03125 -1.46875 -2.515625q-0.53125 -1.5 -0.53125 -3.40625q0 -1.921875 0.578125 -3.4375q0.578125 -1.53125 1.53125 -2.546875q0.96875 -1.03125 2.234375 -1.578125q1.265625 -0.546875 2.671875 -0.546875q1.59375 0 2.65625 0.578125q1.0625 0.578125 1.859375 1.3125l-0.828125 1.0q-0.75 -0.703125 -1.640625 -1.171875q-0.890625 -0.46875 -2.015625 -0.46875q-1.1875 0 -2.203125 0.5q-1.0 0.5 -1.75 1.40625q-0.75 0.90625 -1.1875 2.15625q-0.421875 1.25 -0.421875 2.796875q0 1.5 0.390625 2.75q0.40625 1.25 1.125 2.140625q0.71875 0.890625 1.75 1.390625q1.046875 0.5 2.296875 0.5q1.21875 0 2.25 -0.515625q1.046875 -0.515625 1.84375 -1.25l0.734375 1.0q-0.984375 0.859375 -2.203125 1.4375q-1.21875 0.578125 -2.6875 0.578125zm8.071152 6.625q-0.875 0 -1.578125 -0.328125l0.328125 -1.25q0.25 0.09375 0.5625 0.171875q0.328125 0.09375 0.6875 0.09375q1.4375 0 2.390625 -1.15625q0.96875 -1.15625 1.53125 -2.921875l0.421875 -1.34375l-6.296875 -15.640625l1.53125 0l3.703125 9.65625q0.359375 0.96875 0.78125 2.125q0.4375 1.140625 0.890625 2.171875l0.125 0q0.359375 -1.03125 0.71875 -2.171875q0.375 -1.15625 0.6875 -2.125l3.296875 -9.65625l1.4375 0l-6.078125 17.28125q-0.3125 0.953125 -0.78125 1.875q-0.46875 0.9375 -1.09375 1.640625q-0.625 0.703125 -1.4375 1.140625q-0.8125 0.4375 -1.828125 0.4375zm14.545776 -7.015625l0 -23.015625l1.421875 0l0 16.96875l0.0625 0l7.578125 -9.3125l1.625 0l-4.984375 6.078125l5.828125 9.28125l-1.578125 0l-5.078125 -8.21875l-3.453125 4.03125l0 4.1875l-1.421875 0zm16.738663 0.390625q-1.890625 0 -1.890625 -2.4375l0 -20.96875l1.421875 0l0 21.15625q0 0.515625 0.1875 0.765625q0.1875 0.234375 0.484375 0.234375q0.09375 0 0.203125 0q0.109375 0 0.359375 -0.0625l0.265625 1.140625q-0.234375 0.0625 -0.453125 0.109375q-0.21875 0.0625 -0.578125 0.0625zm10.115265 0q-2.40625 0 -3.53125 -1.4375q-1.109375 -1.453125 -1.109375 -4.453125l0 -9.859375l1.40625 0l0 9.65625q0 2.46875 0.8125 3.640625q0.828125 1.171875 2.671875 1.171875q1.375 0 2.5 -0.75q1.125 -0.765625 2.46875 -2.390625l0 -11.328125l1.40625 0l0 15.359375l-1.1875 0l-0.15625 -2.5625l-0.0625 0q-1.125 1.34375 -2.375 2.15625q-1.25 0.796875 -2.84375 0.796875zm16.828049 -0.390625l0 -0.765625l9.09375 -13.375l-8.09375 0l0 -1.21875l9.921875 0l0 0.734375l-9.0625 13.375l9.375 0l0 1.25l-11.234375 0zm6.140625 -19.078125q-0.546875 0 -0.890625 -0.34375q-0.328125 -0.359375 -0.328125 -0.96875q0 -0.53125 0.328125 -0.875q0.34375 -0.359375 0.890625 -0.359375q0.546875 0 0.875 0.359375q0.34375 0.34375 0.34375 0.875q0 0.609375 -0.34375 0.96875q-0.328125 0.34375 -0.875 0.34375zm8.271774 26.09375q-0.875 0 -1.578125 -0.328125l0.328125 -1.25q0.25 0.09375 0.5625 0.171875q0.328125 0.09375 0.6875 0.09375q1.4375 0 2.390625 -1.15625q0.96875 -1.15625 1.53125 -2.921875l0.421875 -1.34375l-6.296875 -15.640625l1.53125 0l3.703125 9.65625q0.359375 0.96875 0.78125 2.125q0.4375 1.140625 0.890625 2.171875l0.125 0q0.359375 -1.03125 0.71875 -2.171875q0.375 -1.15625 0.6875 -2.125l3.296875 -9.65625l1.4375 0l-6.078125 17.28125q-0.3125 0.953125 -0.78125 1.875q-0.46875 0.9375 -1.09375 1.640625q-0.625 0.703125 -1.4375 1.140625q-0.8125 0.4375 -1.828125 0.4375zm20.248901 -6.625q-1.5 0 -2.765625 -0.546875q-1.265625 -0.546875 -2.21875 -1.5625q-0.9375 -1.03125 -1.46875 -2.515625q-0.53125 -1.5 -0.53125 -3.40625q0 -1.921875 0.578125 -3.4375q0.578125 -1.53125 1.53125 -2.546875q0.96875 -1.03125 2.234375 -1.578125q1.265625 -0.546875 2.671875 -0.546875q1.59375 0 2.65625 0.578125q1.0625 0.578125 1.859375 1.3125l-0.828125 1.0q-0.75 -0.703125 -1.640625 -1.171875q-0.890625 -0.46875 -2.015625 -0.46875q-1.1875 0 -2.203125 0.5q-1.0 0.5 -1.75 1.40625q-0.75 0.90625 -1.1875 2.15625q-0.421875 1.25 -0.421875 2.796875q0 1.5 0.390625 2.75q0.40625 1.25 1.125 2.140625q0.71875 0.890625 1.75 1.390625q1.046875 0.5 2.296875 0.5q1.21875 0 2.25 -0.515625q1.046875 -0.515625 1.84375 -1.25l0.734375 1.0q-0.984375 0.859375 -2.203125 1.4375q-1.21875 0.578125 -2.6875 0.578125zm8.664886 -0.390625l0 -15.359375l1.421875 0l0 15.359375l-1.421875 0zm0.75 -19.078125q-0.546875 0 -0.921875 -0.34375q-0.359375 -0.359375 -0.359375 -0.890625q0 -0.609375 0.359375 -0.9375q0.375 -0.34375 0.921875 -0.34375q0.53125 0 0.890625 0.34375q0.375 0.328125 0.375 0.9375q0 0.53125 -0.375 0.890625q-0.359375 0.34375 -0.890625 0.34375zm9.937378 19.46875q-0.921875 0 -1.71875 -0.265625q-0.796875 -0.25 -1.40625 -0.765625q-0.6093445 -0.515625 -0.9687195 -1.3125q-0.34375 -0.796875 -0.34375 -1.890625q0 -2.5625 2.3749695 -3.890625q2.390625 -1.328125 7.546875 -1.890625q0 -0.875 -0.140625 -1.75q-0.125 -0.875 -0.546875 -1.5625q-0.40625 -0.6875 -1.109375 -1.125q-0.703125 -0.4375 -1.859375 -0.4375q-1.53125 0 -2.8125 0.609375q-1.28125 0.609375 -2.078125 1.1875l-0.6405945 -1.0625q0.42184448 -0.28125 0.9999695 -0.625q0.59375 -0.359375 1.328125 -0.640625q0.734375 -0.296875 1.59375 -0.5q0.875 -0.21875 1.796875 -0.21875q1.34375 0 2.265625 0.46875q0.9375 0.46875 1.515625 1.265625q0.578125 0.796875 0.828125 1.875q0.265625 1.0625 0.265625 2.3125l0 9.828125l-1.21875 0l-0.125 -1.984375l-0.09375 0q-1.1875 0.921875 -2.546875 1.65625q-1.359375 0.71875 -2.90625 0.71875zm0.265625 -1.21875q1.34375 0 2.5625 -0.640625q1.21875 -0.640625 2.65625 -1.859375l0 -5.21875q-2.375 0.296875 -4.015625 0.71875q-1.625 0.40625 -2.625 0.984375q-0.984375 0.578125 -1.421875 1.3125q-0.421875 0.734375 -0.421875 1.625q0 0.828125 0.25 1.40625q0.265625 0.578125 0.703125 0.953125q0.453125 0.359375 1.046875 0.546875q0.59375 0.171875 1.265625 0.171875zm21.565186 -11.59375l-1.34375 3.9375l7.484375 0l-1.34375 -3.9375q-0.640625 -1.875 -1.21875 -3.609375q-0.5625 -1.734375 -1.109375 -3.6875l-0.125 0q-0.546875 1.953125 -1.125 3.6875q-0.578125 1.734375 -1.21875 3.609375zm-5.765625 12.421875l7.4375 -21.09375l1.46875 0l7.421875 21.09375l-1.53125 0l-2.46875 -7.234375l-8.359375 0l-2.484375 7.234375l-1.484375 0zm25.222656 0.390625q-1.5 0 -2.765625 -0.546875q-1.265625 -0.546875 -2.21875 -1.5625q-0.9375 -1.03125 -1.46875 -2.515625q-0.53125 -1.5 -0.53125 -3.40625q0 -1.921875 0.578125 -3.4375q0.578125 -1.53125 1.53125 -2.546875q0.96875 -1.03125 2.234375 -1.578125q1.265625 -0.546875 2.671875 -0.546875q1.59375 0 2.65625 0.578125q1.0625 0.578125 1.859375 1.3125l-0.828125 1.0q-0.75 -0.703125 -1.640625 -1.171875q-0.890625 -0.46875 -2.015625 -0.46875q-1.1875 0 -2.203125 0.5q-1.0 0.5 -1.75 1.40625q-0.75 0.90625 -1.1875 2.15625q-0.421875 1.25 -0.421875 2.796875q0 1.5 0.390625 2.75q0.40625 1.25 1.125 2.140625q0.71875 0.890625 1.75 1.390625q1.046875 0.5 2.296875 0.5q1.21875 0 2.25 -0.515625q1.046875 -0.515625 1.84375 -1.25l0.734375 1.0q-0.984375 0.859375 -2.203125 1.4375q-1.21875 0.578125 -2.6875 0.578125zm12.868042 0q-1.125 0 -1.859375 -0.34375q-0.734375 -0.328125 -1.1875 -0.9375q-0.453125 -0.609375 -0.625 -1.46875q-0.171875 -0.875 -0.171875 -1.890625l0 -9.890625l-2.40625 0l0 -1.09375l2.4375 -0.125l0.1875 -4.453125l1.21875 0l0 4.453125l4.453125 0l0 1.21875l-4.453125 0l0 10.015625q0 0.734375 0.109375 1.328125q0.109375 0.59375 0.390625 1.03125q0.296875 0.421875 0.796875 0.671875q0.5 0.234375 1.296875 0.234375q0.453125 0 0.96875 -0.140625q0.53125 -0.15625 0.953125 -0.34375l0.375 1.15625q-0.671875 0.25 -1.34375 0.40625q-0.671875 0.171875 -1.140625 0.171875zm5.780884 -0.390625l0 -15.359375l1.421875 0l0 15.359375l-1.421875 0zm0.75 -19.078125q-0.546875 0 -0.921875 -0.34375q-0.359375 -0.359375 -0.359375 -0.890625q0 -0.609375 0.359375 -0.9375q0.375 -0.34375 0.921875 -0.34375q0.53125 0 0.890625 0.34375q0.375 0.328125 0.375 0.9375q0 0.53125 -0.375 0.890625q-0.359375 0.34375 -0.890625 0.34375zm9.781128 19.078125l-5.75 -15.359375l1.53125 0l3.453125 9.625q0.359375 1.125 0.765625 2.25q0.421875 1.109375 0.765625 2.171875l0.140625 0q0.375 -1.0625 0.765625 -2.171875q0.40625 -1.125 0.796875 -2.25l3.453125 -9.625l1.4375 0l-5.6875 15.359375l-1.671875 0zm10.684906 0l0 -15.359375l1.421875 0l0 15.359375l-1.421875 0zm0.75 -19.078125q-0.546875 0 -0.921875 -0.34375q-0.359375 -0.359375 -0.359375 -0.890625q0 -0.609375 0.359375 -0.9375q0.375 -0.34375 0.921875 -0.34375q0.53125 0 0.890625 0.34375q0.375 0.328125 0.375 0.9375q0 0.53125 -0.375 0.890625q-0.359375 0.34375 -0.890625 0.34375zm10.781158 19.46875q-1.125 0 -1.859375 -0.34375q-0.734375 -0.328125 -1.1875 -0.9375q-0.453125 -0.609375 -0.625 -1.46875q-0.171875 -0.875 -0.171875 -1.890625l0 -9.890625l-2.40625 0l0 -1.09375l2.4375 -0.125l0.1875 -4.453125l1.21875 0l0 4.453125l4.453125 0l0 1.21875l-4.453125 0l0 10.015625q0 0.734375 0.109375 1.328125q0.109375 0.59375 0.390625 1.03125q0.296875 0.421875 0.796875 0.671875q0.5 0.234375 1.296875 0.234375q0.453125 0 0.96875 -0.140625q0.53125 -0.15625 0.953125 -0.34375l0.375 1.15625q-0.671875 0.25 -1.34375 0.40625q-0.671875 0.171875 -1.140625 0.171875zm5.187134 6.625q-0.875 0 -1.578125 -0.328125l0.328125 -1.25q0.25 0.09375 0.5625 0.171875q0.328125 0.09375 0.6875 0.09375q1.4375 0 2.390625 -1.15625q0.96875 -1.15625 1.53125 -2.921875l0.421875 -1.34375l-6.296875 -15.640625l1.53125 0l3.703125 9.65625q0.359375 0.96875 0.78125 2.125q0.4375 1.140625 0.890625 2.171875l0.125 0q0.359375 -1.03125 0.71875 -2.171875q0.375 -1.15625 0.6875 -2.125l3.296875 -9.65625l1.4375 0l-6.078125 17.28125q-0.3125 0.953125 -0.78125 1.875q-0.46875 0.9375 -1.09375 1.640625q-0.625 0.703125 -1.4375 1.140625q-0.8125 0.4375 -1.828125 0.4375zm18.867676 -7.015625l0 -0.765625l9.09375 -13.375l-8.09375 0l0 -1.21875l9.921875 0l0 0.734375l-9.0625 13.375l9.375 0l0 1.25l-11.234375 0zm21.406189 0l0 -15.359375l1.21875 0l0.125 2.375l0.109375 0q1.171875 -1.1875 2.421875 -1.96875q1.25 -0.796875 2.84375 -0.796875q2.40625 0 3.515625 1.453125q1.125 1.4375 1.125 4.4375l0 9.859375l-1.40625 0l0 -9.65625q0 -2.46875 -0.8125 -3.640625q-0.8125 -1.171875 -2.703125 -1.171875q-1.375 0 -2.5 0.71875q-1.109375 0.71875 -2.515625 2.171875l0 11.578125l-1.421875 0zm20.383423 0.390625q-0.921875 0 -1.71875 -0.265625q-0.796875 -0.25 -1.40625 -0.765625q-0.609375 -0.515625 -0.96875 -1.3125q-0.34375 -0.796875 -0.34375 -1.890625q0 -2.5625 2.375 -3.890625q2.390625 -1.328125 7.546875 -1.890625q0 -0.875 -0.140625 -1.75q-0.125 -0.875 -0.546875 -1.5625q-0.40625 -0.6875 -1.109375 -1.125q-0.703125 -0.4375 -1.859375 -0.4375q-1.53125 0 -2.8125 0.609375q-1.28125 0.609375 -2.078125 1.1875l-0.640625 -1.0625q0.421875 -0.28125 1.0 -0.625q0.59375 -0.359375 1.328125 -0.640625q0.734375 -0.296875 1.59375 -0.5q0.875 -0.21875 1.796875 -0.21875q1.34375 0 2.265625 0.46875q0.9375 0.46875 1.515625 1.265625q0.578125 0.796875 0.828125 1.875q0.265625 1.0625 0.265625 2.3125l0 9.828125l-1.21875 0l-0.125 -1.984375l-0.09375 0q-1.1875 0.921875 -2.546875 1.65625q-1.359375 0.71875 -2.90625 0.71875zm0.265625 -1.21875q1.34375 0 2.5625 -0.640625q1.21875 -0.640625 2.65625 -1.859375l0 -5.21875q-2.375 0.296875 -4.015625 0.71875q-1.625 0.40625 -2.625 0.984375q-0.984375 0.578125 -1.421875 1.3125q-0.421875 0.734375 -0.421875 1.625q0 0.828125 0.25 1.40625q0.265625 0.578125 0.703125 0.953125q0.453125 0.359375 1.046875 0.546875q0.59375 0.171875 1.265625 0.171875zm10.008911 0.828125l0 -0.765625l9.09375 -13.375l-8.09375 0l0 -1.21875l9.921875 0l0 0.734375l-9.0625 13.375l9.375 0l0 1.25l-11.234375 0zm17.381165 0l-4.546875 -15.359375l1.53125 0l2.765625 9.953125q0.28125 1.046875 0.53125 2.0625q0.265625 1.0 0.515625 2.03125l0.125 0q0.265625 -1.03125 0.546875 -2.03125q0.296875 -1.015625 0.578125 -2.0625l2.78125 -9.953125l1.703125 0l2.78125 9.953125q0.28125 1.046875 0.5625 2.0625q0.296875 1.0 0.59375 2.03125l0.125 0q0.25 -1.03125 0.53125 -2.03125q0.296875 -1.015625 0.546875 -2.0625l2.734375 -9.953125l1.4375 0l-4.421875 15.359375l-1.859375 0l-2.6875 -9.53125q-0.34375 -1.125 -0.59375 -2.1875q-0.234375 -1.078125 -0.578125 -2.203125l-0.140625 0q-0.25 1.125 -0.5625 2.234375q-0.296875 1.09375 -0.65625 2.21875l-2.640625 9.46875l-1.703125 0zm22.904419 0.390625q-0.921875 0 -1.71875 -0.265625q-0.796875 -0.25 -1.40625 -0.765625q-0.609375 -0.515625 -0.96875 -1.3125q-0.34375 -0.796875 -0.34375 -1.890625q0 -2.5625 2.375 -3.890625q2.390625 -1.328125 7.546875 -1.890625q0 -0.875 -0.140625 -1.75q-0.125 -0.875 -0.546875 -1.5625q-0.40625 -0.6875 -1.109375 -1.125q-0.703125 -0.4375 -1.859375 -0.4375q-1.53125 0 -2.8125 0.609375q-1.28125 0.609375 -2.078125 1.1875l-0.640625 -1.0625q0.421875 -0.28125 1.0 -0.625q0.59375 -0.359375 1.328125 -0.640625q0.734375 -0.296875 1.59375 -0.5q0.875 -0.21875 1.796875 -0.21875q1.34375 0 2.265625 0.46875q0.9375 0.46875 1.515625 1.265625q0.578125 0.796875 0.828125 1.875q0.265625 1.0625 0.265625 2.3125l0 9.828125l-1.21875 0l-0.125 -1.984375l-0.09375 0q-1.1875 0.921875 -2.546875 1.65625q-1.359375 0.71875 -2.90625 0.71875zm0.265625 -1.21875q1.34375 0 2.5625 -0.640625q1.21875 -0.640625 2.65625 -1.859375l0 -5.21875q-2.375 0.296875 -4.015625 0.71875q-1.625 0.40625 -2.625 0.984375q-0.984375 0.578125 -1.421875 1.3125q-0.421875 0.734375 -0.421875 1.625q0 0.828125 0.25 1.40625q0.265625 0.578125 0.703125 0.953125q0.453125 0.359375 1.046875 0.546875q0.59375 0.171875 1.265625 0.171875zm12.087067 0.828125l0 -15.359375l1.21875 0l0.125 2.375l0.109375 0q1.015625 -1.1875 2.28125 -1.96875q1.265625 -0.796875 2.546875 -0.796875q1.859375 0 2.84375 0.859375q1.0 0.84375 1.40625 2.28125q1.34375 -1.4375 2.609375 -2.28125q1.265625 -0.859375 2.609375 -0.859375q4.609375 0 4.609375 5.890625l0 9.859375l-1.4375 0l0 -9.65625q0 -2.46875 -0.84375 -3.640625q-0.828125 -1.171875 -2.578125 -1.171875q-2.078125 0 -4.609375 2.890625l0 11.578125l-1.40625 0l0 -9.65625q0 -2.46875 -0.84375 -3.640625q-0.828125 -1.171875 -2.625 -1.171875q-2.078125 0 -4.59375 2.890625l0 11.578125l-1.421875 0zm25.98407 0l0 -15.359375l1.421875 0l0 15.359375l-1.421875 0zm0.75 -19.078125q-0.546875 0 -0.921875 -0.34375q-0.359375 -0.359375 -0.359375 -0.890625q0 -0.609375 0.359375 -0.9375q0.375 -0.34375 0.921875 -0.34375q0.53125 0 0.890625 0.34375q0.375 0.328125 0.375 0.9375q0 0.53125 -0.375 0.890625q-0.359375 0.34375 -0.890625 0.34375zm12.978027 19.078125l0 -15.359375l1.21875 0l0.125 2.375l0.109375 0q1.015625 -1.1875 2.28125 -1.96875q1.265625 -0.796875 2.546875 -0.796875q1.859375 0 2.84375 0.859375q1.0 0.84375 1.40625 2.28125q1.34375 -1.4375 2.609375 -2.28125q1.265625 -0.859375 2.609375 -0.859375q4.609375 0 4.609375 5.890625l0 9.859375l-1.4375 0l0 -9.65625q0 -2.46875 -0.84375 -3.640625q-0.828125 -1.171875 -2.578125 -1.171875q-2.078125 0 -4.609375 2.890625l0 11.578125l-1.40625 0l0 -9.65625q0 -2.46875 -0.84375 -3.640625q-0.828125 -1.171875 -2.625 -1.171875q-2.078125 0 -4.59375 2.890625l0 11.578125l-1.421875 0zm31.812195 0.390625q-1.46875 0 -2.765625 -0.546875q-1.296875 -0.546875 -2.265625 -1.578125q-0.953125 -1.046875 -1.515625 -2.53125q-0.5625 -1.5 -0.5625 -3.375q0 -1.890625 0.5625 -3.390625q0.5625 -1.515625 1.5 -2.546875q0.953125 -1.046875 2.15625 -1.609375q1.203125 -0.5625 2.484375 -0.5625q2.75 0 4.3125 1.859375q1.5625 1.859375 1.5625 5.25q0 0.28125 0 0.578125q0 0.28125 -0.0625 0.578125l-11.0625 0q0.03125 1.4375 0.4375 2.671875q0.421875 1.234375 1.171875 2.109375q0.75 0.875 1.796875 1.375q1.0625 0.5 2.375 0.5q1.25 0 2.25 -0.359375q1.015625 -0.375 1.890625 -1.015625l0.5625 1.078125q-0.921875 0.546875 -2.03125 1.03125q-1.09375 0.484375 -2.796875 0.484375zm-5.65625 -9.03125l9.78125 0q0 -2.96875 -1.21875 -4.421875q-1.203125 -1.46875 -3.28125 -1.46875q-1.0 0 -1.90625 0.40625q-0.890625 0.390625 -1.609375 1.171875q-0.71875 0.765625 -1.1875 1.859375q-0.453125 1.078125 -0.578125 2.453125zm19.487244 9.03125q-1.125 0 -1.859375 -0.34375q-0.734375 -0.328125 -1.1875 -0.9375q-0.453125 -0.609375 -0.625 -1.46875q-0.171875 -0.875 -0.171875 -1.890625l0 -9.890625l-2.40625 0l0 -1.09375l2.4375 -0.125l0.1875 -4.453125l1.21875 0l0 4.453125l4.453125 0l0 1.21875l-4.453125 0l0 10.015625q0 0.734375 0.109375 1.328125q0.109375 0.59375 0.390625 1.03125q0.296875 0.421875 0.796875 0.671875q0.5 0.234375 1.296875 0.234375q0.453125 0 0.96875 -0.140625q0.53125 -0.15625 0.953125 -0.34375l0.375 1.15625q-0.671875 0.25 -1.34375 0.40625q-0.671875 0.171875 -1.140625 0.171875zm11.390259 0q-1.375 0 -2.625 -0.546875q-1.25 -0.546875 -2.203125 -1.5625q-0.9375 -1.03125 -1.5 -2.515625q-0.5625 -1.5 -0.5625 -3.40625q0 -1.921875 0.5625 -3.4375q0.5625 -1.53125 1.5 -2.546875q0.953125 -1.03125 2.203125 -1.578125q1.25 -0.546875 2.625 -0.546875q1.375 0 2.640625 0.546875q1.265625 0.546875 2.203125 1.578125q0.953125 1.015625 1.5 2.546875q0.5625 1.515625 0.5625 3.4375q0 1.90625 -0.5625 3.40625q-0.546875 1.484375 -1.5 2.515625q-0.9375 1.015625 -2.203125 1.5625q-1.265625 0.546875 -2.640625 0.546875zm0 -1.25q1.15625 0 2.15625 -0.5q1.015625 -0.5 1.734375 -1.390625q0.71875 -0.890625 1.125 -2.140625q0.421875 -1.25 0.421875 -2.75q0 -1.546875 -0.421875 -2.796875q-0.40625 -1.25 -1.125 -2.15625q-0.71875 -0.90625 -1.734375 -1.40625q-1.0 -0.5 -2.15625 -0.5q-1.15625 0 -2.15625 0.5q-0.984375 0.5 -1.703125 1.40625q-0.71875 0.90625 -1.140625 2.15625q-0.40625 1.25 -0.40625 2.796875q0 1.5 0.40625 2.75q0.421875 1.25 1.140625 2.140625q0.71875 0.890625 1.703125 1.390625q1.0 0.5 2.15625 0.5zm16.604431 1.25q-2.90625 0 -4.640625 -2.0625q-1.734375 -2.078125 -1.734375 -5.96875q0 -1.859375 0.546875 -3.359375q0.546875 -1.515625 1.484375 -2.5625q0.953125 -1.0625 2.1875 -1.625q1.234375 -0.5625 2.609375 -0.5625q1.40625 0 2.4375 0.5q1.046875 0.5 2.203125 1.390625l-0.0625 -2.8125l0 -6.34375l1.40625 0l0 23.015625l-1.21875 0l-0.125 -1.984375l-0.09375 0q-0.9375 0.921875 -2.203125 1.65625q-1.265625 0.71875 -2.796875 0.71875zm0.1875 -1.25q1.28125 0 2.453125 -0.65625q1.171875 -0.65625 2.390625 -1.875l0 -9.125q-1.21875 -1.078125 -2.296875 -1.53125q-1.0625 -0.453125 -2.1875 -0.453125q-1.15625 0 -2.15625 0.53125q-0.984375 0.53125 -1.703125 1.453125q-0.71875 0.90625 -1.140625 2.171875q-0.40625 1.25 -0.40625 2.703125q0 1.53125 0.328125 2.78125q0.34375 1.25 0.984375 2.125q0.640625 0.875 1.578125 1.375q0.953125 0.5 2.15625 0.5z" fill-rule="nonzero"/><path fill="#000000" fill-opacity="0.0" d="m739.89764 241.92914l0 0c0 -36.024628 38.933594 -65.22835 86.96063 -65.22835l0 0c48.02704 0 86.96063 29.20372 86.96063 65.22835l0 0c0 36.024628 -38.933594 65.22833 -86.96063 65.22833l0 0c-48.02704 0 -86.96063 -29.203705 -86.96063 -65.22833z" fill-rule="evenodd"/><path stroke="#08de65" stroke-width="3.0" stroke-linejoin="round" stroke-linecap="butt" d="m739.89764 241.92914l0 0c0 -36.024628 38.933594 -65.22835 86.96063 -65.22835l0 0c48.02704 0 86.96063 29.20372 86.96063 65.22835l0 0c0 36.024628 -38.933594 65.22833 -86.96063 65.22833l0 0c-48.02704 0 -86.96063 -29.203705 -86.96063 -65.22833z" fill-rule="evenodd"/><path fill="#08de65" d="m782.11865 250.46913l0 -15.75l4.921875 0q1.203125 0 2.21875 0.234375q1.015625 0.234375 1.75 0.765625q0.734375 0.515625 1.140625 1.359375q0.40625 0.84375 0.40625 2.0625q0 1.84375 -0.953125 2.953125q-0.953125 1.109375 -2.59375 1.515625l4.015625 6.859375l-2.265625 0l-3.78125 -6.640625l-2.859375 0l0 6.640625l-2.0 0zm2.0 -8.28125l2.640625 0q1.84375 0 2.828125 -0.75q0.984375 -0.765625 0.984375 -2.296875q0 -1.5625 -0.984375 -2.1875q-0.984375 -0.625 -2.828125 -0.625l-2.640625 0l0 5.859375zm16.20282 8.5625q-1.1875 0 -2.203125 -0.40625q-1.015625 -0.421875 -1.78125 -1.203125q-0.75 -0.78125 -1.1875 -1.90625q-0.421875 -1.140625 -0.421875 -2.578125q0 -1.4375 0.4375 -2.578125q0.4375 -1.140625 1.171875 -1.921875q0.734375 -0.796875 1.671875 -1.21875q0.9375 -0.421875 1.953125 -0.421875q1.09375 0 1.96875 0.390625q0.875 0.375 1.46875 1.09375q0.59375 0.71875 0.890625 1.734375q0.3125 1.0 0.3125 2.25q0 0.3125 -0.015625 0.625q0 0.296875 -0.046875 0.5l-7.875 0q0.125 1.875 1.15625 2.96875q1.046875 1.09375 2.734375 1.09375q0.84375 0 1.546875 -0.25q0.703125 -0.25 1.359375 -0.65625l0.6875 1.296875q-0.765625 0.46875 -1.703125 0.828125q-0.9375 0.359375 -2.125 0.359375zm-3.671875 -7.046875l6.234375 0q0 -1.78125 -0.765625 -2.703125q-0.75 -0.921875 -2.109375 -0.921875q-0.625 0 -1.203125 0.25q-0.5625 0.234375 -1.015625 0.703125q-0.453125 0.46875 -0.75 1.140625q-0.296875 0.671875 -0.390625 1.53125zm13.888367 7.046875q-1.25 0 -2.375 -0.453125q-1.125 -0.453125 -1.96875 -1.140625l0.984375 -1.328125q0.765625 0.625 1.5625 1.015625q0.8125 0.375 1.875 0.375q1.140625 0 1.71875 -0.515625q0.578125 -0.53125 0.578125 -1.3125q0 -0.453125 -0.25 -0.78125q-0.234375 -0.34375 -0.609375 -0.59375q-0.359375 -0.25 -0.84375 -0.4375q-0.484375 -0.203125 -0.953125 -0.390625q-0.625 -0.21875 -1.25 -0.484375q-0.625 -0.28125 -1.125 -0.671875q-0.484375 -0.40625 -0.796875 -0.921875q-0.3125 -0.53125 -0.3125 -1.28125q0 -0.703125 0.265625 -1.3125q0.28125 -0.609375 0.796875 -1.046875q0.515625 -0.453125 1.25 -0.703125q0.75 -0.25 1.6875 -0.25q1.109375 0 2.03125 0.390625q0.921875 0.375 1.59375 0.9375l-0.9375 1.234375q-0.59375 -0.453125 -1.25 -0.734375q-0.640625 -0.296875 -1.40625 -0.296875q-1.109375 0 -1.625 0.515625q-0.515625 0.5 -0.515625 1.171875q0 0.40625 0.21875 0.703125q0.21875 0.296875 0.578125 0.53125q0.359375 0.234375 0.828125 0.421875q0.46875 0.171875 0.96875 0.359375q0.625 0.234375 1.25 0.5q0.640625 0.265625 1.140625 0.671875q0.515625 0.390625 0.828125 0.96875q0.328125 0.5625 0.328125 1.390625q0 0.71875 -0.28125 1.34375q-0.265625 0.625 -0.8125 1.109375q-0.53125 0.46875 -1.34375 0.734375q-0.796875 0.28125 -1.828125 0.28125zm10.415344 0q-1.875 0 -2.734375 -1.140625q-0.84375 -1.15625 -0.84375 -3.40625l0 -7.390625l2.0 0l0 7.125q0 1.65625 0.515625 2.390625q0.515625 0.71875 1.65625 0.71875q0.921875 0 1.609375 -0.46875q0.703125 -0.46875 1.546875 -1.5l0 -8.265625l1.96875 0l0 11.65625l-1.640625 0l-0.171875 -1.828125l-0.0625 0q-0.8125 0.96875 -1.71875 1.546875q-0.90625 0.5625 -2.125 0.5625zm9.649719 -0.28125l0 -11.65625l1.625 0l0.171875 1.671875l0.078125 0q0.765625 -0.84375 1.65625 -1.40625q0.90625 -0.5625 1.96875 -0.5625q1.34375 0 2.09375 0.59375q0.75 0.578125 1.125 1.640625q0.90625 -1.015625 1.828125 -1.625q0.921875 -0.609375 2.0 -0.609375q1.796875 0 2.671875 1.15625q0.890625 1.15625 0.890625 3.40625l0 7.390625l-1.96875 0l0 -7.125q0 -1.65625 -0.53125 -2.390625q-0.53125 -0.734375 -1.640625 -0.734375q-1.3125 0 -2.921875 1.796875l0 8.453125l-1.96875 0l0 -7.125q0 -1.65625 -0.53125 -2.390625q-0.53125 -0.734375 -1.65625 -0.734375q-1.3125 0 -2.921875 1.796875l0 8.453125l-1.96875 0zm24.63031 0.28125q-1.1875 0 -2.203125 -0.40625q-1.015625 -0.421875 -1.78125 -1.203125q-0.75 -0.78125 -1.1875 -1.90625q-0.421875 -1.140625 -0.421875 -2.578125q0 -1.4375 0.4375 -2.578125q0.4375 -1.140625 1.171875 -1.921875q0.734375 -0.796875 1.671875 -1.21875q0.9375 -0.421875 1.953125 -0.421875q1.09375 0 1.96875 0.390625q0.875 0.375 1.46875 1.09375q0.59375 0.71875 0.890625 1.734375q0.3125 1.0 0.3125 2.25q0 0.3125 -0.015625 0.625q0 0.296875 -0.046875 0.5l-7.875 0q0.125 1.875 1.15625 2.96875q1.046875 1.09375 2.734375 1.09375q0.84375 0 1.546875 -0.25q0.703125 -0.25 1.359375 -0.65625l0.6875 1.296875q-0.765625 0.46875 -1.703125 0.828125q-0.9375 0.359375 -2.125 0.359375zm-3.671875 -7.046875l6.234375 0q0 -1.78125 -0.765625 -2.703125q-0.75 -0.921875 -2.109375 -0.921875q-0.625 0 -1.203125 0.25q-0.5625 0.234375 -1.015625 0.703125q-0.453125 0.46875 -0.75 1.140625q-0.296875 0.671875 -0.390625 1.53125zm14.825806 7.046875q-2.203125 0 -3.515625 -1.578125q-1.3125 -1.578125 -1.3125 -4.515625q0 -1.40625 0.421875 -2.546875q0.421875 -1.140625 1.109375 -1.9375q0.703125 -0.796875 1.609375 -1.21875q0.921875 -0.4375 1.921875 -0.4375q1.015625 0 1.75 0.359375q0.75 0.359375 1.515625 0.984375l-0.09375 -1.984375l0 -4.5l2.0 0l0 17.09375l-1.640625 0l-0.171875 -1.375l-0.0625 0q-0.703125 0.671875 -1.609375 1.171875q-0.890625 0.484375 -1.921875 0.484375zm0.4375 -1.65625q0.8125 0 1.53125 -0.390625q0.71875 -0.390625 1.4375 -1.203125l0 -6.109375q-0.75 -0.671875 -1.4375 -0.9375q-0.671875 -0.28125 -1.390625 -0.28125q-0.703125 0 -1.3125 0.328125q-0.609375 0.328125 -1.0625 0.921875q-0.453125 0.578125 -0.71875 1.390625q-0.265625 0.8125 -0.265625 1.828125q0 2.109375 0.828125 3.28125q0.84375 1.171875 2.390625 1.171875z" fill-rule="nonzero"/><path fill="#000000" fill-opacity="0.0" d="m439.22046 242.2933l0 0c0 -36.024612 38.933624 -65.22835 86.96063 -65.22835l0 0c48.02704 0 86.96063 29.203735 86.96063 65.22835l0 0c0 36.024628 -38.933594 65.22836 -86.96063 65.22836l0 0c-48.027008 0 -86.96063 -29.203735 -86.96063 -65.22836z" fill-rule="evenodd"/><path stroke="#08de65" stroke-width="3.0" stroke-linejoin="round" stroke-linecap="butt" d="m439.22046 242.2933l0 0c0 -36.024612 38.933624 -65.22835 86.96063 -65.22835l0 0c48.02704 0 86.96063 29.203735 86.96063 65.22835l0 0c0 36.024628 -38.933594 65.22836 -86.96063 65.22836l0 0c-48.027008 0 -86.96063 -29.203735 -86.96063 -65.22836z" fill-rule="evenodd"/><path fill="#08de65" d="m495.36847 251.11456q-1.65625 0 -3.078125 -0.609375q-1.40625 -0.625 -2.4375 -1.71875l1.1875 -1.390625q0.84375 0.890625 1.984375 1.4375q1.140625 0.53125 2.359375 0.53125q1.5625 0 2.421875 -0.703125q0.875 -0.703125 0.875 -1.859375q0 -0.59375 -0.203125 -1.015625q-0.203125 -0.421875 -0.5625 -0.71875q-0.34375 -0.3125 -0.828125 -0.546875q-0.46875 -0.234375 -1.03125 -0.5l-2.25 -0.984375q-0.546875 -0.25 -1.125 -0.578125q-0.578125 -0.34375 -1.03125 -0.8125q-0.453125 -0.484375 -0.75 -1.140625q-0.28125 -0.65625 -0.28125 -1.53125q0 -0.890625 0.359375 -1.65625q0.375 -0.765625 1.03125 -1.328125q0.671875 -0.5625 1.5625 -0.875q0.90625 -0.3125 1.984375 -0.3125q1.421875 0 2.609375 0.546875q1.203125 0.53125 2.046875 1.390625l-1.078125 1.296875q-0.71875 -0.6875 -1.59375 -1.078125q-0.875 -0.40625 -1.984375 -0.40625q-1.3125 0 -2.125 0.609375q-0.796875 0.609375 -0.796875 1.703125q0 0.5625 0.21875 0.96875q0.234375 0.390625 0.609375 0.6875q0.390625 0.296875 0.84375 0.53125q0.453125 0.234375 0.9375 0.421875l2.234375 0.953125q0.671875 0.296875 1.265625 0.671875q0.609375 0.359375 1.03125 0.859375q0.4375 0.484375 0.6875 1.15625q0.25 0.65625 0.25 1.515625q0 0.9375 -0.375 1.765625q-0.359375 0.8125 -1.0625 1.421875q-0.6875 0.609375 -1.671875 0.953125q-0.984375 0.34375 -2.234375 0.34375zm11.925354 0q-0.9375 0 -1.578125 -0.28125q-0.625 -0.28125 -1.03125 -0.78125q-0.390625 -0.515625 -0.5625 -1.234375q-0.171875 -0.71875 -0.171875 -1.578125l0 -6.46875l-1.71875 0l0 -1.484375l1.828125 -0.109375l0.234375 -3.265625l1.65625 0l0 3.265625l3.140625 0l0 1.59375l-3.140625 0l0 6.484375q0 1.078125 0.390625 1.671875q0.40625 0.59375 1.40625 0.59375q0.3125 0 0.671875 -0.09375q0.359375 -0.109375 0.65625 -0.21875l0.375 1.484375q-0.484375 0.171875 -1.046875 0.296875q-0.5625 0.125 -1.109375 0.125zm7.1275635 0q-1.46875 0 -2.4374695 -0.859375q-0.96875 -0.859375 -0.96875 -2.453125q0 -1.90625 1.7030945 -2.921875q1.703125 -1.03125 5.453125 -1.4375q0 -0.546875 -0.109375 -1.078125q-0.109375 -0.53125 -0.375 -0.9375q-0.265625 -0.40625 -0.734375 -0.65625q-0.46875 -0.25 -1.1875 -0.25q-1.015625 0 -1.90625 0.390625q-0.875 0.375 -1.578125 0.84375l-0.7655945 -1.359375q0.8124695 -0.53125 1.9843445 -1.015625q1.1875 -0.5 2.609375 -0.5q2.125 0 3.078125 1.3125q0.96875 1.296875 0.96875 3.484375l0 7.15625l-1.625 0l-0.171875 -1.390625l-0.078125 0q-0.828125 0.6875 -1.796875 1.1875q-0.953125 0.484375 -2.0625 0.484375zm0.578125 -1.578125q0.84375 0 1.578125 -0.390625q0.75 -0.40625 1.59375 -1.171875l0 -3.234375q-1.46875 0.1875 -2.46875 0.453125q-1.0 0.265625 -1.609375 0.625q-0.609375 0.359375 -0.890625 0.828125q-0.265625 0.46875 -0.265625 1.015625q0 1.015625 0.59375 1.453125q0.609375 0.421875 1.46875 0.421875zm8.830383 1.296875l0 -11.65625l1.625 0l0.171875 2.109375l0.078125 0q0.59375 -1.109375 1.4375 -1.75q0.859375 -0.65625 1.875 -0.65625q0.6875 0 1.25 0.234375l-0.390625 1.734375q-0.28125 -0.09375 -0.53125 -0.140625q-0.234375 -0.046875 -0.59375 -0.046875q-0.75 0 -1.5625 0.609375q-0.796875 0.59375 -1.390625 2.078125l0 7.484375l-1.96875 0zm11.999817 0.28125q-0.9375 0 -1.578125 -0.28125q-0.625 -0.28125 -1.03125 -0.78125q-0.390625 -0.515625 -0.5625 -1.234375q-0.171875 -0.71875 -0.171875 -1.578125l0 -6.46875l-1.71875 0l0 -1.484375l1.828125 -0.109375l0.234375 -3.265625l1.65625 0l0 3.265625l3.140625 0l0 1.59375l-3.140625 0l0 6.484375q0 1.078125 0.390625 1.671875q0.40625 0.59375 1.40625 0.59375q0.3125 0 0.671875 -0.09375q0.359375 -0.109375 0.65625 -0.21875l0.375 1.484375q-0.484375 0.171875 -1.046875 0.296875q-0.5625 0.125 -1.109375 0.125zm9.1744995 0q-1.1875 0 -2.203125 -0.40625q-1.015625 -0.421875 -1.78125 -1.203125q-0.75 -0.78125 -1.1875 -1.90625q-0.421875 -1.140625 -0.421875 -2.578125q0 -1.4375 0.4375 -2.578125q0.4375 -1.140625 1.171875 -1.921875q0.734375 -0.796875 1.671875 -1.21875q0.9375 -0.421875 1.953125 -0.421875q1.09375 0 1.96875 0.390625q0.875 0.375 1.46875 1.09375q0.59375 0.71875 0.890625 1.734375q0.3125 1.0 0.3125 2.25q0 0.3125 -0.015625 0.625q0 0.296875 -0.046875 0.5l-7.875 0q0.125 1.875 1.15625 2.96875q1.046875 1.09375 2.734375 1.09375q0.84375 0 1.546875 -0.25q0.703125 -0.25 1.359375 -0.65625l0.6875 1.296875q-0.765625 0.46875 -1.703125 0.828125q-0.9375 0.359375 -2.125 0.359375zm-3.671875 -7.046875l6.234375 0q0 -1.78125 -0.765625 -2.703125q-0.75 -0.921875 -2.109375 -0.921875q-0.625 0 -1.203125 0.25q-0.5625 0.234375 -1.015625 0.703125q-0.453125 0.46875 -0.75 1.140625q-0.296875 0.671875 -0.390625 1.53125zm14.825806 7.046875q-2.203125 0 -3.515625 -1.578125q-1.3125 -1.578125 -1.3125 -4.515625q0 -1.40625 0.421875 -2.546875q0.421875 -1.140625 1.109375 -1.9375q0.703125 -0.796875 1.609375 -1.21875q0.921875 -0.4375 1.921875 -0.4375q1.015625 0 1.75 0.359375q0.75 0.359375 1.515625 0.984375l-0.09375 -1.984375l0 -4.5l2.0 0l0 17.09375l-1.640625 0l-0.171875 -1.375l-0.0625 0q-0.703125 0.671875 -1.609375 1.171875q-0.890625 0.484375 -1.921875 0.484375zm0.4375 -1.65625q0.8125 0 1.53125 -0.390625q0.71875 -0.390625 1.4375 -1.203125l0 -6.109375q-0.75 -0.671875 -1.4375 -0.9375q-0.671875 -0.28125 -1.390625 -0.28125q-0.703125 0 -1.3125 0.328125q-0.609375 0.328125 -1.0625 0.921875q-0.453125 0.578125 -0.71875 1.390625q-0.265625 0.8125 -0.265625 1.828125q0 2.109375 0.828125 3.28125q0.84375 1.171875 2.390625 1.171875z" fill-rule="nonzero"/><path fill="#000000" fill-opacity="0.0" d="m138.5433 242.2933l0 0c0 -36.024612 38.93361 -65.22835 86.96063 -65.22835l0 0c48.02704 0 86.96063 29.203735 86.96063 65.22835l0 0c0 36.024628 -38.933594 65.22836 -86.96063 65.22836l0 0c-48.027023 0 -86.96063 -29.203735 -86.96063 -65.22836z" fill-rule="evenodd"/><path stroke="#08de65" stroke-width="3.0" stroke-linejoin="round" stroke-linecap="butt" d="m138.5433 242.2933l0 0c0 -36.024612 38.93361 -65.22835 86.96063 -65.22835l0 0c48.02704 0 86.96063 29.203735 86.96063 65.22835l0 0c0 36.024628 -38.933594 65.22836 -86.96063 65.22836l0 0c-48.027023 0 -86.96063 -29.203735 -86.96063 -65.22836z" fill-rule="evenodd"/><path fill="#08de65" d="m193.92944 251.11456q-1.484375 0 -2.734375 -0.546875q-1.25 -0.546875 -2.171875 -1.59375q-0.921875 -1.046875 -1.4375 -2.5625q-0.515625 -1.53125 -0.515625 -3.453125q0 -1.890625 0.515625 -3.40625q0.53125 -1.515625 1.46875 -2.5625q0.9375 -1.0625 2.203125 -1.625q1.28125 -0.5625 2.796875 -0.5625q1.4375 0 2.53125 0.59375q1.09375 0.578125 1.78125 1.34375l-1.078125 1.296875q-0.625 -0.671875 -1.421875 -1.078125q-0.78125 -0.40625 -1.796875 -0.40625q-1.125 0 -2.046875 0.453125q-0.90625 0.4375 -1.546875 1.265625q-0.640625 0.828125 -1.0 2.0q-0.34375 1.171875 -0.34375 2.640625q0 1.484375 0.34375 2.671875q0.359375 1.1875 0.96875 2.03125q0.625 0.84375 1.53125 1.296875q0.90625 0.453125 2.03125 0.453125q1.15625 0 2.015625 -0.46875q0.859375 -0.46875 1.625 -1.296875l1.109375 1.25q-0.9375 1.078125 -2.125 1.671875q-1.171875 0.59375 -2.703125 0.59375zm7.563339 -0.28125l0 -11.65625l1.625 0l0.171875 2.109375l0.078125 0q0.59375 -1.109375 1.4375 -1.75q0.859375 -0.65625 1.875 -0.65625q0.6875 0 1.25 0.234375l-0.390625 1.734375q-0.28125 -0.09375 -0.53125 -0.140625q-0.234375 -0.046875 -0.59375 -0.046875q-0.75 0 -1.5625 0.609375q-0.796875 0.59375 -1.390625 2.078125l0 7.484375l-1.96875 0zm13.062347 0.28125q-1.1875 0 -2.203125 -0.40625q-1.015625 -0.421875 -1.78125 -1.203125q-0.75 -0.78125 -1.1875 -1.90625q-0.421875 -1.140625 -0.421875 -2.578125q0 -1.4375 0.4375 -2.578125q0.4375 -1.140625 1.171875 -1.921875q0.734375 -0.796875 1.671875 -1.21875q0.9375 -0.421875 1.953125 -0.421875q1.09375 0 1.96875 0.390625q0.875 0.375 1.46875 1.09375q0.59375 0.71875 0.890625 1.734375q0.3125 1.0 0.3125 2.25q0 0.3125 -0.015625 0.625q0 0.296875 -0.046875 0.5l-7.875 0q0.125 1.875 1.15625 2.96875q1.046875 1.09375 2.734375 1.09375q0.84375 0 1.546875 -0.25q0.703125 -0.25 1.359375 -0.65625l0.6875 1.296875q-0.765625 0.46875 -1.703125 0.828125q-0.9375 0.359375 -2.125 0.359375zm-3.671875 -7.046875l6.234375 0q0 -1.78125 -0.765625 -2.703125q-0.75 -0.921875 -2.109375 -0.921875q-0.625 0 -1.203125 0.25q-0.5625 0.234375 -1.015625 0.703125q-0.453125 0.46875 -0.75 1.140625q-0.296875 0.671875 -0.390625 1.53125zm13.528961 7.046875q-1.46875 0 -2.4375 -0.859375q-0.96875 -0.859375 -0.96875 -2.453125q0 -1.90625 1.703125 -2.921875q1.703125 -1.03125 5.453125 -1.4375q0 -0.546875 -0.109375 -1.078125q-0.109375 -0.53125 -0.375 -0.9375q-0.265625 -0.40625 -0.734375 -0.65625q-0.46875 -0.25 -1.1875 -0.25q-1.015625 0 -1.90625 0.390625q-0.875 0.375 -1.578125 0.84375l-0.765625 -1.359375q0.8125 -0.53125 1.984375 -1.015625q1.1875 -0.5 2.609375 -0.5q2.125 0 3.078125 1.3125q0.96875 1.296875 0.96875 3.484375l0 7.15625l-1.625 0l-0.171875 -1.390625l-0.078125 0q-0.828125 0.6875 -1.796875 1.1875q-0.953125 0.484375 -2.0625 0.484375zm0.578125 -1.578125q0.84375 0 1.578125 -0.390625q0.75 -0.40625 1.59375 -1.171875l0 -3.234375q-1.46875 0.1875 -2.46875 0.453125q-1.0 0.265625 -1.609375 0.625q-0.609375 0.359375 -0.890625 0.828125q-0.265625 0.46875 -0.265625 1.015625q0 1.015625 0.59375 1.453125q0.609375 0.421875 1.46875 0.421875zm12.502213 1.578125q-0.9375 0 -1.578125 -0.28125q-0.625 -0.28125 -1.03125 -0.78125q-0.390625 -0.515625 -0.5625 -1.234375q-0.171875 -0.71875 -0.171875 -1.578125l0 -6.46875l-1.71875 0l0 -1.484375l1.828125 -0.109375l0.234375 -3.265625l1.65625 0l0 3.265625l3.140625 0l0 1.59375l-3.140625 0l0 6.484375q0 1.078125 0.390625 1.671875q0.40625 0.59375 1.40625 0.59375q0.3125 0 0.671875 -0.09375q0.359375 -0.109375 0.65625 -0.21875l0.375 1.484375q-0.484375 0.171875 -1.046875 0.296875q-0.5625 0.125 -1.109375 0.125zm9.174469 0q-1.1875 0 -2.203125 -0.40625q-1.015625 -0.421875 -1.78125 -1.203125q-0.75 -0.78125 -1.1875 -1.90625q-0.421875 -1.140625 -0.421875 -2.578125q0 -1.4375 0.4375 -2.578125q0.4375 -1.140625 1.171875 -1.921875q0.734375 -0.796875 1.671875 -1.21875q0.9375 -0.421875 1.953125 -0.421875q1.09375 0 1.96875 0.390625q0.875 0.375 1.46875 1.09375q0.59375 0.71875 0.890625 1.734375q0.3125 1.0 0.3125 2.25q0 0.3125 -0.015625 0.625q0 0.296875 -0.046875 0.5l-7.875 0q0.125 1.875 1.15625 2.96875q1.046875 1.09375 2.734375 1.09375q0.84375 0 1.546875 -0.25q0.703125 -0.25 1.359375 -0.65625l0.6875 1.296875q-0.765625 0.46875 -1.703125 0.828125q-0.9375 0.359375 -2.125 0.359375zm-3.671875 -7.046875l6.234375 0q0 -1.78125 -0.765625 -2.703125q-0.75 -0.921875 -2.109375 -0.921875q-0.625 0 -1.203125 0.25q-0.5625 0.234375 -1.015625 0.703125q-0.453125 0.46875 -0.75 1.140625q-0.296875 0.671875 -0.390625 1.53125zm14.825836 7.046875q-2.203125 0 -3.515625 -1.578125q-1.3125 -1.578125 -1.3125 -4.515625q0 -1.40625 0.421875 -2.546875q0.421875 -1.140625 1.109375 -1.9375q0.703125 -0.796875 1.609375 -1.21875q0.921875 -0.4375 1.921875 -0.4375q1.015625 0 1.75 0.359375q0.75 0.359375 1.515625 0.984375l-0.09375 -1.984375l0 -4.5l2.0 0l0 17.09375l-1.640625 0l-0.171875 -1.375l-0.0625 0q-0.703125 0.671875 -1.609375 1.171875q-0.890625 0.484375 -1.921875 0.484375zm0.4375 -1.65625q0.8125 0 1.53125 -0.390625q0.71875 -0.390625 1.4375 -1.203125l0 -6.109375q-0.75 -0.671875 -1.4375 -0.9375q-0.671875 -0.28125 -1.390625 -0.28125q-0.703125 0 -1.3125 0.328125q-0.609375 0.328125 -1.0625 0.921875q-0.453125 0.578125 -0.71875 1.390625q-0.265625 0.8125 -0.265625 1.828125q0 2.109375 0.828125 3.28125q0.84375 1.171875 2.390625 1.171875z" fill-rule="nonzero"/><path fill="#08de65" d="m199.51968 80.42519l0 0c0 -10.758675 11.633545 -19.480312 25.984253 -19.480312l0 0c14.350708 0 25.984253 8.721638 25.984253 19.480312l0 0c0 10.758682 -11.633545 19.480316 -25.984253 19.480316l0 0c-14.350708 0 -25.984253 -8.721634 -25.984253 -19.480316z" fill-rule="evenodd"/><path fill="#000000" fill-opacity="0.0" d="m225.50394 99.90551l0 77.16535" fill-rule="evenodd"/><path stroke="#08de65" stroke-width="3.0" stroke-linejoin="round" stroke-linecap="butt" d="m225.50394 99.90551l0 59.16535" fill-rule="evenodd"/><path fill="#08de65" stroke="#08de65" stroke-width="3.0" stroke-linecap="butt" d="m220.54874 159.07086l4.9552 13.614304l4.9552 -13.614304z" fill-rule="evenodd"/><path fill="#08de65" d="m199.51968 404.1299l0 0c0 -10.758667 11.633545 -19.480316 25.984253 -19.480316l0 0c14.350708 0 25.984253 8.721649 25.984253 19.480316l0 0c0 10.7586975 -11.633545 19.480316 -25.984253 19.480316l0 0c-14.350708 0 -25.984253 -8.721619 -25.984253 -19.480316z" fill-rule="evenodd"/><path fill="#000000" fill-opacity="0.0" d="m225.50394 307.52167l0 77.13385" fill-rule="evenodd"/><path stroke="#08de65" stroke-width="3.0" stroke-linejoin="round" stroke-linecap="butt" d="m225.50394 307.52167l0 59.13385" fill-rule="evenodd"/><path fill="#08de65" stroke="#08de65" stroke-width="3.0" stroke-linecap="butt" d="m220.54874 366.65552l4.9552 13.614288l4.9552 -13.614288z" fill-rule="evenodd"/><path fill="#000000" fill-opacity="0.0" d="m60.417324 118.850395l154.23622 0l0 39.275597l-154.23622 0z" fill-rule="evenodd"/><path fill="#666666" d="m83.68387 144.90602q0 1.375 -0.390625 2.515625q-0.390625 1.140625 -1.125 1.96875q-0.71875 0.8125 -1.765625 1.265625q-1.03125 0.453125 -2.359375 0.453125q-1.265625 0 -2.265625 -0.390625q-1.0 -0.40625 -1.703125 -1.15625q-0.703125 -0.765625 -1.078125 -1.890625q-0.359375 -1.125 -0.359375 -2.59375q0 -1.375 0.390625 -2.5q0.390625 -1.140625 1.109375 -1.953125q0.734375 -0.8125 1.765625 -1.265625q1.046875 -0.453125 2.375 -0.453125q1.265625 0 2.265625 0.40625q1.0 0.390625 1.6875 1.140625q0.703125 0.75 1.078125 1.875q0.375 1.125 0.375 2.578125zm-2.09375 0.09375q0 -1.078125 -0.25 -1.890625q-0.234375 -0.828125 -0.6875 -1.359375q-0.4375 -0.546875 -1.078125 -0.828125q-0.625 -0.28125 -1.421875 -0.28125q-0.90625 0 -1.5625 0.359375q-0.640625 0.359375 -1.0625 0.96875q-0.421875 0.59375 -0.609375 1.390625q-0.1875 0.78125 -0.1875 1.640625q0 1.09375 0.234375 1.921875q0.234375 0.8125 0.671875 1.359375q0.453125 0.546875 1.078125 0.828125q0.640625 0.265625 1.4375 0.265625q0.921875 0 1.5625 -0.359375q0.65625 -0.359375 1.0625 -0.953125q0.421875 -0.59375 0.609375 -1.375q0.203125 -0.796875 0.203125 -1.6875zm5.0390625 -5.875l1.8125 0l0.09375 1.890625q0.515625 -0.609375 0.984375 -1.0q0.484375 -0.40625 0.9375 -0.65625q0.46875 -0.25 0.953125 -0.34375q0.484375 -0.109375 1.0 -0.109375q1.8125 0 2.734375 1.078125q0.9375 1.078125 0.9375 3.234375l0 7.671875l-2.03125 0l0 -7.515625q0 -1.375 -0.515625 -2.03125q-0.515625 -0.671875 -1.53125 -0.671875q-0.375 0 -0.734375 0.109375q-0.359375 0.109375 -0.75 0.390625q-0.390625 0.265625 -0.84375 0.734375q-0.4375 0.46875 -1.0 1.171875l0 7.8125l-2.046875 0l0 -11.765625zm22.976562 11.1875q-1.828125 0.765625 -3.84375 0.765625q-3.25 0 -5.0 -1.9375q-1.734375 -1.9375 -1.734375 -5.734375q0 -1.84375 0.484375 -3.328125q0.484375 -1.5 1.375 -2.53125q0.890625 -1.03125 2.15625 -1.59375q1.265625 -0.5625 2.828125 -0.5625q1.0625 0 1.96875 0.1875q0.921875 0.171875 1.765625 0.546875l0 2.046875q-0.828125 -0.453125 -1.71875 -0.6875q-0.890625 -0.25 -1.9375 -0.25q-1.078125 0 -1.953125 0.40625q-0.875 0.40625 -1.484375 1.171875q-0.609375 0.765625 -0.9375 1.875q-0.328125 1.109375 -0.328125 2.53125q0 2.96875 1.203125 4.484375q1.203125 1.515625 3.546875 1.515625q0.984375 0 1.875 -0.234375q0.90625 -0.234375 1.734375 -0.640625l0 1.96875zm3.8984375 -11.1875l1.859375 0l0.0625 2.171875q1.046875 -1.265625 2.046875 -1.828125q1.015625 -0.5625 2.046875 -0.5625q1.828125 0 2.765625 1.1875q0.953125 1.1875 0.890625 3.515625l-2.0625 0q0.03125 -1.546875 -0.453125 -2.234375q-0.484375 -0.703125 -1.421875 -0.703125q-0.421875 0 -0.84375 0.15625q-0.40625 0.140625 -0.84375 0.46875q-0.4375 0.3125 -0.9375 0.8125q-0.484375 0.5 -1.046875 1.21875l0 7.5625l-2.0625 0l0 -11.765625zm22.648438 5.265625q0 0.421875 -0.015625 0.71875q0 0.296875 -0.03125 0.546875l-8.265625 0q0 1.8125 1.0 2.78125q1.015625 0.96875 2.921875 0.96875q0.515625 0 1.03125 -0.046875q0.515625 -0.046875 0.984375 -0.109375q0.484375 -0.078125 0.921875 -0.15625q0.453125 -0.09375 0.828125 -0.203125l0 1.6875q-0.84375 0.234375 -1.890625 0.375q-1.046875 0.15625 -2.171875 0.15625q-1.515625 0 -2.609375 -0.40625q-1.078125 -0.421875 -1.78125 -1.203125q-0.6875 -0.78125 -1.03125 -1.90625q-0.328125 -1.140625 -0.328125 -2.5625q0 -1.25 0.359375 -2.34375q0.359375 -1.109375 1.03125 -1.953125q0.6875 -0.84375 1.6875 -1.328125q1.0 -0.5 2.265625 -0.5q1.234375 0 2.171875 0.390625q0.953125 0.390625 1.59375 1.109375q0.65625 0.703125 0.984375 1.71875q0.34375 1.0 0.34375 2.265625zm-2.125 -0.296875q0.046875 -0.78125 -0.140625 -1.4375q-0.1875 -0.65625 -0.59375 -1.125q-0.390625 -0.46875 -0.984375 -0.71875q-0.578125 -0.265625 -1.34375 -0.265625q-0.671875 0 -1.21875 0.265625q-0.546875 0.25 -0.953125 0.71875q-0.390625 0.46875 -0.640625 1.125q-0.25 0.65625 -0.3125 1.4375l6.1875 0zm12.9453125 6.796875l-0.046875 -1.578125q-0.96875 0.9375 -1.953125 1.375q-0.984375 0.421875 -2.078125 0.421875q-1.015625 0 -1.734375 -0.265625q-0.703125 -0.265625 -1.171875 -0.703125q-0.453125 -0.453125 -0.671875 -1.0625q-0.21875 -0.609375 -0.21875 -1.328125q0 -1.765625 1.3125 -2.765625q1.328125 -1.015625 3.90625 -1.015625l2.4375 0l0 -1.03125q0 -1.03125 -0.671875 -1.65625q-0.671875 -0.640625 -2.046875 -0.640625q-0.984375 0 -1.953125 0.234375q-0.96875 0.21875 -2.0 0.625l0 -1.84375q0.390625 -0.140625 0.859375 -0.265625q0.46875 -0.140625 1.0 -0.234375q0.53125 -0.109375 1.09375 -0.171875q0.578125 -0.078125 1.171875 -0.078125q1.0625 0 1.921875 0.234375q0.859375 0.234375 1.4375 0.71875q0.59375 0.484375 0.90625 1.21875q0.328125 0.71875 0.328125 1.703125l0 8.109375l-1.828125 0zm-0.21875 -5.359375l-2.59375 0q-0.765625 0 -1.3125 0.15625q-0.546875 0.15625 -0.90625 0.4375q-0.34375 0.28125 -0.515625 0.671875q-0.171875 0.390625 -0.171875 0.875q0 0.34375 0.09375 0.65625q0.109375 0.3125 0.34375 0.5625q0.234375 0.234375 0.609375 0.375q0.375 0.140625 0.921875 0.140625q0.703125 0 1.609375 -0.421875q0.90625 -0.4375 1.921875 -1.359375l0 -2.09375zm15.3359375 5.1875q-0.6875 0.1875 -1.4375 0.265625q-0.734375 0.078125 -1.5 0.078125q-2.203125 0 -3.296875 -1.0q-1.09375 -1.015625 -1.09375 -3.09375l0 -6.140625l-3.296875 0l0 -1.703125l3.296875 0l0 -3.234375l2.046875 -0.53125l0 3.765625l5.28125 0l0 1.703125l-5.28125 0l0 5.984375q0 1.265625 0.671875 1.890625q0.671875 0.625 1.984375 0.625q0.5625 0 1.21875 -0.078125q0.671875 -0.09375 1.40625 -0.28125l0 1.75zm13.6484375 -6.328125q0 0.421875 -0.015625 0.71875q0 0.296875 -0.03125 0.546875l-8.265625 0q0 1.8125 1.0 2.78125q1.015625 0.96875 2.921875 0.96875q0.515625 0 1.03125 -0.046875q0.515625 -0.046875 0.984375 -0.109375q0.484375 -0.078125 0.921875 -0.15625q0.453125 -0.09375 0.828125 -0.203125l0 1.6875q-0.84375 0.234375 -1.890625 0.375q-1.046875 0.15625 -2.171875 0.15625q-1.515625 0 -2.609375 -0.40625q-1.078125 -0.421875 -1.78125 -1.203125q-0.6875 -0.78125 -1.03125 -1.90625q-0.328125 -1.140625 -0.328125 -2.5625q0 -1.25 0.359375 -2.34375q0.359375 -1.109375 1.03125 -1.953125q0.6875 -0.84375 1.6875 -1.328125q1.0 -0.5 2.265625 -0.5q1.234375 0 2.171875 0.390625q0.953125 0.390625 1.59375 1.109375q0.65625 0.703125 0.984375 1.71875q0.34375 1.0 0.34375 2.265625zm-2.125 -0.296875q0.046875 -0.78125 -0.140625 -1.4375q-0.1875 -0.65625 -0.59375 -1.125q-0.390625 -0.46875 -0.984375 -0.71875q-0.578125 -0.265625 -1.34375 -0.265625q-0.671875 0 -1.21875 0.265625q-0.546875 0.25 -0.953125 0.71875q-0.390625 0.46875 -0.640625 1.125q-0.25 0.65625 -0.3125 1.4375l6.1875 0zm12.4296875 11.71875q-5.40625 -5.0 -5.40625 -11.0625q0 -1.421875 0.28125 -2.828125q0.296875 -1.421875 0.9375 -2.828125q0.640625 -1.421875 1.6875 -2.84375q1.046875 -1.421875 2.546875 -2.8125l1.1875 1.203125q-4.546875 4.5 -4.546875 9.953125q0 2.71875 1.140625 5.234375q1.15625 2.5 3.40625 4.734375l-1.234375 1.25zm8.5546875 -22.375q5.40625 5.0 5.40625 11.140625q0 1.265625 -0.265625 2.625q-0.25 1.359375 -0.875 2.78125q-0.625 1.421875 -1.671875 2.890625q-1.046875 1.46875 -2.640625 2.9375l-1.1875 -1.203125q2.28125 -2.265625 3.40625 -4.71875q1.125 -2.46875 1.125 -5.171875q0 -5.578125 -4.53125 -10.03125l1.234375 -1.25z" fill-rule="nonzero"/><path fill="#000000" fill-opacity="0.0" d="m46.18181 326.4354l168.47244 0l0 39.275604l-168.47244 0z" fill-rule="evenodd"/><path fill="#666666" d="m69.96881 352.49103q0 1.375 -0.390625 2.515625q-0.390625 1.140625 -1.125 1.96875q-0.71875 0.8125 -1.765625 1.265625q-1.03125 0.453125 -2.359375 0.453125q-1.265625 0 -2.265625 -0.390625q-1.0 -0.40625 -1.703125 -1.15625q-0.703125 -0.765625 -1.078125 -1.890625q-0.359375 -1.125 -0.359375 -2.59375q0 -1.375 0.390625 -2.5q0.390625 -1.140625 1.109375 -1.953125q0.734375 -0.8125 1.765625 -1.265625q1.046875 -0.453125 2.375 -0.453125q1.265625 0 2.265625 0.40625q1.0 0.390625 1.6875 1.140625q0.703125 0.75 1.078125 1.875q0.375 1.125 0.375 2.578125zm-2.09375 0.09375q0 -1.078125 -0.25 -1.890625q-0.234375 -0.828125 -0.6875 -1.359375q-0.4375 -0.546875 -1.078125 -0.828125q-0.625 -0.28125 -1.421875 -0.28125q-0.90625 0 -1.5625 0.359375q-0.640625 0.359375 -1.0625 0.96875q-0.421875 0.59375 -0.609375 1.390625q-0.1875 0.78125 -0.1875 1.640625q0 1.09375 0.234375 1.921875q0.234375 0.8125 0.671875 1.359375q0.453125 0.546875 1.078125 0.828125q0.640625 0.265625 1.4375 0.265625q0.921875 0 1.5625 -0.359375q0.65625 -0.359375 1.0625 -0.953125q0.421875 -0.59375 0.609375 -1.375q0.203125 -0.796875 0.203125 -1.6875zm5.0390625 -5.875l1.8125 0l0.09375 1.890625q0.515625 -0.609375 0.984375 -1.0q0.484375 -0.40625 0.9375 -0.65625q0.46875 -0.25 0.953125 -0.34375q0.484375 -0.109375 1.0 -0.109375q1.8125 0 2.734375 1.078125q0.9375 1.078125 0.9375 3.234375l0 7.671875l-2.03125 0l0 -7.515625q0 -1.375 -0.515625 -2.03125q-0.515625 -0.671875 -1.53125 -0.671875q-0.375 0 -0.734375 0.109375q-0.359375 0.109375 -0.75 0.390625q-0.390625 0.265625 -0.84375 0.734375q-0.4375 0.46875 -1.0 1.171875l0 7.8125l-2.046875 0l0 -11.765625zm23.664062 3.9375q0 1.09375 -0.171875 2.109375q-0.171875 1.0 -0.546875 1.875q-0.375 0.859375 -0.96875 1.578125q-0.59375 0.703125 -1.46875 1.21875q-0.859375 0.5 -2.015625 0.78125q-1.140625 0.265625 -2.609375 0.265625l-3.28125 0l0 -15.3125l3.953125 0q3.578125 0 5.34375 1.84375q1.765625 1.84375 1.765625 5.640625zm-2.1875 0.15625q0 -1.640625 -0.3125 -2.765625q-0.296875 -1.125 -0.921875 -1.8125q-0.625 -0.6875 -1.5625 -1.0q-0.9375 -0.3125 -2.203125 -0.3125l-1.796875 0l0 11.75l1.5625 0q5.234375 0 5.234375 -5.859375zm14.8515625 1.171875q0 0.421875 -0.015625 0.71875q0 0.296875 -0.03125 0.546875l-8.265625 0q0 1.8125 1.0 2.78125q1.015625 0.96875 2.921875 0.96875q0.515625 0 1.03125 -0.046875q0.515625 -0.046875 0.984375 -0.109375q0.484375 -0.078125 0.921875 -0.15625q0.453125 -0.09375 0.828125 -0.203125l0 1.6875q-0.84375 0.234375 -1.890625 0.375q-1.046875 0.15625 -2.171875 0.15625q-1.515625 0 -2.609375 -0.40625q-1.078125 -0.421875 -1.78125 -1.203125q-0.6875 -0.78125 -1.03125 -1.90625q-0.328125 -1.140625 -0.328125 -2.5625q0 -1.25 0.359375 -2.34375q0.359375 -1.109375 1.03125 -1.953125q0.6875 -0.84375 1.6875 -1.328125q1.0 -0.5 2.265625 -0.5q1.234375 0 2.171875 0.390625q0.953125 0.390625 1.59375 1.109375q0.65625 0.703125 0.984375 1.71875q0.34375 1.0 0.34375 2.265625zm-2.125 -0.296875q0.046875 -0.78125 -0.140625 -1.4375q-0.1875 -0.65625 -0.59375 -1.125q-0.390625 -0.46875 -0.984375 -0.71875q-0.578125 -0.265625 -1.34375 -0.265625q-0.671875 0 -1.21875 0.265625q-0.546875 0.25 -0.953125 0.71875q-0.390625 0.46875 -0.640625 1.125q-0.25 0.65625 -0.3125 1.4375l6.1875 0zm14.6953125 3.578125q0 0.625 -0.21875 1.125q-0.203125 0.484375 -0.5625 0.875q-0.359375 0.375 -0.84375 0.640625q-0.484375 0.265625 -1.03125 0.453125q-0.53125 0.171875 -1.109375 0.25q-0.578125 0.09375 -1.125 0.09375q-1.203125 0 -2.203125 -0.109375q-1.0 -0.109375 -1.953125 -0.34375l0 -1.875q1.03125 0.296875 2.046875 0.453125q1.015625 0.140625 2.03125 0.140625q1.453125 0 2.15625 -0.390625q0.703125 -0.40625 0.703125 -1.140625q0 -0.3125 -0.109375 -0.5625q-0.109375 -0.265625 -0.40625 -0.484375q-0.28125 -0.234375 -0.90625 -0.46875q-0.609375 -0.25 -1.671875 -0.578125q-0.796875 -0.234375 -1.484375 -0.53125q-0.671875 -0.296875 -1.171875 -0.703125q-0.484375 -0.40625 -0.765625 -0.953125q-0.28125 -0.5625 -0.28125 -1.3125q0 -0.484375 0.234375 -1.0625q0.234375 -0.59375 0.78125 -1.09375q0.546875 -0.515625 1.484375 -0.84375q0.9375 -0.34375 2.34375 -0.34375q0.6875 0 1.53125 0.078125q0.84375 0.078125 1.765625 0.265625l0 1.8125q-0.96875 -0.234375 -1.828125 -0.34375q-0.859375 -0.109375 -1.484375 -0.109375q-0.765625 0 -1.296875 0.125q-0.515625 0.109375 -0.84375 0.3125q-0.3125 0.203125 -0.453125 0.484375q-0.140625 0.28125 -0.140625 0.59375q0 0.3125 0.125 0.578125q0.125 0.25 0.453125 0.5q0.328125 0.234375 0.921875 0.484375q0.609375 0.234375 1.5625 0.515625q1.046875 0.296875 1.765625 0.640625q0.71875 0.328125 1.15625 0.734375q0.453125 0.40625 0.640625 0.921875q0.1875 0.515625 0.1875 1.171875zm13.3671875 3.046875q-0.6875 0.1875 -1.4375 0.265625q-0.734375 0.078125 -1.5 0.078125q-2.203125 0 -3.296875 -1.0q-1.09375 -1.015625 -1.09375 -3.09375l0 -6.140625l-3.296875 0l0 -1.703125l3.296875 0l0 -3.234375l2.046875 -0.53125l0 3.765625l5.28125 0l0 1.703125l-5.28125 0l0 5.984375q0 1.265625 0.671875 1.890625q0.671875 0.625 1.984375 0.625q0.5625 0 1.21875 -0.078125q0.671875 -0.09375 1.40625 -0.28125l0 1.75zm4.1953125 -11.59375l1.859375 0l0.0625 2.171875q1.046875 -1.265625 2.046875 -1.828125q1.015625 -0.5625 2.046875 -0.5625q1.828125 0 2.765625 1.1875q0.953125 1.1875 0.890625 3.515625l-2.0625 0q0.03125 -1.546875 -0.453125 -2.234375q-0.484375 -0.703125 -1.421875 -0.703125q-0.421875 0 -0.84375 0.15625q-0.40625 0.140625 -0.84375 0.46875q-0.4375 0.3125 -0.9375 0.8125q-0.484375 0.5 -1.046875 1.21875l0 7.5625l-2.0625 0l0 -11.765625zm22.960938 5.78125q0 1.375 -0.390625 2.515625q-0.390625 1.140625 -1.125 1.96875q-0.71875 0.8125 -1.765625 1.265625q-1.03125 0.453125 -2.359375 0.453125q-1.265625 0 -2.265625 -0.390625q-1.0 -0.40625 -1.703125 -1.15625q-0.703125 -0.765625 -1.078125 -1.890625q-0.359375 -1.125 -0.359375 -2.59375q0 -1.375 0.390625 -2.5q0.390625 -1.140625 1.109375 -1.953125q0.734375 -0.8125 1.765625 -1.265625q1.046875 -0.453125 2.375 -0.453125q1.265625 0 2.265625 0.40625q1.0 0.390625 1.6875 1.140625q0.703125 0.75 1.078125 1.875q0.375 1.125 0.375 2.578125zm-2.09375 0.09375q0 -1.078125 -0.25 -1.890625q-0.234375 -0.828125 -0.6875 -1.359375q-0.4375 -0.546875 -1.078125 -0.828125q-0.625 -0.28125 -1.421875 -0.28125q-0.90625 0 -1.5625 0.359375q-0.640625 0.359375 -1.0625 0.96875q-0.421875 0.59375 -0.609375 1.390625q-0.1875 0.78125 -0.1875 1.640625q0 1.09375 0.234375 1.921875q0.234375 0.8125 0.671875 1.359375q0.453125 0.546875 1.078125 0.828125q0.640625 0.265625 1.4375 0.265625q0.921875 0 1.5625 -0.359375q0.65625 -0.359375 1.0625 -0.953125q0.421875 -0.59375 0.609375 -1.375q0.203125 -0.796875 0.203125 -1.6875zm15.5078125 -5.875l-4.015625 10.515625q-0.609375 1.609375 -1.28125 2.765625q-0.65625 1.171875 -1.453125 1.90625q-0.78125 0.75 -1.71875 1.09375q-0.9375 0.359375 -2.09375 0.359375q-0.296875 0 -0.546875 -0.015625q-0.25 0 -0.546875 -0.03125l0 -1.84375q0.265625 0.03125 0.5625 0.0625q0.3125 0.03125 0.65625 0.03125q0.5625 0 1.046875 -0.171875q0.484375 -0.15625 0.90625 -0.53125q0.4375 -0.375 0.828125 -0.96875q0.40625 -0.578125 0.78125 -1.40625l-4.6875 -11.765625l2.3125 0l2.984375 7.78125l0.59375 1.828125l0.671875 -1.875l2.765625 -7.734375l2.234375 0zm9.7734375 16.6875q-5.40625 -5.0 -5.40625 -11.0625q0 -1.421875 0.28125 -2.828125q0.296875 -1.421875 0.9375 -2.828125q0.640625 -1.421875 1.6875 -2.84375q1.046875 -1.421875 2.546875 -2.8125l1.1875 1.203125q-4.546875 4.5 -4.546875 9.953125q0 2.71875 1.140625 5.234375q1.15625 2.5 3.40625 4.734375l-1.234375 1.25zm8.5546875 -22.375q5.40625 5.0 5.40625 11.140625q0 1.265625 -0.265625 2.625q-0.25 1.359375 -0.875 2.78125q-0.625 1.421875 -1.671875 2.890625q-1.046875 1.46875 -2.640625 2.9375l-1.1875 -1.203125q2.28125 -2.265625 3.40625 -4.71875q1.125 -2.46875 1.125 -5.171875q0 -5.578125 -4.53125 -10.03125l1.234375 -1.25z" fill-rule="nonzero"/><path fill="#000000" fill-opacity="0.0" d="m298.72177 326.437l154.23624 0l0 39.275574l-154.23624 0z" fill-rule="evenodd"/><path fill="#666666" d="m335.18365 352.49265q0 1.375 -0.390625 2.515625q-0.390625 1.140625 -1.125 1.96875q-0.71875 0.8125 -1.765625 1.265625q-1.03125 0.453125 -2.359375 0.453125q-1.265625 0 -2.265625 -0.390625q-1.0 -0.40625 -1.703125 -1.15625q-0.703125 -0.765625 -1.078125 -1.890625q-0.359375 -1.125 -0.359375 -2.59375q0 -1.375 0.390625 -2.5q0.390625 -1.140625 1.109375 -1.953125q0.734375 -0.8125 1.765625 -1.265625q1.046875 -0.453125 2.375 -0.453125q1.265625 0 2.265625 0.40625q1.0 0.390625 1.6875 1.140625q0.703125 0.75 1.078125 1.875q0.375 1.125 0.375 2.578125zm-2.09375 0.09375q0 -1.078125 -0.25 -1.890625q-0.234375 -0.828125 -0.6875 -1.359375q-0.4375 -0.546875 -1.078125 -0.828125q-0.625 -0.28125 -1.421875 -0.28125q-0.90625 0 -1.5625 0.359375q-0.640625 0.359375 -1.0625 0.96875q-0.421875 0.59375 -0.609375 1.390625q-0.1875 0.78125 -0.1875 1.640625q0 1.09375 0.234375 1.921875q0.234375 0.8125 0.671875 1.359375q0.453125 0.546875 1.078125 0.828125q0.640625 0.265625 1.4375 0.265625q0.921875 0 1.5625 -0.359375q0.65625 -0.359375 1.0625 -0.953125q0.421875 -0.59375 0.609375 -1.375q0.203125 -0.796875 0.203125 -1.6875zm5.0390625 -5.875l1.8125 0l0.09375 1.890625q0.515625 -0.609375 0.984375 -1.0q0.484375 -0.40625 0.9375 -0.65625q0.46875 -0.25 0.953125 -0.34375q0.484375 -0.109375 1.0 -0.109375q1.8125 0 2.734375 1.078125q0.9375 1.078125 0.9375 3.234375l0 7.671875l-2.03125 0l0 -7.515625q0 -1.375 -0.515625 -2.03125q-0.515625 -0.671875 -1.53125 -0.671875q-0.375 0 -0.734375 0.109375q-0.359375 0.109375 -0.75 0.390625q-0.390625 0.265625 -0.84375 0.734375q-0.4375 0.46875 -1.0 1.171875l0 7.8125l-2.046875 0l0 -11.765625zm23.007812 7.609375q0 1.09375 -0.453125 1.921875q-0.4375 0.8125 -1.234375 1.359375q-0.796875 0.546875 -1.921875 0.828125q-1.109375 0.265625 -2.46875 0.265625q-0.609375 0 -1.21875 -0.046875q-0.59375 -0.046875 -1.15625 -0.125q-0.546875 -0.078125 -1.046875 -0.171875q-0.484375 -0.09375 -0.890625 -0.1875l0 -2.015625q0.890625 0.328125 1.984375 0.515625q1.09375 0.1875 2.484375 0.1875q1.015625 0 1.71875 -0.15625q0.703125 -0.171875 1.15625 -0.46875q0.453125 -0.3125 0.65625 -0.75q0.203125 -0.453125 0.203125 -1.03125q0 -0.625 -0.34375 -1.0625q-0.34375 -0.4375 -0.90625 -0.78125q-0.5625 -0.34375 -1.28125 -0.625q-0.71875 -0.296875 -1.46875 -0.59375q-0.75 -0.3125 -1.46875 -0.671875q-0.71875 -0.359375 -1.28125 -0.84375q-0.5625 -0.484375 -0.921875 -1.140625q-0.34375 -0.65625 -0.34375 -1.5625q0 -0.78125 0.328125 -1.546875q0.328125 -0.765625 1.015625 -1.34375q0.703125 -0.59375 1.78125 -0.953125q1.09375 -0.375 2.59375 -0.375q0.375 0 0.828125 0.046875q0.453125 0.03125 0.90625 0.09375q0.46875 0.0625 0.921875 0.140625q0.453125 0.078125 0.84375 0.171875l0 1.875q-0.90625 -0.25 -1.8125 -0.375q-0.890625 -0.140625 -1.734375 -0.140625q-1.796875 0 -2.640625 0.59375q-0.84375 0.59375 -0.84375 1.609375q0 0.609375 0.34375 1.0625q0.34375 0.4375 0.90625 0.796875q0.5625 0.34375 1.28125 0.640625q0.71875 0.28125 1.46875 0.59375q0.75 0.296875 1.46875 0.671875q0.734375 0.359375 1.296875 0.859375q0.5625 0.484375 0.90625 1.15625q0.34375 0.671875 0.34375 1.578125zm12.8671875 3.984375q-0.6875 0.1875 -1.4375 0.265625q-0.734375 0.078125 -1.5 0.078125q-2.203125 0 -3.296875 -1.0q-1.09375 -1.015625 -1.09375 -3.09375l0 -6.140625l-3.296875 0l0 -1.703125l3.296875 0l0 -3.234375l2.046875 -0.53125l0 3.765625l5.28125 0l0 1.703125l-5.28125 0l0 5.984375q0 1.265625 0.671875 1.890625q0.671875 0.625 1.984375 0.625q0.5625 0 1.21875 -0.078125q0.671875 -0.09375 1.40625 -0.28125l0 1.75zm13.9609375 -5.8125q0 1.375 -0.390625 2.515625q-0.390625 1.140625 -1.125 1.96875q-0.71875 0.8125 -1.765625 1.265625q-1.03125 0.453125 -2.359375 0.453125q-1.265625 0 -2.265625 -0.390625q-1.0 -0.40625 -1.703125 -1.15625q-0.703125 -0.765625 -1.078125 -1.890625q-0.359375 -1.125 -0.359375 -2.59375q0 -1.375 0.390625 -2.5q0.390625 -1.140625 1.109375 -1.953125q0.734375 -0.8125 1.765625 -1.265625q1.046875 -0.453125 2.375 -0.453125q1.265625 0 2.265625 0.40625q1.0 0.390625 1.6875 1.140625q0.703125 0.75 1.078125 1.875q0.375 1.125 0.375 2.578125zm-2.09375 0.09375q0 -1.078125 -0.25 -1.890625q-0.234375 -0.828125 -0.6875 -1.359375q-0.4375 -0.546875 -1.078125 -0.828125q-0.625 -0.28125 -1.421875 -0.28125q-0.90625 0 -1.5625 0.359375q-0.640625 0.359375 -1.0625 0.96875q-0.421875 0.59375 -0.609375 1.390625q-0.1875 0.78125 -0.1875 1.640625q0 1.09375 0.234375 1.921875q0.234375 0.8125 0.671875 1.359375q0.453125 0.546875 1.078125 0.828125q0.640625 0.265625 1.4375 0.265625q0.921875 0 1.5625 -0.359375q0.65625 -0.359375 1.0625 -0.953125q0.421875 -0.59375 0.609375 -1.375q0.203125 -0.796875 0.203125 -1.6875zm15.1015625 -0.203125q0 1.5625 -0.453125 2.734375q-0.4375 1.171875 -1.21875 1.953125q-0.765625 0.765625 -1.828125 1.15625q-1.046875 0.390625 -2.265625 0.390625q-0.5625 0 -1.125 -0.0625q-0.5625 -0.046875 -1.125 -0.203125l0 4.9375l-2.046875 0l0 -16.578125l1.8125 0l0.140625 1.96875q0.875 -1.203125 1.859375 -1.6875q1.0 -0.5 2.171875 -0.5q1.0 0 1.765625 0.421875q0.765625 0.421875 1.28125 1.203125q0.515625 0.765625 0.765625 1.84375q0.265625 1.078125 0.265625 2.421875zm-2.09375 0.09375q0 -0.921875 -0.140625 -1.6875q-0.125 -0.78125 -0.421875 -1.328125q-0.296875 -0.5625 -0.75 -0.875q-0.453125 -0.3125 -1.09375 -0.3125q-0.375 0 -0.78125 0.125q-0.390625 0.125 -0.828125 0.421875q-0.421875 0.28125 -0.90625 0.765625q-0.46875 0.46875 -1.0 1.171875l0 5.703125q0.5625 0.234375 1.171875 0.375q0.625 0.125 1.21875 0.125q1.65625 0 2.59375 -1.109375q0.9375 -1.125 0.9375 -3.375zm12.2734375 10.921875q-5.40625 -5.0 -5.40625 -11.0625q0 -1.421875 0.28125 -2.828125q0.296875 -1.421875 0.9375 -2.828125q0.640625 -1.421875 1.6875 -2.84375q1.046875 -1.421875 2.546875 -2.8125l1.1875 1.203125q-4.546875 4.5 -4.546875 9.953125q0 2.71875 1.140625 5.234375q1.15625 2.5 3.40625 4.734375l-1.234375 1.25zm8.5546875 -22.375q5.40625 5.0 5.40625 11.140625q0 1.265625 -0.265625 2.625q-0.25 1.359375 -0.875 2.78125q-0.625 1.421875 -1.671875 2.890625q-1.046875 1.46875 -2.640625 2.9375l-1.1875 -1.203125q2.28125 -2.265625 3.40625 -4.71875q1.125 -2.46875 1.125 -5.171875q0 -5.578125 -4.53125 -10.03125l1.234375 -1.25z" fill-rule="nonzero"/><path fill="#000000" fill-opacity="0.0" d="m298.72177 118.850395l154.23624 0l0 39.275597l-154.23624 0z" fill-rule="evenodd"/><path fill="#666666" d="m328.586 144.90602q0 1.375 -0.390625 2.515625q-0.390625 1.140625 -1.125 1.96875q-0.71875 0.8125 -1.765625 1.265625q-1.03125 0.453125 -2.359375 0.453125q-1.265625 0 -2.265625 -0.390625q-1.0 -0.40625 -1.703125 -1.15625q-0.703125 -0.765625 -1.078125 -1.890625q-0.359375 -1.125 -0.359375 -2.59375q0 -1.375 0.390625 -2.5q0.390625 -1.140625 1.109375 -1.953125q0.734375 -0.8125 1.765625 -1.265625q1.046875 -0.453125 2.375 -0.453125q1.265625 0 2.265625 0.40625q1.0 0.390625 1.6875 1.140625q0.703125 0.75 1.078125 1.875q0.375 1.125 0.375 2.578125zm-2.09375 0.09375q0 -1.078125 -0.25 -1.890625q-0.234375 -0.828125 -0.6875 -1.359375q-0.4375 -0.546875 -1.078125 -0.828125q-0.625 -0.28125 -1.421875 -0.28125q-0.90625 0 -1.5625 0.359375q-0.640625 0.359375 -1.0625 0.96875q-0.421875 0.59375 -0.609375 1.390625q-0.1875 0.78125 -0.1875 1.640625q0 1.09375 0.234375 1.921875q0.234375 0.8125 0.671875 1.359375q0.453125 0.546875 1.078125 0.828125q0.640625 0.265625 1.4375 0.265625q0.921875 0 1.5625 -0.359375q0.65625 -0.359375 1.0625 -0.953125q0.421875 -0.59375 0.609375 -1.375q0.203125 -0.796875 0.203125 -1.6875zm5.0390625 -5.875l1.8125 0l0.09375 1.890625q0.515625 -0.609375 0.984375 -1.0q0.484375 -0.40625 0.9375 -0.65625q0.46875 -0.25 0.953125 -0.34375q0.484375 -0.109375 1.0 -0.109375q1.8125 0 2.734375 1.078125q0.9375 1.078125 0.9375 3.234375l0 7.671875l-2.03125 0l0 -7.515625q0 -1.375 -0.515625 -2.03125q-0.515625 -0.671875 -1.53125 -0.671875q-0.375 0 -0.734375 0.109375q-0.359375 0.109375 -0.75 0.390625q-0.390625 0.265625 -0.84375 0.734375q-0.4375 0.46875 -1.0 1.171875l0 7.8125l-2.046875 0l0 -11.765625zm23.007812 7.609375q0 1.09375 -0.453125 1.921875q-0.4375 0.8125 -1.234375 1.359375q-0.796875 0.546875 -1.921875 0.828125q-1.109375 0.265625 -2.46875 0.265625q-0.609375 0 -1.21875 -0.046875q-0.59375 -0.046875 -1.15625 -0.125q-0.546875 -0.078125 -1.046875 -0.171875q-0.484375 -0.09375 -0.890625 -0.1875l0 -2.015625q0.890625 0.328125 1.984375 0.515625q1.09375 0.1875 2.484375 0.1875q1.015625 0 1.71875 -0.15625q0.703125 -0.171875 1.15625 -0.46875q0.453125 -0.3125 0.65625 -0.75q0.203125 -0.453125 0.203125 -1.03125q0 -0.625 -0.34375 -1.0625q-0.34375 -0.4375 -0.90625 -0.78125q-0.5625 -0.34375 -1.28125 -0.625q-0.71875 -0.296875 -1.46875 -0.59375q-0.75 -0.3125 -1.46875 -0.671875q-0.71875 -0.359375 -1.28125 -0.84375q-0.5625 -0.484375 -0.921875 -1.140625q-0.34375 -0.65625 -0.34375 -1.5625q0 -0.78125 0.328125 -1.546875q0.328125 -0.765625 1.015625 -1.34375q0.703125 -0.59375 1.78125 -0.953125q1.09375 -0.375 2.59375 -0.375q0.375 0 0.828125 0.046875q0.453125 0.03125 0.90625 0.09375q0.46875 0.0625 0.921875 0.140625q0.453125 0.078125 0.84375 0.171875l0 1.875q-0.90625 -0.25 -1.8125 -0.375q-0.890625 -0.140625 -1.734375 -0.140625q-1.796875 0 -2.640625 0.59375q-0.84375 0.59375 -0.84375 1.609375q0 0.609375 0.34375 1.0625q0.34375 0.4375 0.90625 0.796875q0.5625 0.34375 1.28125 0.640625q0.71875 0.28125 1.46875 0.59375q0.75 0.296875 1.46875 0.671875q0.734375 0.359375 1.296875 0.859375q0.5625 0.484375 0.90625 1.15625q0.34375 0.671875 0.34375 1.578125zm12.8671875 3.984375q-0.6875 0.1875 -1.4375 0.265625q-0.734375 0.078125 -1.5 0.078125q-2.203125 0 -3.296875 -1.0q-1.09375 -1.015625 -1.09375 -3.09375l0 -6.140625l-3.296875 0l0 -1.703125l3.296875 0l0 -3.234375l2.046875 -0.53125l0 3.765625l5.28125 0l0 1.703125l-5.28125 0l0 5.984375q0 1.265625 0.671875 1.890625q0.671875 0.625 1.984375 0.625q0.5625 0 1.21875 -0.078125q0.671875 -0.09375 1.40625 -0.28125l0 1.75zm11.2734375 0.171875l-0.046875 -1.578125q-0.96875 0.9375 -1.953125 1.375q-0.984375 0.421875 -2.078125 0.421875q-1.015625 0 -1.734375 -0.265625q-0.703125 -0.265625 -1.171875 -0.703125q-0.453125 -0.453125 -0.671875 -1.0625q-0.21875 -0.609375 -0.21875 -1.328125q0 -1.765625 1.3125 -2.765625q1.328125 -1.015625 3.90625 -1.015625l2.4375 0l0 -1.03125q0 -1.03125 -0.671875 -1.65625q-0.671875 -0.640625 -2.046875 -0.640625q-0.984375 0 -1.953125 0.234375q-0.96875 0.21875 -2.0 0.625l0 -1.84375q0.390625 -0.140625 0.859375 -0.265625q0.46875 -0.140625 1.0 -0.234375q0.53125 -0.109375 1.09375 -0.171875q0.578125 -0.078125 1.171875 -0.078125q1.0625 0 1.921875 0.234375q0.859375 0.234375 1.4375 0.71875q0.59375 0.484375 0.90625 1.21875q0.328125 0.71875 0.328125 1.703125l0 8.109375l-1.828125 0zm-0.21875 -5.359375l-2.59375 0q-0.765625 0 -1.3125 0.15625q-0.546875 0.15625 -0.90625 0.4375q-0.34375 0.28125 -0.515625 0.671875q-0.171875 0.390625 -0.171875 0.875q0 0.34375 0.09375 0.65625q0.109375 0.3125 0.34375 0.5625q0.234375 0.234375 0.609375 0.375q0.375 0.140625 0.921875 0.140625q0.703125 0 1.609375 -0.421875q0.90625 -0.4375 1.921875 -1.359375l0 -2.09375zm6.3359375 -6.40625l1.859375 0l0.0625 2.171875q1.046875 -1.265625 2.046875 -1.828125q1.015625 -0.5625 2.046875 -0.5625q1.828125 0 2.765625 1.1875q0.953125 1.1875 0.890625 3.515625l-2.0625 0q0.03125 -1.546875 -0.453125 -2.234375q-0.484375 -0.703125 -1.421875 -0.703125q-0.421875 0 -0.84375 0.15625q-0.40625 0.140625 -0.84375 0.46875q-0.4375 0.3125 -0.9375 0.8125q-0.484375 0.5 -1.046875 1.21875l0 7.5625l-2.0625 0l0 -11.765625zm22.195312 11.59375q-0.6875 0.1875 -1.4375 0.265625q-0.734375 0.078125 -1.5 0.078125q-2.203125 0 -3.296875 -1.0q-1.09375 -1.015625 -1.09375 -3.09375l0 -6.140625l-3.296875 0l0 -1.703125l3.296875 0l0 -3.234375l2.046875 -0.53125l0 3.765625l5.28125 0l0 1.703125l-5.28125 0l0 5.984375q0 1.265625 0.671875 1.890625q0.671875 0.625 1.984375 0.625q0.5625 0 1.21875 -0.078125q0.671875 -0.09375 1.40625 -0.28125l0 1.75zm10.7578125 5.09375q-5.40625 -5.0 -5.40625 -11.0625q0 -1.421875 0.28125 -2.828125q0.296875 -1.421875 0.9375 -2.828125q0.640625 -1.421875 1.6875 -2.84375q1.046875 -1.421875 2.546875 -2.8125l1.1875 1.203125q-4.546875 4.5 -4.546875 9.953125q0 2.71875 1.140625 5.234375q1.15625 2.5 3.40625 4.734375l-1.234375 1.25zm8.5546875 -22.375q5.4062195 5.0 5.4062195 11.140625q0 1.265625 -0.265625 2.625q-0.25 1.359375 -0.875 2.78125q-0.625 1.421875 -1.671875 2.890625q-1.046875 1.46875 -2.6405945 2.9375l-1.1875 -1.203125q2.2812195 -2.265625 3.4062195 -4.71875q1.125 -2.46875 1.125 -5.171875q0 -5.578125 -4.5312195 -10.03125l1.234375 -1.25z" fill-rule="nonzero"/><path fill="#000000" fill-opacity="0.0" d="m599.4042 326.43896l154.23627 0l0 39.275604l-154.23627 0z" fill-rule="evenodd"/><path fill="#666666" d="m629.26843 352.4946q0 1.375 -0.390625 2.515625q-0.390625 1.140625 -1.125 1.96875q-0.71875 0.8125 -1.765625 1.265625q-1.03125 0.453125 -2.359375 0.453125q-1.265625 0 -2.265625 -0.390625q-1.0 -0.40625 -1.703125 -1.15625q-0.703125 -0.765625 -1.078125 -1.890625q-0.359375 -1.125 -0.359375 -2.59375q0 -1.375 0.390625 -2.5q0.390625 -1.140625 1.109375 -1.953125q0.734375 -0.8125 1.765625 -1.265625q1.046875 -0.453125 2.375 -0.453125q1.265625 0 2.265625 0.40625q1.0 0.390625 1.6875 1.140625q0.703125 0.75 1.078125 1.875q0.375 1.125 0.375 2.578125zm-2.09375 0.09375q0 -1.078125 -0.25 -1.890625q-0.234375 -0.828125 -0.6875 -1.359375q-0.4375 -0.546875 -1.078125 -0.828125q-0.625 -0.28125 -1.421875 -0.28125q-0.90625 0 -1.5625 0.359375q-0.640625 0.359375 -1.0625 0.96875q-0.421875 0.59375 -0.609375 1.390625q-0.1875 0.78125 -0.1875 1.640625q0 1.09375 0.234375 1.921875q0.234375 0.8125 0.671875 1.359375q0.453125 0.546875 1.078125 0.828125q0.640625 0.265625 1.4375 0.265625q0.921875 0 1.5625 -0.359375q0.65625 -0.359375 1.0625 -0.953125q0.421875 -0.59375 0.609375 -1.375q0.203125 -0.796875 0.203125 -1.6875zm5.0390625 -5.875l1.8125 0l0.09375 1.890625q0.515625 -0.609375 0.984375 -1.0q0.484375 -0.40625 0.9375 -0.65625q0.46875 -0.25 0.953125 -0.34375q0.484375 -0.109375 1.0 -0.109375q1.8125 0 2.734375 1.078125q0.9375 1.078125 0.9375 3.234375l0 7.671875l-2.03125 0l0 -7.515625q0 -1.375 -0.515625 -2.03125q-0.515625 -0.671875 -1.53125 -0.671875q-0.375 0 -0.734375 0.109375q-0.359375 0.109375 -0.75 0.390625q-0.390625 0.265625 -0.84375 0.734375q-0.4375 0.46875 -1.0 1.171875l0 7.8125l-2.046875 0l0 -11.765625zm23.226562 1.140625q0 0.9375 -0.359375 1.859375q-0.34375 0.90625 -1.078125 1.640625q-0.734375 0.71875 -1.890625 1.171875q-1.140625 0.453125 -2.734375 0.453125l-1.90625 0l0 5.5l-2.078125 0l0 -15.3125l4.3125 0q1.125 0 2.171875 0.25q1.046875 0.25 1.828125 0.8125q0.796875 0.5625 1.265625 1.453125q0.46875 0.890625 0.46875 2.171875zm-2.171875 0.09375q0 -1.484375 -0.96875 -2.265625q-0.953125 -0.78125 -2.6875 -0.78125l-2.140625 0l0 6.296875l1.953125 0q1.84375 0 2.84375 -0.796875q1.0 -0.8125 1.0 -2.453125zm12.8984375 10.53125l-0.046875 -1.578125q-0.96875 0.9375 -1.953125 1.375q-0.984375 0.421875 -2.078125 0.421875q-1.015625 0 -1.734375 -0.265625q-0.703125 -0.265625 -1.171875 -0.703125q-0.453125 -0.453125 -0.671875 -1.0625q-0.21875 -0.609375 -0.21875 -1.328125q0 -1.765625 1.3125 -2.765625q1.328125 -1.015625 3.90625 -1.015625l2.4375 0l0 -1.03125q0 -1.03125 -0.671875 -1.65625q-0.671875 -0.640625 -2.046875 -0.640625q-0.984375 0 -1.953125 0.234375q-0.96875 0.21875 -2.0 0.625l0 -1.84375q0.390625 -0.140625 0.859375 -0.265625q0.46875 -0.140625 1.0 -0.234375q0.53125 -0.109375 1.09375 -0.171875q0.578125 -0.078125 1.171875 -0.078125q1.0625 0 1.921875 0.234375q0.859375 0.234375 1.4375 0.71875q0.59375 0.484375 0.90625 1.21875q0.328125 0.71875 0.328125 1.703125l0 8.109375l-1.828125 0zm-0.21875 -5.359375l-2.59375 0q-0.765625 0 -1.3125 0.15625q-0.546875 0.15625 -0.90625 0.4375q-0.34375 0.28125 -0.515625 0.671875q-0.171875 0.390625 -0.171875 0.875q0 0.34375 0.09375 0.65625q0.109375 0.3125 0.34375 0.5625q0.234375 0.234375 0.609375 0.375q0.375 0.140625 0.921875 0.140625q0.703125 0 1.609375 -0.421875q0.90625 -0.4375 1.921875 -1.359375l0 -2.09375zm15.3046875 5.359375l-1.828125 0l-0.0625 -1.90625q-0.53125 0.609375 -1.015625 1.015625q-0.46875 0.40625 -0.9375 0.65625q-0.46875 0.25 -0.9375 0.34375q-0.46875 0.109375 -1.0 0.109375q-1.8125 0 -2.75 -1.0625q-0.921875 -1.078125 -0.921875 -3.234375l0 -7.6875l2.046875 0l0 7.515625q0 2.71875 2.03125 2.71875q0.375 0 0.734375 -0.109375q0.359375 -0.125 0.75 -0.390625q0.390625 -0.28125 0.84375 -0.75q0.453125 -0.46875 1.015625 -1.1875l0 -7.796875l2.03125 0l0 11.765625zm13.0546875 -3.21875q0 0.625 -0.21875 1.125q-0.203125 0.484375 -0.5625 0.875q-0.359375 0.375 -0.84375 0.640625q-0.484375 0.265625 -1.03125 0.453125q-0.53125 0.171875 -1.109375 0.25q-0.578125 0.09375 -1.125 0.09375q-1.203125 0 -2.203125 -0.109375q-1.0 -0.109375 -1.953125 -0.34375l0 -1.875q1.03125 0.296875 2.046875 0.453125q1.015625 0.140625 2.03125 0.140625q1.453125 0 2.15625 -0.390625q0.703125 -0.40625 0.703125 -1.140625q0 -0.3125 -0.109375 -0.5625q-0.109375 -0.265625 -0.40625 -0.484375q-0.28125 -0.234375 -0.90625 -0.46875q-0.609375 -0.25 -1.671875 -0.578125q-0.796875 -0.234375 -1.484375 -0.53125q-0.671875 -0.296875 -1.171875 -0.703125q-0.484375 -0.40625 -0.765625 -0.953125q-0.28125 -0.5625 -0.28125 -1.3125q0 -0.484375 0.234375 -1.0625q0.234375 -0.59375 0.78125 -1.09375q0.546875 -0.515625 1.484375 -0.84375q0.9375 -0.34375 2.34375 -0.34375q0.6875 0 1.53125 0.078125q0.84375 0.078125 1.765625 0.265625l0 1.8125q-0.96875 -0.234375 -1.828125 -0.34375q-0.859375 -0.109375 -1.484375 -0.109375q-0.765625 0 -1.296875 0.125q-0.515625 0.109375 -0.84375 0.3125q-0.3125 0.203125 -0.453125 0.484375q-0.140625 0.28125 -0.140625 0.59375q0 0.3125 0.125 0.578125q0.125 0.25 0.453125 0.5q0.328125 0.234375 0.921875 0.484375q0.609375 0.234375 1.5625 0.515625q1.046875 0.296875 1.765625 0.640625q0.71875 0.328125 1.15625 0.734375q0.453125 0.40625 0.640625 0.921875q0.1875 0.515625 0.1875 1.171875zm13.8203125 -3.28125q0 0.421875 -0.015625 0.71875q0 0.296875 -0.03125 0.546875l-8.265625 0q0 1.8125 1.0 2.78125q1.015625 0.96875 2.921875 0.96875q0.515625 0 1.03125 -0.046875q0.515625 -0.046875 0.984375 -0.109375q0.484375 -0.078125 0.921875 -0.15625q0.453125 -0.09375 0.828125 -0.203125l0 1.6875q-0.84375 0.234375 -1.890625 0.375q-1.046875 0.15625 -2.171875 0.15625q-1.515625 0 -2.609375 -0.40625q-1.078125 -0.421875 -1.78125 -1.203125q-0.6875 -0.78125 -1.03125 -1.90625q-0.328125 -1.140625 -0.328125 -2.5625q0 -1.25 0.359375 -2.34375q0.359375 -1.109375 1.03125 -1.953125q0.6875 -0.84375 1.6875 -1.328125q1.0 -0.5 2.265625 -0.5q1.234375 0 2.171875 0.390625q0.953125 0.390625 1.59375 1.109375q0.65625 0.703125 0.984375 1.71875q0.34375 1.0 0.34375 2.265625zm-2.125 -0.296875q0.046875 -0.78125 -0.140625 -1.4375q-0.1875 -0.65625 -0.59375 -1.125q-0.390625 -0.46875 -0.984375 -0.71875q-0.578125 -0.265625 -1.34375 -0.265625q-0.671875 0 -1.21875 0.265625q-0.546875 0.25 -0.953125 0.71875q-0.390625 0.46875 -0.640625 1.125q-0.25 0.65625 -0.3125 1.4375l6.1875 0zm12.4296875 11.71875q-5.40625 -5.0 -5.40625 -11.0625q0 -1.421875 0.28125 -2.828125q0.296875 -1.421875 0.9375 -2.828125q0.640625 -1.421875 1.6875 -2.84375q1.046875 -1.421875 2.546875 -2.8125l1.1875 1.203125q-4.546875 4.5 -4.546875 9.953125q0 2.71875 1.140625 5.234375q1.15625 2.5 3.40625 4.734375l-1.234375 1.25zm8.5546875 -22.375q5.406189 5.0 5.406189 11.140625q0 1.265625 -0.265625 2.625q-0.25 1.359375 -0.875 2.78125q-0.625 1.421875 -1.671875 2.890625q-1.046875 1.46875 -2.640564 2.9375l-1.1875 -1.203125q2.281189 -2.265625 3.406189 -4.71875q1.125 -2.46875 1.125 -5.171875q0 -5.578125 -4.531189 -10.03125l1.234375 -1.25z" fill-rule="nonzero"/><path fill="#000000" fill-opacity="0.0" d="m599.3989 118.12008l154.23627 0l0 39.275597l-154.23627 0z" fill-rule="evenodd"/><path fill="#666666" d="m622.6655 144.1757q0 1.375 -0.390625 2.515625q-0.390625 1.140625 -1.125 1.96875q-0.71875 0.8125 -1.765625 1.265625q-1.03125 0.453125 -2.359375 0.453125q-1.265625 0 -2.265625 -0.390625q-1.0 -0.40625 -1.703125 -1.15625q-0.703125 -0.765625 -1.078125 -1.890625q-0.359375 -1.125 -0.359375 -2.59375q0 -1.375 0.390625 -2.5q0.390625 -1.140625 1.109375 -1.953125q0.734375 -0.8125 1.765625 -1.265625q1.046875 -0.453125 2.375 -0.453125q1.265625 0 2.265625 0.40625q1.0 0.390625 1.6875 1.140625q0.703125 0.75 1.078125 1.875q0.375 1.125 0.375 2.578125zm-2.09375 0.09375q0 -1.078125 -0.25 -1.890625q-0.234375 -0.828125 -0.6875 -1.359375q-0.4375 -0.546875 -1.078125 -0.828125q-0.625 -0.28125 -1.421875 -0.28125q-0.90625 0 -1.5625 0.359375q-0.640625 0.359375 -1.0625 0.96875q-0.421875 0.59375 -0.609375 1.390625q-0.1875 0.78125 -0.1875 1.640625q0 1.09375 0.234375 1.921875q0.234375 0.8125 0.671875 1.359375q0.453125 0.546875 1.078125 0.828125q0.640625 0.265625 1.4375 0.265625q0.921875 0 1.5625 -0.359375q0.65625 -0.359375 1.0625 -0.953125q0.421875 -0.59375 0.609375 -1.375q0.203125 -0.796875 0.203125 -1.6875zm5.0390625 -5.875l1.8125 0l0.09375 1.890625q0.515625 -0.609375 0.984375 -1.0q0.484375 -0.40625 0.9375 -0.65625q0.46875 -0.25 0.953125 -0.34375q0.484375 -0.109375 1.0 -0.109375q1.8125 0 2.734375 1.078125q0.9375 1.078125 0.9375 3.234375l0 7.671875l-2.03125 0l0 -7.515625q0 -1.375 -0.515625 -2.03125q-0.515625 -0.671875 -1.53125 -0.671875q-0.375 0 -0.734375 0.109375q-0.359375 0.109375 -0.75 0.390625q-0.390625 0.265625 -0.84375 0.734375q-0.4375 0.46875 -1.0 1.171875l0 7.8125l-2.046875 0l0 -11.765625zm23.632812 11.765625l-2.34375 0l-2.296875 -4.90625q-0.25 -0.5625 -0.53125 -0.921875q-0.265625 -0.375 -0.578125 -0.59375q-0.296875 -0.21875 -0.671875 -0.3125q-0.375 -0.09375 -0.828125 -0.09375l-0.984375 0l0 6.828125l-2.078125 0l0 -15.3125l4.09375 0q1.34375 0 2.296875 0.296875q0.96875 0.28125 1.578125 0.8125q0.609375 0.53125 0.890625 1.28125q0.296875 0.734375 0.296875 1.640625q0 0.703125 -0.21875 1.34375q-0.203125 0.640625 -0.625 1.171875q-0.40625 0.515625 -1.03125 0.90625q-0.609375 0.375 -1.40625 0.5625q0.640625 0.21875 1.09375 0.78125q0.453125 0.546875 0.921875 1.46875l2.421875 5.046875zm-3.328125 -11.109375q0 -1.234375 -0.78125 -1.84375q-0.765625 -0.609375 -2.15625 -0.609375l-1.96875 0l0 5.0625l1.6875 0q0.734375 0 1.328125 -0.171875q0.59375 -0.171875 1.0 -0.5q0.421875 -0.328125 0.65625 -0.8125q0.234375 -0.5 0.234375 -1.125zm16.023438 4.609375q0 0.421875 -0.015625 0.71875q0 0.296875 -0.03125 0.546875l-8.265625 0q0 1.8125 1.0 2.78125q1.015625 0.96875 2.921875 0.96875q0.515625 0 1.03125 -0.046875q0.515625 -0.046875 0.984375 -0.109375q0.484375 -0.078125 0.921875 -0.15625q0.453125 -0.09375 0.828125 -0.203125l0 1.6875q-0.84375 0.234375 -1.890625 0.375q-1.046875 0.15625 -2.171875 0.15625q-1.515625 0 -2.609375 -0.40625q-1.078125 -0.421875 -1.78125 -1.203125q-0.6875 -0.78125 -1.03125 -1.90625q-0.328125 -1.140625 -0.328125 -2.5625q0 -1.25 0.359375 -2.34375q0.359375 -1.109375 1.03125 -1.953125q0.6875 -0.84375 1.6875 -1.328125q1.0 -0.5 2.265625 -0.5q1.234375 0 2.171875 0.390625q0.953125 0.390625 1.59375 1.109375q0.65625 0.703125 0.984375 1.71875q0.34375 1.0 0.34375 2.265625zm-2.125 -0.296875q0.046875 -0.78125 -0.140625 -1.4375q-0.1875 -0.65625 -0.59375 -1.125q-0.390625 -0.46875 -0.984375 -0.71875q-0.578125 -0.265625 -1.34375 -0.265625q-0.671875 0 -1.21875 0.265625q-0.546875 0.25 -0.953125 0.71875q-0.390625 0.46875 -0.640625 1.125q-0.25 0.65625 -0.3125 1.4375l6.1875 0zm14.6953125 3.578125q0 0.625 -0.21875 1.125q-0.203125 0.484375 -0.5625 0.875q-0.359375 0.375 -0.84375 0.640625q-0.484375 0.265625 -1.03125 0.453125q-0.53125 0.171875 -1.109375 0.25q-0.578125 0.09375 -1.125 0.09375q-1.203125 0 -2.203125 -0.109375q-1.0 -0.109375 -1.953125 -0.34375l0 -1.875q1.03125 0.296875 2.046875 0.453125q1.015625 0.140625 2.03125 0.140625q1.453125 0 2.15625 -0.390625q0.703125 -0.40625 0.703125 -1.140625q0 -0.3125 -0.109375 -0.5625q-0.109375 -0.265625 -0.40625 -0.484375q-0.28125 -0.234375 -0.90625 -0.46875q-0.609375 -0.25 -1.671875 -0.578125q-0.796875 -0.234375 -1.484375 -0.53125q-0.671875 -0.296875 -1.171875 -0.703125q-0.484375 -0.40625 -0.765625 -0.953125q-0.28125 -0.5625 -0.28125 -1.3125q0 -0.484375 0.234375 -1.0625q0.234375 -0.59375 0.78125 -1.09375q0.546875 -0.515625 1.484375 -0.84375q0.9375 -0.34375 2.34375 -0.34375q0.6875 0 1.53125 0.078125q0.84375 0.078125 1.765625 0.265625l0 1.8125q-0.96875 -0.234375 -1.828125 -0.34375q-0.859375 -0.109375 -1.484375 -0.109375q-0.765625 0 -1.296875 0.125q-0.515625 0.109375 -0.84375 0.3125q-0.3125 0.203125 -0.453125 0.484375q-0.140625 0.28125 -0.140625 0.59375q0 0.3125 0.125 0.578125q0.125 0.25 0.453125 0.5q0.328125 0.234375 0.921875 0.484375q0.609375 0.234375 1.5625 0.515625q1.046875 0.296875 1.765625 0.640625q0.71875 0.328125 1.15625 0.734375q0.453125 0.40625 0.640625 0.921875q0.1875 0.515625 0.1875 1.171875zm13.3359375 3.21875l-1.828125 0l-0.0625 -1.90625q-0.53125 0.609375 -1.015625 1.015625q-0.46875 0.40625 -0.9375 0.65625q-0.46875 0.25 -0.9375 0.34375q-0.46875 0.109375 -1.0 0.109375q-1.8125 0 -2.75 -1.0625q-0.921875 -1.078125 -0.921875 -3.234375l0 -7.6875l2.046875 0l0 7.515625q0 2.71875 2.03125 2.71875q0.375 0 0.734375 -0.109375q0.359375 -0.125 0.75 -0.390625q0.390625 -0.28125 0.84375 -0.75q0.453125 -0.46875 1.015625 -1.1875l0 -7.796875l2.03125 0l0 11.765625zm12.1328125 0l0 -8.453125q0 -0.546875 -0.046875 -0.890625q-0.03125 -0.359375 -0.125 -0.5625q-0.078125 -0.203125 -0.21875 -0.28125q-0.140625 -0.09375 -0.328125 -0.09375q-0.234375 0 -0.4375 0.140625q-0.203125 0.140625 -0.4375 0.46875q-0.21875 0.3125 -0.5 0.828125q-0.265625 0.515625 -0.640625 1.28125l0 7.5625l-1.875 0l0 -8.234375q0 -0.640625 -0.046875 -1.03125q-0.03125 -0.40625 -0.125 -0.625q-0.078125 -0.21875 -0.21875 -0.296875q-0.140625 -0.09375 -0.34375 -0.09375q-0.203125 0 -0.390625 0.125q-0.1875 0.109375 -0.421875 0.421875q-0.234375 0.296875 -0.515625 0.828125q-0.28125 0.53125 -0.65625 1.34375l0 7.5625l-1.875 0l0 -11.765625l1.546875 0l0.09375 2.234375q0.3125 -0.671875 0.59375 -1.140625q0.296875 -0.46875 0.59375 -0.75q0.3125 -0.28125 0.65625 -0.421875q0.34375 -0.140625 0.765625 -0.140625q0.953125 0 1.4375 0.625q0.5 0.625 0.5 1.921875q0.28125 -0.609375 0.546875 -1.078125q0.265625 -0.484375 0.578125 -0.796875q0.3125 -0.328125 0.6875 -0.5q0.375 -0.171875 0.859375 -0.171875q2.21875 0 2.21875 3.421875l0 8.5625l-1.875 0zm14.7421875 -6.5q0 0.421875 -0.015625 0.71875q0 0.296875 -0.03125 0.546875l-8.265625 0q0 1.8125 1.0 2.78125q1.015625 0.96875 2.921875 0.96875q0.515625 0 1.03125 -0.046875q0.515625 -0.046875 0.984375 -0.109375q0.484375 -0.078125 0.921875 -0.15625q0.453125 -0.09375 0.828125 -0.203125l0 1.6875q-0.84375 0.234375 -1.890625 0.375q-1.046875 0.15625 -2.171875 0.15625q-1.515625 0 -2.609375 -0.40625q-1.078125 -0.421875 -1.78125 -1.203125q-0.6875 -0.78125 -1.03125 -1.90625q-0.328125 -1.140625 -0.328125 -2.5625q0 -1.25 0.359375 -2.34375q0.359375 -1.109375 1.03125 -1.953125q0.6875 -0.84375 1.6875 -1.328125q1.0 -0.5 2.265625 -0.5q1.234375 0 2.171875 0.390625q0.953125 0.390625 1.59375 1.109375q0.65625 0.703125 0.984375 1.71875q0.34375 1.0 0.34375 2.265625zm-2.125 -0.296875q0.046875 -0.78125 -0.140625 -1.4375q-0.1875 -0.65625 -0.59375 -1.125q-0.390625 -0.46875 -0.984375 -0.71875q-0.578125 -0.265625 -1.34375 -0.265625q-0.671875 0 -1.21875 0.265625q-0.546875 0.25 -0.953125 0.71875q-0.390625 0.46875 -0.640625 1.125q-0.25 0.65625 -0.3125 1.4375l6.1875 0zm12.4296875 11.71875q-5.40625 -5.0 -5.40625 -11.0625q0 -1.421875 0.28125 -2.828125q0.296875 -1.421875 0.9375 -2.828125q0.640625 -1.421875 1.6875 -2.84375q1.046875 -1.421875 2.546875 -2.8125l1.1875 1.203125q-4.546875 4.5 -4.546875 9.953125q0 2.71875 1.140625 5.234375q1.15625 2.5 3.40625 4.734375l-1.234375 1.25zm8.554626 -22.375q5.40625 5.0 5.40625 11.140625q0 1.265625 -0.265625 2.625q-0.25 1.359375 -0.875 2.78125q-0.625 1.421875 -1.671875 2.890625q-1.046875 1.46875 -2.640625 2.9375l-1.1875 -1.203125q2.28125 -2.265625 3.40625 -4.71875q1.125 -2.46875 1.125 -5.171875q0 -5.578125 -4.53125 -10.03125l1.234375 -1.25z" fill-rule="nonzero"/><path fill="#000000" fill-opacity="0.0" d="m286.9944 196.1699c0 -16.920135 44.4252 -33.848145 88.8504 -33.840256c44.4252 0.007873535 88.8504 16.951614 88.8504 33.903244" fill-rule="evenodd"/><path stroke="#08de65" stroke-width="3.0" stroke-linejoin="round" stroke-linecap="butt" d="m286.9944 196.1699c0 -16.920135 44.4252 -33.848145 88.8504 -33.84027c22.212585 0.0039367676 44.42517 4.241852 61.084625 10.597733c4.164856 1.5889587 7.982666 3.3103027 11.366608 5.130951c1.6919556 0.9103241 3.2755127 1.8454895 4.739685 2.8013458c0.36608887 0.23893738 0.7246704 0.47920227 1.0756531 0.72068787l0.06539917 0.04560852" fill-rule="evenodd"/><path fill="#08de65" stroke="#08de65" stroke-width="3.0" stroke-linecap="butt" d="m450.1556 184.52158l11.976746 8.152344l-3.9344788 -13.943558z" fill-rule="evenodd"/><path fill="#000000" fill-opacity="0.0" d="m464.69064 288.41672c0 17.022491 -44.4252 34.03711 -88.85037 34.044983c-44.4252 0.007873535 -88.8504 -16.990997 -88.8504 -33.981995" fill-rule="evenodd"/><path stroke="#08de65" stroke-width="3.0" stroke-linejoin="round" stroke-linecap="butt" d="m464.69064 288.41672c0 17.022491 -44.42517 34.03711 -88.85037 34.044983c-22.212616 0.0039367676 -44.4252 -4.243805 -61.084656 -10.616425c-4.164856 -1.5931396 -7.9826355 -3.3191223 -11.366577 -5.144623c-1.6920166 -0.91278076 -3.2755127 -1.8504333 -4.7397156 -2.808838c-0.36605835 -0.2395935 -0.7246704 -0.48046875 -1.0756226 -0.7225952l-0.09136963 -0.06390381" fill-rule="evenodd"/><path fill="#08de65" stroke="#08de65" stroke-width="3.0" stroke-linecap="butt" d="m301.50858 300.21686l-11.962219 -8.1736145l3.9096985 13.950531z" fill-rule="evenodd"/><path fill="#000000" fill-opacity="0.0" d="m587.6716 196.1699c0 -13.158157 44.42517 -26.269058 88.8504 -26.316315c44.42517 -0.04724121 88.85034 12.969177 88.85034 25.938354" fill-rule="evenodd"/><path stroke="#08de65" stroke-width="3.0" stroke-linejoin="round" stroke-linecap="butt" d="m587.6716 196.1699c0 -13.158157 44.42517 -26.269058 88.85034 -26.3163c22.212646 -0.023620605 44.425293 3.2186737 61.084717 8.088013c4.164856 1.2173309 7.982605 2.5363617 11.366638 3.9314728c0.84594727 0.34877014 1.664856 0.702301 2.4552002 1.0602112c0.1975708 0.08946228 0.39349365 0.17921448 0.5874634 0.26921082l0.33807373 0.1587677" fill-rule="evenodd"/><path fill="#08de65" stroke="#08de65" stroke-width="3.0" stroke-linecap="butt" d="m748.93195 186.9451l13.268494 5.818115l-6.4244385 -12.985748z" fill-rule="evenodd"/><path fill="#000000" fill-opacity="0.0" d="m765.3678 288.05255c0 12.678345 -44.42517 25.309479 -88.8504 25.35672c-44.42517 0.04724121 -88.85034 -12.48938 -88.85034 -24.97879" fill-rule="evenodd"/><path stroke="#08de65" stroke-width="3.0" stroke-linejoin="round" stroke-linecap="butt" d="m765.3678 288.05252c0 12.678375 -44.425232 25.30951 -88.85034 25.35675c-22.212646 0.023620605 -44.425232 -3.098755 -61.084656 -7.788147c-4.164856 -1.1723633 -7.982666 -2.4426575 -11.366638 -3.7862244c-0.84594727 -0.33590698 -1.664856 -0.6763611 -2.4552002 -1.0210571c-0.19763184 -0.08615112 -0.39349365 -0.1725769 -0.5875244 -0.25924683l-0.036865234 -0.016693115" fill-rule="evenodd"/><path fill="#08de65" stroke="#08de65" stroke-width="3.0" stroke-linecap="butt" d="m604.31964 296.8712l-13.407288 -5.4907227l6.741211 12.824158z" fill-rule="evenodd"/><path fill="#000000" fill-opacity="0.0" d="m164.01349 288.41672c0 6.0351257 -16.90776 18.560974 -33.817764 12.070251c-16.910011 -6.4907227 -33.822273 -31.997986 -33.817772 -57.40657c0.004501343 -25.408554 16.925758 -50.718414 33.849266 -57.406555c16.923508 -6.6881256 33.84926 5.245453 33.84926 10.490906" fill-rule="evenodd"/><path stroke="#08de65" stroke-width="3.0" stroke-linejoin="round" stroke-linecap="butt" d="m164.01349 288.41672c0 6.0351257 -16.90776 18.560944 -33.817764 12.070251c-16.910011 -6.4907227 -33.822273 -31.997986 -33.817772 -57.40657c0.004501343 -25.40857 16.925758 -50.718414 33.849266 -57.406555c4.2308807 -1.6720428 8.461884 -2.1802063 12.428543 -1.9199829c1.9833374 0.13009644 3.9005737 0.45230103 5.7186584 0.9171753c0.4545288 0.11619568 0.9028473 0.24134827 1.3444672 0.3746338l0.16262817 0.050949097" fill-rule="evenodd"/><path fill="#08de65" stroke="#08de65" stroke-width="3.0" stroke-linecap="butt" d="m146.8346 189.00432l13.783279 4.463669l-7.6894226 -12.279083z" fill-rule="evenodd"/><path fill="#000000" fill-opacity="0.0" d="m32.756474 327.62994l-0.03149414 -169.29135l52.37795 0l0.03150177 169.29135z" fill-rule="evenodd"/><path fill="#666666" d="m58.8076 303.4335q1.375 0 2.5156975 0.390625q1.1406975 0.390625 1.9689598 1.125q0.8126335 0.71875 1.2659569 1.765625q0.45331573 1.03125 0.45355988 2.359375q2.3651123E-4 1.265625 -0.39020538 2.265625q-0.40605927 1.0 -1.1559296 1.703125q-0.7654953 0.703125 -1.8904266 1.078125q-1.1249313 0.359375 -2.5936813 0.359375q-1.375 0 -2.5000725 -0.390625q-1.1406975 -0.390625 -1.953331 -1.109375q-0.8126373 -0.734375 -1.2659531 -1.765625q-0.45331955 -1.046875 -0.4535675 -2.375q-2.3651123E-4 -1.265625 0.40582657 -2.265625q0.3904419 -1.0 1.1403122 -1.6875q0.7498703 -0.703125 1.8747978 -1.078125q1.1249313 -0.375 2.5780563 -0.375zm0.0941391 2.09375q-1.078125 0 -1.8905792 0.25q-0.8280792 0.234375 -1.3592453 0.6875q-0.5467949 0.4375 -0.8279228 1.078125q-0.28113556 0.625 -0.2809868 1.421875q1.6784668E-4 0.90625 0.35966492 1.5625q0.35949326 0.640625 0.96894836 1.0625q0.5938301 0.421875 1.3907394 0.609375q0.78128433 0.1875 1.6406593 0.1875q1.09375 0 1.9218292 -0.234375q0.81245804 -0.234375 1.3592529 -0.671875q0.5467911 -0.453125 0.8279228 -1.078125q0.26550674 -0.640625 0.26535797 -1.4375q-1.7166138E-4 -0.921875 -0.35966492 -1.5625q-0.35949707 -0.65625 -0.95332336 -1.0625q-0.5938301 -0.421875 -1.3751144 -0.609375q-0.79691315 -0.203125 -1.6875381 -0.203125zm-5.8759384 -5.0390625l-3.3569336E-4 -1.8125l1.8906097 -0.09375q-0.6094742 -0.515625 -1.0001831 -0.984375q-0.40634155 -0.484375 -0.6564255 -0.9375q-0.25008774 -0.46875 -0.3439293 -0.953125q-0.10946274 -0.484375 -0.109558105 -1.0q-3.3950806E-4 -1.8125 1.0776138 -2.734375q1.0779495 -0.9375 3.2341995 -0.9375l7.671875 0l3.8146973E-4 2.03125l-7.515625 0q-1.375 0 -2.0311546 0.515625q-0.67177963 0.515625 -0.6715927 1.53125q7.247925E-5 0.375 0.10951233 0.734375q0.109443665 0.359375 0.39076614 0.75q0.26569748 0.390625 0.7345314 0.84375q0.4688301 0.4375 1.1720619 1.0l7.8125 0l3.8146973E-4 2.046875l-11.765629 0zm11.761227 -23.632812l4.4250488E-4 2.34375l-4.9058266 2.296875q-0.5624542 0.25 -0.9217758 0.53125q-0.3749504 0.265625 -0.5936432 0.578125q-0.21869278 0.296875 -0.31237411 0.671875q-0.093681335 0.375 -0.0935936 0.828125l1.8310547E-4 0.984375l6.828121 0l3.8909912E-4 2.078125l-15.3125 0l-7.6293945E-4 -4.09375q-2.4795532E-4 -1.34375 0.29644775 -2.296875q0.2810707 -0.96875 0.81220627 -1.578125q0.53113556 -0.609375 1.281086 -0.890625q0.7343178 -0.296875 1.6405678 -0.296875q0.703125 0 1.343792 0.21875q0.64066315 0.203125 1.1719894 0.625q0.5157013 0.40625 0.90644455 1.03125q0.37511063 0.609375 0.5627594 1.40625q0.21863174 -0.640625 0.7810478 -1.09375q0.5467911 -0.453125 1.4685783 -0.921875l5.046421 -2.421875zm-11.108753 3.328125q-1.234375 0 -1.843605 0.78125q-0.60923004 0.765625 -0.60897446 2.15625l3.6621094E-4 1.96875l5.062504 0l-3.1661987E-4 -1.6875q-1.373291E-4 -0.734375 -0.17212296 -1.328125q-0.17198563 -0.59375 -0.5001831 -1.0q-0.3282051 -0.421875 -0.8126221 -0.65625q-0.5000458 -0.234375 -1.1250458 -0.234375zm4.6063957 -16.023438q0.421875 0 0.7187538 0.015625q0.296875 0 0.5468788 0.03125l0.001537323 8.265625q1.8125 0 2.781063 -1.0q0.9685631 -1.015625 0.9682083 -2.921875q-9.536743E-5 -0.515625 -0.047065735 -1.03125q-0.046974182 -0.515625 -0.109558105 -0.984375q-0.07821655 -0.484375 -0.15642166 -0.921875q-0.09383392 -0.453125 -0.2032814 -0.828125l1.6875 0q0.23453522 0.84375 0.37535095 1.890625q0.15644836 1.046875 0.15665436 2.171875q2.822876E-4 1.515625 -0.40576172 2.609375q-0.42167664 1.078125 -1.2027931 1.78125q-0.7811241 0.6875 -1.9060593 1.03125q-1.140564 0.328125 -2.562439 0.328125q-1.25 0 -2.3438187 -0.359375q-1.1094398 -0.359375 -1.9533157 -1.03125q-0.8438797 -0.6875 -1.3284378 -1.6875q-0.5001869 -1.0 -0.50042343 -2.265625q-2.2888184E-4 -1.234375 0.39022064 -2.171875q0.39044952 -0.953125 1.1090813 -1.59375q0.7030029 -0.65625 1.7185669 -0.984375q0.99993515 -0.34375 2.2655602 -0.34375zm-0.2964821 2.125q-0.7812576 -0.046875 -1.4374733 0.140625q-0.65621567 0.1875 -1.1248894 0.59375q-0.46867752 0.390625 -0.7185669 0.984375q-0.2655182 0.578125 -0.26537323 1.34375q1.2588501E-4 0.671875 0.26585007 1.21875q0.250103 0.546875 0.7189293 0.953125q0.46882248 0.390625 1.1251183 0.640625q0.6562958 0.25 1.4375572 0.3125l-0.0011520386 -6.1875zm3.5753937 -14.695328q0.625 0 1.1250381 0.21875q0.48441315 0.203125 0.8751068 0.5625q0.37506485 0.359375 0.6407814 0.84375q0.26571655 0.484375 0.45331573 1.03125q0.17197418 0.53125 0.250206 1.109375q0.09385681 0.578125 0.09396362 1.1250153q2.2125244E-4 1.203125 -0.10897064 2.203125q-0.109184265 1.0 -0.3433838 1.953125l-1.875 0q0.29668427 -1.03125 0.45274353 -2.046875q0.14043808 -1.015625 0.14024734 -2.03125q-2.708435E-4 -1.4531403 -0.39102554 -2.1562653q-0.4063797 -0.703125 -1.1407547 -0.703125q-0.3125 0 -0.5624809 0.109375q-0.26560593 0.109375 -0.4842987 0.40625q-0.23432541 0.28125 -0.46858215 0.90625q-0.24988556 0.609375 -0.577816 1.6718903q-0.23422623 0.796875 -0.5309715 1.484375q-0.29674911 0.671875 -0.70290756 1.171875q-0.40615845 0.484375 -0.95298386 0.765625q-0.5624466 0.28125 -1.3124466 0.28125q-0.484375 0 -1.062542 -0.234375q-0.5937958 -0.234375 -1.0938988 -0.78125q-0.5157242 -0.546875 -0.84402466 -1.484375q-0.34392548 -0.9375 -0.34418488 -2.3437653q-1.296997E-4 -0.6875 0.0778389 -1.53125q0.0779686 -0.84375 0.26529694 -1.765625l1.8125 0q-0.23419571 0.96875 -0.3434105 1.828125q-0.10921478 0.859375 -0.10909653 1.484375q1.411438E-4 0.76564026 0.12524033 1.2968903q0.10947037 0.515625 0.3126564 0.84375q0.20318222 0.3125 0.48445892 0.453125q0.2812767 0.140625 0.5937767 0.140625q0.3125 0 0.5781021 -0.125q0.24997711 -0.125 0.49991608 -0.453125q0.23431396 -0.328125 0.48420334 -0.921875q0.23426056 -0.609375 0.5153351 -1.5625153q0.29668045 -1.046875 0.6402931 -1.765625q0.3279915 -0.71875 0.7341614 -1.15625q0.40616608 -0.453125 0.92175674 -0.640625q0.51559067 -0.1875 1.1718407 -0.1875zm3.044384 -13.3671875q0.1876297 0.6875 0.26589203 1.4375q0.07826233 0.734375 0.07840729 1.5q4.119873E-4 2.203125 -0.99938583 3.296875q-1.0154228 1.09375 -3.0935478 1.09375l-6.140625 0l6.1416626E-4 3.296875l-1.703125 0l-6.1416626E-4 -3.296875l-3.234375 0l-0.53163147 -2.046875l3.765625 0l-9.803772E-4 -5.28125l1.703125 0l9.803772E-4 5.28125l5.984375 0q1.265625 0 1.8905029 -0.671875q0.6248741 -0.671875 0.62463 -1.984375q-1.0681152E-4 -0.5625 -0.07835388 -1.21875q-0.09387207 -0.671875 -0.2815094 -1.40625l1.7499962 0zm0.16977692 -11.2734375l-1.5781136 0.046875q0.9376793 0.96875 1.3753624 1.953125q0.4220581 0.984375 0.4222641 2.078125q1.9073486E-4 1.015625 -0.26530457 1.734375q-0.2654953 0.703125 -0.70290375 1.171875q-0.45304108 0.453125 -1.0623779 0.671875q-0.60933304 0.21875 -1.328083 0.21875q-1.765625 0 -2.7658691 -1.3125q-1.015873 -1.328125 -1.0163536 -3.90625l-4.5013428E-4 -2.4375l-1.03125 0q-1.03125 0 -1.6561279 0.671875q-0.6404991 0.671875 -0.64024353 2.046875q1.8310547E-4 0.984375 0.2347374 1.953125q0.2189331 0.96875 0.62537384 2.0l-1.84375 0q-0.14069748 -0.390625 -0.26578522 -0.859375q-0.14071274 -0.46875 -0.23456192 -1.0q-0.10947418 -0.53125 -0.17207718 -1.09375q-0.07823181 -0.578125 -0.07834244 -1.171875q-1.9836426E-4 -1.0625 0.23401642 -1.921875q0.23421478 -0.859375 0.718483 -1.4375q0.48426437 -0.59375 1.2185822 -0.90625q0.71868896 -0.328125 1.703064 -0.328125l8.109375 0l3.3569336E-4 1.828125zm-5.359329 0.21875l4.8065186E-4 2.59375q1.411438E-4 0.765625 0.15649414 1.3125q0.156353 0.546875 0.43766785 0.90625q0.28131485 0.34375 0.67197037 0.515625q0.39065933 0.171875 0.87503433 0.171875q0.34375 0 0.6562309 -0.09375q0.31248093 -0.109375 0.56243896 -0.34375q0.23432922 -0.234375 0.37488556 -0.609375q0.14055634 -0.375 0.14045334 -0.921875q-1.296997E-4 -0.703125 -0.42217636 -1.609375q-0.43766785 -0.90625 -1.3597298 -1.921875l-2.09375 0zm-6.4074287 -6.3359375l-3.4713745E-4 -1.859375l2.1718636 -0.0625q-1.2658195 -1.046875 -1.8285065 -2.046875q-0.56269073 -1.015625 -0.56288147 -2.046875q-3.3950806E-4 -1.828125 1.186985 -2.765625q1.1873245 -0.953125 3.515461 -0.890625l3.8146973E-4 2.0625q-1.5468788 -0.03125 -2.2342873 0.453125q-0.70303726 0.484375 -0.7028618 1.421875q7.6293945E-5 0.421875 0.1564064 0.84375q0.1407013 0.40625 0.4689064 0.84375q0.31258392 0.4375 0.8126755 0.9375q0.50009155 0.484375 1.2189445 1.046875l7.5625 0l3.8146973E-4 2.0625l-11.765621 0zm11.589619 -22.195297q0.1876297 0.6875 0.26589203 1.4374847q0.07826233 0.734375 0.07840729 1.5q4.043579E-4 2.203125 -0.99938965 3.296875q-1.015419 1.09375 -3.093544 1.09375l-6.140629 0l6.1416626E-4 3.296875l-1.703125 0l-6.1416626E-4 -3.296875l-3.234375 0l-0.53162766 -2.046875l3.765625 0l-9.841919E-4 -5.2812347l1.703125 0l9.841919E-4 5.2812347l5.984375 0q1.265625 0 1.8904991 -0.671875q0.6248741 -0.671875 0.62463 -1.984375q-1.02996826E-4 -0.5625 -0.07835007 -1.21875q-0.093875885 -0.67185974 -0.2815132 -1.4062347l1.75 0zm5.091751 -10.7578125q-4.998993 5.40625 -11.061497 5.40625q-1.421875 0 -2.8281784 -0.28125q-1.4219284 -0.296875 -2.8282967 -0.9375q-1.4219971 -0.640625 -2.8440666 -1.6875q-1.4220695 -1.046875 -2.812973 -2.546875l1.2029037 -1.1875q4.500847 4.546875 9.953972 4.546875q2.71875 0 5.2341614 -1.140625q2.4997902 -1.15625 4.7337456 -3.40625l1.2502289 1.234375zm-22.376595 -8.5546875q4.9989967 -5.40625 11.139622 -5.40625q1.265625 0 2.6250496 0.265625q1.3594208 0.25 2.7814102 0.875q1.4219894 0.625 2.8909378 1.671875q1.4689407 1.046875 2.9379883 2.640625l-1.2029037 1.1875q-2.2660446 -2.28125 -4.7193832 -3.40625q-2.4689598 -1.125 -5.172085 -1.125q-5.578125 0 -10.030407 4.53125l-1.2502289 -1.234375z" fill-rule="nonzero"/></g></svg>