<svg version="1.1" viewBox="0.0 0.0 960.0 540.0" fill="none" stroke="none" stroke-linecap="square" stroke-miterlimit="10" xmlns:xlink="http://www.w3.org/1999/xlink" xmlns="http://www.w3.org/2000/svg"><clipPath id="g37810fb2ad_0_15.0"><path d="m0 0l960.0 0l0 540.0l-960.0 0l0 -540.0z" clip-rule="nonzero"/></clipPath><g clip-path="url(#g37810fb2ad_0_15.0)"><path fill="#000000" fill-opacity="0.0" d="m0 0l960.0 0l0 540.0l-960.0 0z" fill-rule="evenodd"/><path fill="#000000" fill-opacity="0.0" d="m32.72441 46.721786l894.55115 0l0 60.125984l-894.55115 0z" fill-rule="evenodd"/><path fill="#08de65" d="m46.38066 101.80178l0 -31.625l3.125 0l6.625 18.5625q0.625 1.734375 1.234375 3.484375q0.625 1.75 1.25 3.53125l0.203125 0q0.625 -1.78125 1.1875 -3.53125q0.578125 -1.75 1.203125 -3.484375l6.578125 -18.5625l3.171875 0l0 31.625l-2.15625 0l0 -20.78125q0 -1.96875 0.09375 -4.25q0.09375 -2.28125 0.1875 -4.296875l-0.1875 0l-2.453125 7.0625l-6.8125 18.8125l-1.921875 0l-6.859375 -18.8125l-2.5 -7.0625l-0.1875 0q0.09375 2.015625 0.1875 4.296875q0.09375 2.28125 0.09375 4.25l0 20.78125l-2.0625 0zm42.04431 0.578125q-2.0625 0 -3.9375 -0.8125q-1.859375 -0.828125 -3.28125 -2.359375q-1.421875 -1.53125 -2.265625 -3.765625q-0.828125 -2.234375 -0.828125 -5.109375q0 -2.890625 0.828125 -5.15625q0.84375 -2.28125 2.265625 -3.8125q1.421875 -1.546875 3.28125 -2.359375q1.875 -0.8125 3.9375 -0.8125q2.0625 0 3.953125 0.8125q1.90625 0.8125 3.3125 2.359375q1.421875 1.53125 2.265625 3.8125q0.84375 2.265625 0.84375 5.15625q0 2.875 -0.84375 5.109375q-0.84375 2.234375 -2.265625 3.765625q-1.40625 1.53125 -3.3125 2.359375q-1.890625 0.8125 -3.953125 0.8125zm0 -1.875q1.734375 0 3.234375 -0.734375q1.515625 -0.75 2.59375 -2.09375q1.09375 -1.34375 1.703125 -3.21875q0.625 -1.875 0.625 -4.125q0 -2.3125 -0.625 -4.171875q-0.609375 -1.875 -1.703125 -3.234375q-1.078125 -1.375 -2.59375 -2.125q-1.5 -0.75 -3.234375 -0.75q-1.71875 0 -3.21875 0.75q-1.484375 0.75 -2.5625 2.125q-1.078125 1.359375 -1.703125 3.234375q-0.625 1.859375 -0.625 4.171875q0 2.25 0.625 4.125q0.625 1.875 1.703125 3.21875q1.078125 1.34375 2.5625 2.09375q1.5 0.734375 3.21875 0.734375zm24.914429 1.875q-4.359375 0 -6.953125 -3.09375q-2.59375 -3.09375 -2.59375 -8.953125q0 -2.78125 0.8125 -5.03125q0.8125 -2.265625 2.21875 -3.84375q1.421875 -1.59375 3.265625 -2.421875q1.859375 -0.84375 3.921875 -0.84375q2.109375 0 3.671875 0.75q1.5625 0.734375 3.296875 2.078125l-0.109375 -4.234375l0 -9.5l2.125 0l0 34.515625l-1.828125 0l-0.1875 -2.96875l-0.15625 0q-1.390625 1.390625 -3.28125 2.46875q-1.890625 1.078125 -4.203125 1.078125zm0.296875 -1.875q1.90625 0 3.65625 -0.984375q1.765625 -0.984375 3.578125 -2.8125l0 -13.671875q-1.8125 -1.640625 -3.421875 -2.3125q-1.609375 -0.671875 -3.296875 -0.671875q-1.71875 0 -3.21875 0.796875q-1.484375 0.796875 -2.5625 2.171875q-1.078125 1.359375 -1.703125 3.265625q-0.625 1.890625 -0.625 4.046875q0 2.296875 0.5 4.171875q0.515625 1.875 1.46875 3.203125q0.96875 1.3125 2.375 2.0625q1.421875 0.734375 3.25 0.734375zm26.92456 1.875q-2.21875 0 -4.15625 -0.8125q-1.9375 -0.828125 -3.390625 -2.375q-1.4375 -1.5625 -2.28125 -3.796875q-0.828125 -2.234375 -0.828125 -5.0625q0 -2.828125 0.828125 -5.078125q0.84375 -2.265625 2.265625 -3.828125q1.421875 -1.5625 3.21875 -2.390625q1.796875 -0.84375 3.71875 -0.84375q4.125 0 6.46875 2.78125q2.359375 2.78125 2.359375 7.875q0 0.421875 0 0.859375q0 0.4375 -0.09375 0.859375l-16.609375 0q0.046875 2.15625 0.671875 4.015625q0.625 1.84375 1.75 3.171875q1.125 1.3125 2.703125 2.0625q1.59375 0.734375 3.5625 0.734375q1.875 0 3.375 -0.546875q1.515625 -0.5625 2.8125 -1.515625l0.875 1.625q-1.390625 0.828125 -3.046875 1.546875q-1.65625 0.71875 -4.203125 0.71875zm-8.5 -13.53125l14.6875 0q0 -4.46875 -1.828125 -6.65625q-1.8125 -2.1875 -4.9375 -2.1875q-1.484375 0 -2.828125 0.609375q-1.34375 0.59375 -2.4375 1.75q-1.078125 1.15625 -1.78125 2.78125q-0.6875 1.625 -0.875 3.703125zm25.777802 13.53125q-2.828125 0 -2.828125 -3.65625l0 -31.4375l2.109375 0l0 31.734375q0 0.765625 0.28125 1.125q0.296875 0.359375 0.71875 0.359375q0.15625 0 0.3125 0q0.171875 0 0.5625 -0.09375l0.375 1.734375q-0.328125 0.09375 -0.671875 0.15625q-0.328125 0.078125 -0.859375 0.078125zm11.954147 -9.171875q-0.296875 -1.96875 0.109375 -3.578125q0.421875 -1.609375 1.1875 -2.96875q0.765625 -1.375 1.71875 -2.5625q0.96875 -1.203125 1.828125 -2.375q0.859375 -1.1875 1.4375 -2.4375q0.578125 -1.25 0.578125 -2.734375q0 -1.109375 -0.3125 -2.140625q-0.3125 -1.03125 -0.984375 -1.796875q-0.671875 -0.765625 -1.703125 -1.21875q-1.03125 -0.453125 -2.421875 -0.453125q-1.78125 0 -3.390625 0.796875q-1.609375 0.78125 -2.796875 2.265625l-1.296875 -1.1875q1.390625 -1.59375 3.28125 -2.671875q1.890625 -1.078125 4.390625 -1.078125q1.734375 0 3.125 0.5625q1.390625 0.546875 2.34375 1.53125q0.96875 0.984375 1.46875 2.328125q0.5 1.34375 0.5 2.921875q0 1.625 -0.59375 3.0q-0.59375 1.359375 -1.46875 2.609375q-0.859375 1.25 -1.84375 2.484375q-0.984375 1.21875 -1.78125 2.546875q-0.78125 1.3125 -1.25 2.828125q-0.453125 1.5 -0.203125 3.328125l-1.921875 0zm1.09375 9.171875q-0.8125 0 -1.421875 -0.578125q-0.59375 -0.578125 -0.59375 -1.578125q0 -1.0625 0.59375 -1.640625q0.609375 -0.578125 1.421875 -0.578125q0.828125 0 1.4375 0.578125q0.625 0.578125 0.625 1.640625q0 1.0 -0.625 1.578125q-0.609375 0.578125 -1.4375 0.578125zm30.630432 -0.578125l-10.46875 -31.625l2.359375 0l5.859375 18.46875q0.90625 2.890625 1.640625 5.3125q0.75 2.421875 1.71875 5.296875l0.1875 0q0.484375 -1.4375 0.890625 -2.734375q0.40625 -1.296875 0.78125 -2.5625q0.390625 -1.28125 0.796875 -2.578125q0.40625 -1.296875 0.84375 -2.734375l5.859375 -18.46875l2.25 0l-10.359375 31.625l-2.359375 0zm17.33368 0l0 -23.046875l2.109375 0l0 23.046875l-2.109375 0zm1.09375 -28.609375q-0.8125 0 -1.375 -0.515625q-0.546875 -0.53125 -0.546875 -1.359375q0 -0.90625 0.546875 -1.40625q0.5625 -0.515625 1.375 -0.515625q0.828125 0 1.375 0.515625q0.546875 0.5 0.546875 1.40625q0 0.828125 -0.546875 1.359375q-0.546875 0.515625 -1.375 0.515625zm18.632645 29.1875q-2.21875 0 -4.15625 -0.8125q-1.9375 -0.828125 -3.390625 -2.375q-1.4375 -1.5625 -2.28125 -3.796875q-0.828125 -2.234375 -0.828125 -5.0625q0 -2.828125 0.828125 -5.078125q0.84375 -2.265625 2.265625 -3.828125q1.421875 -1.5625 3.21875 -2.390625q1.796875 -0.84375 3.71875 -0.84375q4.125 0 6.46875 2.78125q2.359375 2.78125 2.359375 7.875q0 0.421875 0 0.859375q0 0.4375 -0.09375 0.859375l-16.609375 0q0.046875 2.15625 0.671875 4.015625q0.625 1.84375 1.75 3.171875q1.125 1.3125 2.703125 2.0625q1.59375 0.734375 3.5625 0.734375q1.875 0 3.375 -0.546875q1.515625 -0.5625 2.8125 -1.515625l0.875 1.625q-1.390625 0.828125 -3.046875 1.546875q-1.65625 0.71875 -4.203125 0.71875zm-8.5 -13.53125l14.6875 0q0 -4.46875 -1.828125 -6.65625q-1.8125 -2.1875 -4.9375 -2.1875q-1.484375 0 -2.828125 0.609375q-1.34375 0.59375 -2.4375 1.75q-1.078125 1.15625 -1.78125 2.78125q-0.6875 1.625 -0.875 3.703125zm26.496536 12.953125l-6.8124847 -23.046875l2.296875 0l4.1249847 14.9375q0.4375 1.578125 0.8125 3.09375q0.390625 1.515625 0.78125 3.046875l0.1875 0q0.390625 -1.53125 0.8125 -3.046875q0.4375 -1.515625 0.875 -3.09375l4.171875 -14.9375l2.546875 0l4.171875 14.9375q0.4375 1.578125 0.859375 3.09375q0.4375 1.515625 0.859375 3.046875l0.203125 0q0.375 -1.53125 0.8125 -3.046875q0.4375 -1.515625 0.8125 -3.09375l4.078125 -14.9375l2.171875 0l-6.625 23.046875l-2.796875 0l-4.03125 -14.296875q-0.515625 -1.6875 -0.875 -3.296875q-0.359375 -1.609375 -0.890625 -3.28125l-0.203125 0q-0.375 1.671875 -0.828125 3.328125q-0.453125 1.65625 -0.984375 3.34375l-3.984375 14.203125l-2.546875 0zm32.73944 -8.59375q-0.296875 -1.96875 0.109375 -3.578125q0.421875 -1.609375 1.1875 -2.96875q0.765625 -1.375 1.71875 -2.5625q0.96875 -1.203125 1.828125 -2.375q0.859375 -1.1875 1.4375 -2.4375q0.578125 -1.25 0.578125 -2.734375q0 -1.109375 -0.3125 -2.140625q-0.3125 -1.03125 -0.984375 -1.796875q-0.671875 -0.765625 -1.703125 -1.21875q-1.03125 -0.453125 -2.421875 -0.453125q-1.78125 0 -3.390625 0.796875q-1.609375 0.78125 -2.796875 2.265625l-1.296875 -1.1875q1.390625 -1.59375 3.28125 -2.671875q1.890625 -1.078125 4.390625 -1.078125q1.734375 0 3.125 0.5625q1.390625 0.546875 2.34375 1.53125q0.96875 0.984375 1.46875 2.328125q0.5 1.34375 0.5 2.921875q0 1.625 -0.59375 3.0q-0.59375 1.359375 -1.46875 2.609375q-0.859375 1.25 -1.84375 2.484375q-0.984375 1.21875 -1.78125 2.546875q-0.78125 1.3125 -1.25 2.828125q-0.453125 1.5 -0.203125 3.328125l-1.921875 0zm1.09375 9.171875q-0.8125 0 -1.421875 -0.578125q-0.59375 -0.578125 -0.59375 -1.578125q0 -1.0625 0.59375 -1.640625q0.609375 -0.578125 1.421875 -0.578125q0.828125 0 1.4375 0.578125q0.625 0.578125 0.625 1.640625q0 1.0 -0.625 1.578125q-0.609375 0.578125 -1.4375 0.578125zm30.630432 -0.578125l-10.46875 -31.625l2.359375 0l5.859375 18.46875q0.90625 2.890625 1.640625 5.3125q0.75 2.421875 1.71875 5.296875l0.1875 0q0.484375 -1.4375 0.890625 -2.734375q0.40625 -1.296875 0.78125 -2.5625q0.390625 -1.28125 0.796875 -2.578125q0.40625 -1.296875 0.84375 -2.734375l5.859375 -18.46875l2.25 0l-10.359375 31.625l-2.359375 0zm17.33368 0l0 -23.046875l2.109375 0l0 23.046875l-2.109375 0zm1.09375 -28.609375q-0.8125 0 -1.375 -0.515625q-0.546875 -0.53125 -0.546875 -1.359375q0 -0.90625 0.546875 -1.40625q0.5625 -0.515625 1.375 -0.515625q0.828125 0 1.375 0.515625q0.546875 0.5 0.546875 1.40625q0 0.828125 -0.546875 1.359375q-0.546875 0.515625 -1.375 0.515625zm18.63263 29.1875q-2.21875 0 -4.15625 -0.8125q-1.9375 -0.828125 -3.390625 -2.375q-1.4375 -1.5625 -2.28125 -3.796875q-0.828125 -2.234375 -0.828125 -5.0625q0 -2.828125 0.828125 -5.078125q0.84375 -2.265625 2.265625 -3.828125q1.421875 -1.5625 3.21875 -2.390625q1.796875 -0.84375 3.71875 -0.84375q4.125 0 6.46875 2.78125q2.359375 2.78125 2.359375 7.875q0 0.421875 0 0.859375q0 0.4375 -0.09375 0.859375l-16.609375 0q0.046875 2.15625 0.671875 4.015625q0.625 1.84375 1.75 3.171875q1.125 1.3125 2.703125 2.0625q1.59375 0.734375 3.5625 0.734375q1.875 0 3.375 -0.546875q1.515625 -0.5625 2.8125 -1.515625l0.875 1.625q-1.390625 0.828125 -3.046875 1.546875q-1.65625 0.71875 -4.203125 0.71875zm-8.5 -13.53125l14.6875 0q0 -4.46875 -1.828125 -6.65625q-1.8125 -2.1875 -4.9375 -2.1875q-1.484375 0 -2.828125 0.609375q-1.34375 0.59375 -2.4375 1.75q-1.078125 1.15625 -1.78125 2.78125q-0.6875 1.625 -0.875 3.703125zm26.496552 12.953125l-6.8125 -23.046875l2.296875 0l4.125 14.9375q0.4375 1.578125 0.8125 3.09375q0.390625 1.515625 0.78125 3.046875l0.1875 0q0.390625 -1.53125 0.8125 -3.046875q0.4375 -1.515625 0.875 -3.09375l4.171875 -14.9375l2.546875 0l4.171875 14.9375q0.4375 1.578125 0.859375 3.09375q0.4375 1.515625 0.859375 3.046875l0.203125 0q0.375 -1.53125 0.8125 -3.046875q0.4375 -1.515625 0.8125 -3.09375l4.078125 -14.9375l2.171875 0l-6.625 23.046875l-2.796875 0l-4.03125 -14.296875q-0.515625 -1.6875 -0.875 -3.296875q-0.359375 -1.609375 -0.890625 -3.28125l-0.203125 0q-0.375 1.671875 -0.828125 3.328125q-0.453125 1.65625 -0.984375 3.34375l-3.984375 14.203125l-2.546875 0zm29.567566 0l0 -31.625l3.125 0l6.625 18.5625q0.625 1.734375 1.234375 3.484375q0.625 1.75 1.25 3.53125l0.203125 0q0.625 -1.78125 1.1875 -3.53125q0.578125 -1.75 1.203125 -3.484375l6.578125 -18.5625l3.171875 0l0 31.625l-2.15625 0l0 -20.78125q0 -1.96875 0.09375 -4.25q0.09375 -2.28125 0.1875 -4.296875l-0.1875 0l-2.453125 7.0625l-6.8125 18.8125l-1.921875 0l-6.859375 -18.8125l-2.5 -7.0625l-0.1875 0q0.09375 2.015625 0.1875 4.296875q0.09375 2.28125 0.09375 4.25l0 20.78125l-2.0625 0zm42.04431 0.578125q-2.0625 0 -3.9375 -0.8125q-1.859375 -0.828125 -3.28125 -2.359375q-1.421875 -1.53125 -2.265625 -3.765625q-0.828125 -2.234375 -0.828125 -5.109375q0 -2.890625 0.828125 -5.15625q0.84375 -2.28125 2.265625 -3.8125q1.421875 -1.546875 3.28125 -2.359375q1.875 -0.8125 3.9375 -0.8125q2.0625 0 3.953125 0.8125q1.90625 0.8125 3.3125 2.359375q1.421875 1.53125 2.265625 3.8125q0.84375 2.265625 0.84375 5.15625q0 2.875 -0.84375 5.109375q-0.84375 2.234375 -2.265625 3.765625q-1.40625 1.53125 -3.3125 2.359375q-1.890625 0.8125 -3.953125 0.8125zm0 -1.875q1.734375 0 3.234375 -0.734375q1.515625 -0.75 2.59375 -2.09375q1.09375 -1.34375 1.703125 -3.21875q0.625 -1.875 0.625 -4.125q0 -2.3125 -0.625 -4.171875q-0.609375 -1.875 -1.703125 -3.234375q-1.078125 -1.375 -2.59375 -2.125q-1.5 -0.75 -3.234375 -0.75q-1.71875 0 -3.21875 0.75q-1.484375 0.75 -2.5625 2.125q-1.078125 1.359375 -1.703125 3.234375q-0.625 1.859375 -0.625 4.171875q0 2.25 0.625 4.125q0.625 1.875 1.703125 3.21875q1.078125 1.34375 2.5625 2.09375q1.5 0.734375 3.21875 0.734375zm24.914429 1.875q-4.359375 0 -6.953125 -3.09375q-2.59375 -3.09375 -2.59375 -8.953125q0 -2.78125 0.8125 -5.03125q0.8125 -2.265625 2.21875 -3.84375q1.421875 -1.59375 3.265625 -2.421875q1.859375 -0.84375 3.921875 -0.84375q2.109375 0 3.671875 0.75q1.5625 0.734375 3.296875 2.078125l-0.109375 -4.234375l0 -9.5l2.125 0l0 34.515625l-1.828125 0l-0.1875 -2.96875l-0.15625 0q-1.390625 1.390625 -3.28125 2.46875q-1.890625 1.078125 -4.203125 1.078125zm0.296875 -1.875q1.90625 0 3.65625 -0.984375q1.765625 -0.984375 3.578125 -2.8125l0 -13.671875q-1.8125 -1.640625 -3.421875 -2.3125q-1.609375 -0.671875 -3.296875 -0.671875q-1.71875 0 -3.21875 0.796875q-1.484375 0.796875 -2.5625 2.171875q-1.078125 1.359375 -1.703125 3.265625q-0.625 1.890625 -0.625 4.046875q0 2.296875 0.5 4.171875q0.515625 1.875 1.46875 3.203125q0.96875 1.3125 2.375 2.0625q1.421875 0.734375 3.25 0.734375zm26.92456 1.875q-2.21875 0 -4.15625 -0.8125q-1.9375 -0.828125 -3.390625 -2.375q-1.4375 -1.5625 -2.28125 -3.796875q-0.828125 -2.234375 -0.828125 -5.0625q0 -2.828125 0.828125 -5.078125q0.84375 -2.265625 2.265625 -3.828125q1.421875 -1.5625 3.21875 -2.390625q1.796875 -0.84375 3.71875 -0.84375q4.125 0 6.46875 2.78125q2.359375 2.78125 2.359375 7.875q0 0.421875 0 0.859375q0 0.4375 -0.09375 0.859375l-16.609375 0q0.046875 2.15625 0.671875 4.015625q0.625 1.84375 1.75 3.171875q1.125 1.3125 2.703125 2.0625q1.59375 0.734375 3.5625 0.734375q1.875 0 3.375 -0.546875q1.515625 -0.5625 2.8125 -1.515625l0.875 1.625q-1.390625 0.828125 -3.046875 1.546875q-1.65625 0.71875 -4.203125 0.71875zm-8.5 -13.53125l14.6875 0q0 -4.46875 -1.828125 -6.65625q-1.8125 -2.1875 -4.9375 -2.1875q-1.484375 0 -2.828125 0.609375q-1.34375 0.59375 -2.4375 1.75q-1.078125 1.15625 -1.78125 2.78125q-0.6875 1.625 -0.875 3.703125zm25.777832 13.53125q-2.828125 0 -2.828125 -3.65625l0 -31.4375l2.109375 0l0 31.734375q0 0.765625 0.28125 1.125q0.296875 0.359375 0.71875 0.359375q0.15625 0 0.3125 0q0.171875 0 0.5625 -0.09375l0.375 1.734375q-0.328125 0.09375 -0.671875 0.15625q-0.328125 0.078125 -0.859375 0.078125zm11.954163 -9.171875q-0.296875 -1.96875 0.109375 -3.578125q0.421875 -1.609375 1.1875 -2.96875q0.765625 -1.375 1.71875 -2.5625q0.96875 -1.203125 1.828125 -2.375q0.859375 -1.1875 1.4375 -2.4375q0.578125 -1.25 0.578125 -2.734375q0 -1.109375 -0.3125 -2.140625q-0.3125 -1.03125 -0.984375 -1.796875q-0.671875 -0.765625 -1.703125 -1.21875q-1.03125 -0.453125 -2.421875 -0.453125q-1.78125 0 -3.390625 0.796875q-1.609375 0.78125 -2.796875 2.265625l-1.296875 -1.1875q1.390625 -1.59375 3.28125 -2.671875q1.890625 -1.078125 4.390625 -1.078125q1.734375 0 3.125 0.5625q1.390625 0.546875 2.34375 1.53125q0.96875 0.984375 1.46875 2.328125q0.5 1.34375 0.5 2.921875q0 1.625 -0.59375 3.0q-0.59375 1.359375 -1.46875 2.609375q-0.859375 1.25 -1.84375 2.484375q-0.984375 1.21875 -1.78125 2.546875q-0.78125 1.3125 -1.25 2.828125q-0.453125 1.5 -0.203125 3.328125l-1.921875 0zm1.09375 9.171875q-0.8125 0 -1.421875 -0.578125q-0.59375 -0.578125 -0.59375 -1.578125q0 -1.0625 0.59375 -1.640625q0.609375 -0.578125 1.421875 -0.578125q0.828125 0 1.4375 0.578125q0.625 0.578125 0.625 1.640625q0 1.0 -0.625 1.578125q-0.609375 0.578125 -1.4375 0.578125z" fill-rule="nonzero"/><path fill="#000000" fill-opacity="0.0" d="m398.70865 172.33191l0 0c0 -14.965622 12.13205 -27.097656 27.097656 -27.097656l108.38736 0l0 0c7.1867676 0 14.079163 2.8549194 19.16095 7.936722c5.081787 5.081787 7.9367065 11.974182 7.9367065 19.160934l0 261.20627c0 14.965607 -12.132019 27.097656 -27.097656 27.097656l-108.38736 0c-14.965607 0 -27.097656 -12.13205 -27.097656 -27.097656z" fill-rule="evenodd"/><path stroke="#08de65" stroke-width="2.0" stroke-linejoin="round" stroke-linecap="butt" d="m398.70865 172.33191l0 0c0 -14.965622 12.13205 -27.097656 27.097656 -27.097656l108.38736 0l0 0c7.1867676 0 14.079163 2.8549194 19.16095 7.936722c5.081787 5.081787 7.9367065 11.974182 7.9367065 19.160934l0 261.20627c0 14.965607 -12.132019 27.097656 -27.097656 27.097656l-108.38736 0c-14.965607 0 -27.097656 -12.13205 -27.097656 -27.097656z" fill-rule="evenodd"/><path fill="#08de65" d="m428.07227 311.47504l-6.65625 -17.1875l2.453125 0l4.46875 12.484375q0.546875 1.5 0.90625 2.8125q0.390625 -1.40625 0.921875 -2.8125l4.640625 -12.484375l2.328125 0l-6.734375 17.1875l-2.328125 0zm10.8359375 -14.75l0 -2.4375l2.109375 0l0 2.4375l-2.109375 0zm0 14.75l0 -12.453125l2.109375 0l0 12.453125l-2.109375 0zm13.847656 -4.015625l2.171875 0.28125q-0.515625 1.90625 -1.90625 2.96875q-1.390625 1.046875 -3.5625 1.046875q-2.734375 0 -4.34375 -1.671875q-1.59375 -1.6875 -1.59375 -4.734375q0 -3.140625 1.609375 -4.875q1.625 -1.734375 4.203125 -1.734375q2.5 0 4.078125 1.703125q1.59375 1.703125 1.59375 4.78125q0 0.1875 -0.015625 0.5625l-9.28125 0q0.109375 2.046875 1.15625 3.140625q1.046875 1.09375 2.609375 1.09375q1.15625 0 1.96875 -0.609375q0.828125 -0.609375 1.3125 -1.953125zm-6.9375 -3.40625l6.953125 0q-0.140625 -1.5625 -0.796875 -2.359375q-1.0 -1.21875 -2.609375 -1.21875q-1.453125 0 -2.453125 0.984375q-0.984375 0.96875 -1.09375 2.59375zm14.050781 7.421875l-3.796875 -12.453125l2.171875 0l1.984375 7.1875l0.734375 2.671875q0.046875 -0.203125 0.640625 -2.5625l1.984375 -7.296875l2.171875 0l1.859375 7.21875l0.625 2.390625l0.71875 -2.40625l2.125 -7.203125l2.046875 0l-3.890625 12.453125l-2.1875 0l-1.984375 -7.453125l-0.46875 -2.125l-2.53125 9.578125l-2.203125 0zm15.238281 0l0 -17.1875l3.421875 0l4.0625 12.171875q0.5625 1.703125 0.828125 2.546875q0.296875 -0.9375 0.90625 -2.765625l4.125 -11.953125l3.046875 0l0 17.1875l-2.1875 0l0 -14.375l-4.984375 14.375l-2.0625 0l-4.96875 -14.625l0 14.625l-2.1875 0zm19.007812 -6.21875q0 -3.46875 1.921875 -5.125q1.609375 -1.390625 3.921875 -1.390625q2.5625 0 4.1875 1.6875q1.625 1.6875 1.625 4.640625q0 2.40625 -0.71875 3.78125q-0.71875 1.375 -2.09375 2.140625q-1.375 0.765625 -3.0 0.765625q-2.625 0 -4.234375 -1.671875q-1.609375 -1.6875 -1.609375 -4.828125zm2.171875 0q0 2.390625 1.03125 3.578125q1.046875 1.1875 2.640625 1.1875q1.5625 0 2.609375 -1.1875q1.046875 -1.203125 1.046875 -3.65625q0 -2.3125 -1.0625 -3.5q-1.046875 -1.1875 -2.59375 -1.1875q-1.59375 0 -2.640625 1.1875q-1.03125 1.1875 -1.03125 3.578125zm20.035156 6.21875l0 -1.578125q-1.1875 1.859375 -3.484375 1.859375q-1.484375 0 -2.734375 -0.8125q-1.25 -0.828125 -1.9375 -2.296875q-0.671875 -1.46875 -0.671875 -3.390625q0 -1.859375 0.609375 -3.375q0.625 -1.515625 1.859375 -2.328125q1.25 -0.8125 2.78125 -0.8125q1.125 0 2.0 0.484375q0.890625 0.46875 1.4375 1.234375l0 -6.171875l2.09375 0l0 17.1875l-1.953125 0zm-6.671875 -6.21875q0 2.390625 1.0 3.578125q1.015625 1.1875 2.390625 1.1875q1.390625 0 2.34375 -1.125q0.96875 -1.140625 0.96875 -3.453125q0 -2.5625 -0.984375 -3.75q-0.984375 -1.203125 -2.421875 -1.203125q-1.40625 0 -2.359375 1.15625q-0.9375 1.140625 -0.9375 3.609375zm20.472656 2.203125l2.171875 0.28125q-0.515625 1.90625 -1.90625 2.96875q-1.390625 1.046875 -3.5625 1.046875q-2.734375 0 -4.34375 -1.671875q-1.59375 -1.6875 -1.59375 -4.734375q0 -3.140625 1.609375 -4.875q1.625 -1.734375 4.203125 -1.734375q2.5 0 4.078125 1.703125q1.59375 1.703125 1.59375 4.78125q0 0.1875 -0.015625 0.5625l-9.28125 0q0.109375 2.046875 1.15625 3.140625q1.046875 1.09375 2.609375 1.09375q1.15625 0 1.96875 -0.609375q0.828125 -0.609375 1.3125 -1.953125zm-6.9375 -3.40625l6.953125 0q-0.140625 -1.5625 -0.796875 -2.359375q-1.0 -1.21875 -2.609375 -1.21875q-1.453125 0 -2.453125 0.984375q-0.984375 0.96875 -1.09375 2.59375zm11.707031 7.421875l0 -17.1875l2.109375 0l0 17.1875l-2.109375 0z" fill-rule="nonzero"/><path fill="#000000" fill-opacity="0.0" d="m32.72441 172.33191l0 0c0 -14.965622 12.1320305 -27.097656 27.097652 -27.097656l108.38736 0l0 0c7.1867523 0 14.079147 2.8549194 19.160934 7.936722c5.0818024 5.081787 7.936722 11.974182 7.936722 19.160934l0 261.20627c0 14.965607 -12.132034 27.097656 -27.097656 27.097656l-108.38736 0c-14.965622 0 -27.097652 -12.13205 -27.097652 -27.097656z" fill-rule="evenodd"/><path stroke="#08de65" stroke-width="2.0" stroke-linejoin="round" stroke-linecap="butt" d="m32.72441 172.33191l0 0c0 -14.965622 12.1320305 -27.097656 27.097652 -27.097656l108.38736 0l0 0c7.1867523 0 14.079147 2.8549194 19.160934 7.936722c5.0818024 5.081787 7.936722 11.974182 7.936722 19.160934l0 261.20627c0 14.965607 -12.132034 27.097656 -27.097656 27.097656l-108.38736 0c-14.965622 0 -27.097652 -12.13205 -27.097652 -27.097656z" fill-rule="evenodd"/><path fill="#08de65" d="m94.77161 296.97504l-6.65625 -17.1875l2.453125 0l4.46875 12.484375q0.546875 1.5 0.90625 2.8125q0.390625 -1.40625 0.921875 -2.8125l4.640625 -12.484375l2.328125 0l-6.734375 17.1875l-2.328125 0zm10.8359375 -14.75l0 -2.4375l2.109375 0l0 2.4375l-2.109375 0zm0 14.75l0 -12.453125l2.109375 0l0 12.453125l-2.109375 0zm13.847656 -4.015625l2.171875 0.28125q-0.515625 1.90625 -1.90625 2.96875q-1.390625 1.046875 -3.5625 1.046875q-2.734375 0 -4.34375 -1.671875q-1.59375 -1.6875 -1.59375 -4.734375q0 -3.140625 1.609375 -4.875q1.625 -1.734375 4.203125 -1.734375q2.5 0 4.078125 1.703125q1.59375 1.703125 1.59375 4.78125q0 0.1875 -0.015625 0.5625l-9.28125 0q0.109375 2.046875 1.15625 3.140625q1.046875 1.09375 2.609375 1.09375q1.15625 0 1.96875 -0.609375q0.828125 -0.609375 1.3125 -1.953125zm-6.9375 -3.40625l6.953125 0q-0.140625 -1.5625 -0.796875 -2.359375q-1.0 -1.21875 -2.609375 -1.21875q-1.453125 0 -2.453125 0.984375q-0.984375 0.96875 -1.09375 2.59375zm14.050781 7.421875l-3.796875 -12.453125l2.171875 0l1.984375 7.1875l0.734375 2.671875q0.046875 -0.203125 0.640625 -2.5625l1.984375 -7.296875l2.171875 0l1.859375 7.21875l0.625 2.390625l0.71875 -2.40625l2.125 -7.203125l2.046875 0l-3.890625 12.453125l-2.1875 0l-1.984375 -7.453125l-0.46875 -2.125l-2.53125 9.578125l-2.203125 0z" fill-rule="nonzero"/><path fill="#adadad" d="m106.78137 308.78754l2.296875 0l-2.203125 10.5625q-0.28125 1.3125 -0.28125 1.953125q0 1.375 1.09375 2.21875q1.09375 0.84375 2.75 0.84375q1.3125 0 2.4375 -0.59375q1.125 -0.609375 1.78125 -1.78125q0.65625 -1.171875 1.1875 -3.734375l1.984375 -9.46875l2.296875 0l-2.09375 10.078125q-0.546875 2.578125 -1.421875 4.09375q-0.875 1.5 -2.4375 2.421875q-1.5625 0.90625 -3.625 0.90625q-1.9375 0 -3.375 -0.640625q-1.421875 -0.65625 -2.125 -1.796875q-0.703125 -1.140625 -0.703125 -2.578125q0 -0.90625 0.46875 -3.109375l1.96875 -9.375zm13.941406 17.1875l3.59375 -17.1875l2.28125 0l-3.578125 17.1875l-2.296875 0z" fill-rule="nonzero"/><path fill="#000000" fill-opacity="0.0" d="m764.69293 172.33191l0 0c0 -14.965622 12.132019 -27.097656 27.097656 -27.097656l108.38733 0l0 0c7.1867676 0 14.079163 2.8549194 19.16095 7.936722c5.081787 5.081787 7.9367065 11.974182 7.9367065 19.160934l0 261.20627c0 14.965607 -12.132019 27.097656 -27.097656 27.097656l-108.38733 0c-14.965637 0 -27.097656 -12.13205 -27.097656 -27.097656z" fill-rule="evenodd"/><path stroke="#08de65" stroke-width="2.0" stroke-linejoin="round" stroke-linecap="butt" d="m764.69293 172.33191l0 0c0 -14.965622 12.132019 -27.097656 27.097656 -27.097656l108.38733 0l0 0c7.1867676 0 14.079163 2.8549194 19.16095 7.936722c5.081787 5.081787 7.9367065 11.974182 7.9367065 19.160934l0 261.20627c0 14.965607 -12.132019 27.097656 -27.097656 27.097656l-108.38733 0c-14.965637 0 -27.097656 -12.13205 -27.097656 -27.097656z" fill-rule="evenodd"/><path fill="#08de65" d="m815.0819 267.97504l0 -17.1875l3.421875 0l4.0625 12.171875q0.5625 1.703125 0.828125 2.546875q0.296875 -0.9375 0.90625 -2.765625l4.125 -11.953125l3.046875 0l0 17.1875l-2.1875 0l0 -14.375l-4.984375 14.375l-2.0625 0l-4.96875 -14.625l0 14.625l-2.1875 0zm19.007812 -6.21875q0 -3.46875 1.921875 -5.125q1.609375 -1.390625 3.921875 -1.390625q2.5625 0 4.1875 1.6875q1.625 1.6875 1.625 4.640625q0 2.40625 -0.71875 3.78125q-0.71875 1.375 -2.09375 2.140625q-1.375 0.765625 -3.0 0.765625q-2.625 0 -4.234375 -1.671875q-1.609375 -1.6875 -1.609375 -4.828125zm2.171875 0q0 2.390625 1.03125 3.578125q1.046875 1.1875 2.640625 1.1875q1.5625 0 2.609375 -1.1875q1.046875 -1.203125 1.046875 -3.65625q0 -2.3125 -1.0625 -3.5q-1.046875 -1.1875 -2.59375 -1.1875q-1.59375 0 -2.640625 1.1875q-1.03125 1.1875 -1.03125 3.578125zm20.035156 6.21875l0 -1.578125q-1.1875 1.859375 -3.484375 1.859375q-1.484375 0 -2.734375 -0.8125q-1.25 -0.828125 -1.9375 -2.296875q-0.671875 -1.46875 -0.671875 -3.390625q0 -1.859375 0.609375 -3.375q0.625 -1.515625 1.859375 -2.328125q1.25 -0.8125 2.78125 -0.8125q1.125 0 2.0 0.484375q0.890625 0.46875 1.4375 1.234375l0 -6.171875l2.09375 0l0 17.1875l-1.953125 0zm-6.671875 -6.21875q0 2.390625 1.0 3.578125q1.015625 1.1875 2.390625 1.1875q1.390625 0 2.34375 -1.125q0.96875 -1.140625 0.96875 -3.453125q0 -2.5625 -0.984375 -3.75q-0.984375 -1.203125 -2.421875 -1.203125q-1.40625 0 -2.359375 1.15625q-0.9375 1.140625 -0.9375 3.609375zm20.472656 2.203125l2.171875 0.28125q-0.515625 1.90625 -1.90625 2.96875q-1.390625 1.046875 -3.5625 1.046875q-2.734375 0 -4.34375 -1.671875q-1.59375 -1.6875 -1.59375 -4.734375q0 -3.140625 1.609375 -4.875q1.625 -1.734375 4.203125 -1.734375q2.5 0 4.078125 1.703125q1.59375 1.703125 1.59375 4.78125q0 0.1875 -0.015625 0.5625l-9.28125 0q0.109375 2.046875 1.15625 3.140625q1.046875 1.09375 2.609375 1.09375q1.15625 0 1.96875 -0.609375q0.828125 -0.609375 1.3125 -1.953125zm-6.9375 -3.40625l6.953125 0q-0.140625 -1.5625 -0.796875 -2.359375q-1.0 -1.21875 -2.609375 -1.21875q-1.453125 0 -2.453125 0.984375q-0.984375 0.96875 -1.09375 2.59375zm11.707031 7.421875l0 -17.1875l2.109375 0l0 17.1875l-2.109375 0z" fill-rule="nonzero"/><path fill="#adadad" d="m815.27136 296.97504l3.578125 -17.1875l2.125 0l-3.59375 17.1875l-2.109375 0zm5.8632812 -4.71875q0 -3.65625 2.140625 -6.046875q1.78125 -1.96875 4.640625 -1.96875q2.25 0 3.625 1.40625q1.390625 1.40625 1.390625 3.796875q0 2.15625 -0.875 4.0q-0.859375 1.84375 -2.46875 2.828125q-1.59375 0.984375 -3.359375 0.984375q-1.453125 0 -2.65625 -0.625q-1.1875 -0.625 -1.8125 -1.75q-0.625 -1.140625 -0.625 -2.625zm2.125 -0.21875q0 1.765625 0.84375 2.671875q0.84375 0.90625 2.140625 0.90625q0.6875 0 1.34375 -0.265625q0.671875 -0.28125 1.25 -0.84375q0.578125 -0.5625 0.96875 -1.28125q0.40625 -0.734375 0.65625 -1.5625q0.359375 -1.15625 0.359375 -2.21875q0 -1.6875 -0.84375 -2.625q-0.84375 -0.9375 -2.140625 -0.9375q-1.0 0 -1.828125 0.484375q-0.8125 0.46875 -1.46875 1.390625q-0.65625 0.90625 -0.96875 2.125q-0.3125 1.203125 -0.3125 2.15625zm10.738281 6.0625l2.140625 0.203125q-0.03125 0.71875 0.171875 1.078125q0.203125 0.375 0.640625 0.578125q0.5625 0.25 1.484375 0.25q1.921875 0 2.765625 -1.0q0.546875 -0.65625 1.015625 -2.90625l0.21875 -1.0q-1.65625 1.671875 -3.515625 1.671875q-1.890625 0 -3.171875 -1.390625q-1.265625 -1.390625 -1.265625 -3.9375q0 -2.09375 1.0 -3.84375q1.0 -1.765625 2.375 -2.65625q1.390625 -0.90625 2.859375 -0.90625q2.453125 0 3.78125 2.328125l0.421875 -2.046875l1.9375 0l-2.5 12.015625q-0.421875 1.984375 -1.09375 3.09375q-0.65625 1.109375 -1.84375 1.71875q-1.1875 0.609375 -2.75 0.609375q-1.5 0 -2.59375 -0.390625q-1.078125 -0.390625 -1.609375 -1.140625q-0.53125 -0.734375 -0.53125 -1.6875q0 -0.296875 0.0625 -0.640625zm2.640625 -6.640625q0 1.28125 0.25 1.921875q0.34375 0.90625 1.0 1.390625q0.65625 0.46875 1.453125 0.46875q1.03125 0 2.0625 -0.734375q1.03125 -0.734375 1.671875 -2.265625q0.640625 -1.53125 0.640625 -2.9375q0 -1.53125 -0.859375 -2.4375q-0.84375 -0.90625 -2.09375 -0.90625q-0.765625 0 -1.5 0.421875q-0.71875 0.40625 -1.359375 1.265625q-0.625 0.84375 -0.953125 2.03125q-0.3125 1.171875 -0.3125 1.78125zm13.832031 -9.265625l0.5 -2.40625l2.109375 0l-0.5 2.40625l-2.109375 0zm-3.09375 14.78125l2.59375 -12.453125l2.125 0l-2.59375 12.453125l-2.125 0zm5.4414062 0l3.59375 -17.1875l2.109375 0l-2.234375 10.65625l6.1875 -5.921875l2.8125 0l-5.3125 4.640625l3.203125 7.8125l-2.3125 0l-2.484375 -6.390625l-2.578125 2.234375l-0.875 4.15625l-2.109375 0zm20.359375 -1.546875q-1.09375 0.953125 -2.125 1.390625q-1.015625 0.4375 -2.171875 0.4375q-1.71875 0 -2.78125 -1.015625q-1.046875 -1.015625 -1.046875 -2.59375q0 -1.046875 0.46875 -1.84375q0.46875 -0.8125 1.25 -1.296875q0.796875 -0.484375 1.9375 -0.6875q0.703125 -0.140625 2.703125 -0.21875q2.0 -0.09375 2.875 -0.4375q0.234375 -0.859375 0.234375 -1.4375q0 -0.734375 -0.53125 -1.15625q-0.734375 -0.59375 -2.15625 -0.59375q-1.34375 0 -2.1875 0.59375q-0.84375 0.59375 -1.234375 1.6875l-2.140625 -0.1875q0.65625 -1.859375 2.078125 -2.84375q1.421875 -0.984375 3.59375 -0.984375q2.296875 0 3.65625 1.109375q1.03125 0.8125 1.03125 2.125q0 1.0 -0.296875 2.3125l-0.6875 3.09375q-0.328125 1.484375 -0.328125 2.40625q0 0.578125 0.25 1.6875l-2.140625 0q-0.171875 -0.609375 -0.25 -1.546875zm0.78125 -4.765625q-0.4375 0.1875 -0.953125 0.28125q-0.5 0.09375 -1.703125 0.1875q-1.84375 0.171875 -2.609375 0.421875q-0.765625 0.25 -1.15625 0.8125q-0.375 0.546875 -0.375 1.203125q0 0.890625 0.609375 1.46875q0.609375 0.578125 1.75 0.578125q1.0625 0 2.03125 -0.546875q0.96875 -0.5625 1.53125 -1.5625q0.5625 -1.0 0.875 -2.84375z" fill-rule="nonzero"/><path fill="#adadad" d="m790.07996 325.97504l3.59375 -17.1875l2.109375 0l-1.265625 6.140625q1.0 -0.921875 1.8125 -1.296875q0.828125 -0.390625 1.71875 -0.390625q1.75 0 2.90625 1.3125q1.171875 1.296875 1.171875 3.78125q0 1.65625 -0.46875 3.03125q-0.46875 1.359375 -1.15625 2.296875q-0.6875 0.921875 -1.4375 1.484375q-0.734375 0.5625 -1.515625 0.828125q-0.765625 0.28125 -1.484375 0.28125q-1.21875 0 -2.15625 -0.640625q-0.9375 -0.65625 -1.46875 -2.0l-0.5 2.359375l-1.859375 0zm3.140625 -5.109375l-0.015625 0.390625q0 1.59375 0.765625 2.4375q0.765625 0.828125 1.90625 0.828125q1.109375 0 2.03125 -0.78125q0.9375 -0.78125 1.53125 -2.421875q0.609375 -1.65625 0.609375 -3.0625q0 -1.5625 -0.765625 -2.421875q-0.75 -0.875 -1.859375 -0.875q-1.15625 0 -2.125 0.890625q-0.953125 0.875 -1.59375 2.71875q-0.484375 1.375 -0.484375 2.296875zm13.222656 -9.671875l0.5 -2.40625l2.109375 0l-0.5 2.40625l-2.109375 0zm-3.09375 14.78125l2.59375 -12.453125l2.125 0l-2.59375 12.453125l-2.125 0zm5.0820312 0l0.34375 -1.640625l6.6875 -7.53125q0.71875 -0.796875 1.59375 -1.65625q-1.515625 0.15625 -2.171875 0.15625l-4.625 0l0.375 -1.78125l9.625 0l-0.28125 1.34375l-6.75 7.578125q-0.578125 0.640625 -1.71875 1.765625q1.78125 -0.09375 2.4375 -0.09375l4.890625 0l-0.390625 1.859375l-10.015625 0zm12.328125 0l2.609375 -12.453125l1.921875 0l-0.46875 2.171875q1.265625 -1.28125 2.34375 -1.859375q1.09375 -0.59375 2.234375 -0.59375q1.515625 0 2.375 0.828125q0.859375 0.8125 0.859375 2.1875q0 0.6875 -0.3125 2.1875l-1.578125 7.53125l-2.125 0l1.65625 -7.890625q0.25 -1.140625 0.25 -1.703125q0 -0.609375 -0.4375 -1.0q-0.421875 -0.390625 -1.234375 -0.390625q-1.625 0 -2.90625 1.171875q-1.265625 1.171875 -1.859375 4.015625l-1.203125 5.796875l-2.125 0zm22.488281 -4.234375l2.0625 0.21875q-0.4375 1.53125 -2.046875 2.921875q-1.59375 1.375 -3.8125 1.375q-1.375 0 -2.53125 -0.640625q-1.15625 -0.640625 -1.765625 -1.859375q-0.59375 -1.21875 -0.59375 -2.78125q0 -2.03125 0.9375 -3.9375q0.9375 -1.921875 2.4375 -2.859375q1.5 -0.9375 3.25 -0.9375q2.234375 0 3.5625 1.390625q1.328125 1.375 1.328125 3.765625q0 0.921875 -0.171875 1.875l-9.15625 0q-0.046875 0.375 -0.046875 0.65625q0 1.75 0.796875 2.671875q0.8125 0.921875 1.96875 0.921875q1.09375 0 2.140625 -0.71875q1.0625 -0.71875 1.640625 -2.0625zm-6.15625 -3.078125l6.984375 0q0 -0.328125 0 -0.46875q0 -1.59375 -0.796875 -2.4375q-0.796875 -0.859375 -2.046875 -0.859375q-1.359375 0 -2.484375 0.9375q-1.109375 0.9375 -1.65625 2.828125zm10.566406 3.0625l2.125 -0.140625q0 0.921875 0.28125 1.5625q0.28125 0.640625 1.03125 1.0625q0.75 0.40625 1.765625 0.40625q1.40625 0 2.109375 -0.5625q0.703125 -0.5625 0.703125 -1.328125q0 -0.546875 -0.421875 -1.046875q-0.4375 -0.484375 -2.125 -1.203125q-1.671875 -0.71875 -2.140625 -1.015625q-0.78125 -0.484375 -1.1875 -1.125q-0.390625 -0.65625 -0.390625 -1.5q0 -1.484375 1.171875 -2.53125q1.171875 -1.0625 3.28125 -1.0625q2.34375 0 3.5625 1.09375q1.21875 1.078125 1.265625 2.84375l-2.0625 0.140625q-0.046875 -1.125 -0.796875 -1.78125q-0.75 -0.65625 -2.125 -0.65625q-1.109375 0 -1.71875 0.515625q-0.609375 0.5 -0.609375 1.078125q0 0.59375 0.53125 1.03125q0.359375 0.3125 1.8125 0.9375q2.4375 1.0625 3.078125 1.671875q1.0 0.96875 1.0 2.359375q0 0.9375 -0.5625 1.828125q-0.5625 0.890625 -1.734375 1.421875q-1.171875 0.53125 -2.75 0.53125q-2.15625 0 -3.671875 -1.0625q-1.5 -1.078125 -1.421875 -3.46875zm12.171875 -0.46875q0 -3.65625 2.140625 -6.046875q1.78125 -1.96875 4.640625 -1.96875q2.25 0 3.625 1.40625q1.390625 1.40625 1.390625 3.796875q0 2.15625 -0.875 4.0q-0.859375 1.84375 -2.46875 2.828125q-1.59375 0.984375 -3.359375 0.984375q-1.453125 0 -2.65625 -0.625q-1.1875 -0.625 -1.8125 -1.75q-0.625 -1.140625 -0.625 -2.625zm2.125 -0.21875q0 1.765625 0.84375 2.671875q0.84375 0.90625 2.140625 0.90625q0.6875 0 1.34375 -0.265625q0.671875 -0.28125 1.25 -0.84375q0.578125 -0.5625 0.96875 -1.28125q0.40625 -0.734375 0.65625 -1.5625q0.359375 -1.15625 0.359375 -2.21875q0 -1.6875 -0.84375 -2.625q-0.84375 -0.9375 -2.140625 -0.9375q-1.0 0 -1.828125 0.484375q-0.8125 0.46875 -1.46875 1.390625q-0.65625 0.90625 -0.96875 2.125q-0.3125 1.203125 -0.3125 2.15625zm13.222656 4.9375l-1.3125 -12.453125l2.046875 0l0.5625 5.59375l0.21875 3.140625q0.03125 0.359375 0.078125 1.421875q0.34375 -1.203125 0.59375 -1.828125q0.25 -0.640625 0.78125 -1.828125l2.96875 -6.5l2.3125 0l0.40625 6.234375q0.09375 1.40625 0.109375 3.78125q0.59375 -1.578125 1.921875 -4.359375l2.671875 -5.65625l2.109375 0l-6.078125 12.453125l-2.203125 0l-0.46875 -7.296875q-0.046875 -0.6875 -0.0625 -2.65625q-0.484375 1.25 -1.140625 2.703125l-3.296875 7.25l-2.21875 0zm23.347656 -1.546875q-1.09375 0.953125 -2.125 1.390625q-1.015625 0.4375 -2.171875 0.4375q-1.71875 0 -2.78125 -1.015625q-1.046875 -1.015625 -1.046875 -2.59375q0 -1.046875 0.46875 -1.84375q0.46875 -0.8125 1.25 -1.296875q0.796875 -0.484375 1.9375 -0.6875q0.703125 -0.140625 2.703125 -0.21875q2.0 -0.09375 2.875 -0.4375q0.234375 -0.859375 0.234375 -1.4375q0 -0.734375 -0.53125 -1.15625q-0.734375 -0.59375 -2.15625 -0.59375q-1.34375 0 -2.1875 0.59375q-0.84375 0.59375 -1.234375 1.6875l-2.140625 -0.1875q0.65625 -1.859375 2.078125 -2.84375q1.421875 -0.984375 3.59375 -0.984375q2.296875 0 3.65625 1.109375q1.03125 0.8125 1.03125 2.125q0 1.0 -0.296875 2.3125l-0.6875 3.09375q-0.328125 1.484375 -0.328125 2.40625q0 0.578125 0.25 1.6875l-2.140625 0q-0.171875 -0.609375 -0.25 -1.546875zm0.78125 -4.765625q-0.4375 0.1875 -0.953125 0.28125q-0.5 0.09375 -1.703125 0.1875q-1.84375 0.171875 -2.609375 0.421875q-0.765625 0.25 -1.15625 0.8125q-0.375 0.546875 -0.375 1.203125q0 0.890625 0.609375 1.46875q0.609375 0.578125 1.75 0.578125q1.0625 0 2.03125 -0.546875q0.96875 -0.5625 1.53125 -1.5625q0.5625 -1.0 0.875 -2.84375z" fill-rule="nonzero"/><path fill="#adadad" d="m793.7831 350.2563q0 -3.65625 2.140625 -6.046875q1.78125 -1.96875 4.640625 -1.96875q2.25 0 3.625 1.40625q1.390625 1.40625 1.390625 3.796875q0 2.15625 -0.875 4.0q-0.859375 1.84375 -2.46875 2.828125q-1.59375 0.984375 -3.359375 0.984375q-1.453125 0 -2.65625 -0.625q-1.1875 -0.625 -1.8125 -1.75q-0.625 -1.140625 -0.625 -2.625zm2.125 -0.21875q0 1.765625 0.84375 2.671875q0.84375 0.90625 2.140625 0.90625q0.6875 0 1.34375 -0.265625q0.671875 -0.28125 1.25 -0.84375q0.578125 -0.5625 0.96875 -1.28125q0.40625 -0.734375 0.65625 -1.5625q0.359375 -1.15625 0.359375 -2.21875q0 -1.6875 -0.84375 -2.625q-0.84375 -0.9375 -2.140625 -0.9375q-1.0 0 -1.828125 0.484375q-0.8125 0.46875 -1.46875 1.390625q-0.65625 0.90625 -0.96875 2.125q-0.3125 1.203125 -0.3125 2.15625zm10.847656 4.9375l2.609375 -12.453125l1.875 0l-0.53125 2.546875q0.953125 -1.4375 1.875 -2.125q0.921875 -0.703125 1.890625 -0.703125q0.625 0 1.546875 0.46875l-0.859375 1.96875q-0.546875 -0.40625 -1.203125 -0.40625q-1.125 0 -2.296875 1.25q-1.171875 1.234375 -1.828125 4.453125l-1.0625 5.0l-2.015625 0zm16.382812 -1.546875q-1.09375 0.953125 -2.125 1.390625q-1.015625 0.4375 -2.171875 0.4375q-1.71875 0 -2.78125 -1.015625q-1.046875 -1.015625 -1.046875 -2.59375q0 -1.046875 0.46875 -1.84375q0.46875 -0.8125 1.25 -1.296875q0.796875 -0.484375 1.9375 -0.6875q0.703125 -0.140625 2.703125 -0.21875q2.0 -0.09375 2.875 -0.4375q0.234375 -0.859375 0.234375 -1.4375q0 -0.734375 -0.53125 -1.15625q-0.734375 -0.59375 -2.15625 -0.59375q-1.34375 0 -2.1875 0.59375q-0.84375 0.59375 -1.234375 1.6875l-2.140625 -0.1875q0.65625 -1.859375 2.078125 -2.84375q1.421875 -0.984375 3.59375 -0.984375q2.296875 0 3.65625 1.109375q1.03125 0.8125 1.03125 2.125q0 1.0 -0.296875 2.3125l-0.6875 3.09375q-0.328125 1.484375 -0.328125 2.40625q0 0.578125 0.25 1.6875l-2.140625 0q-0.171875 -0.609375 -0.25 -1.546875zm0.78125 -4.765625q-0.4375 0.1875 -0.953125 0.28125q-0.5 0.09375 -1.703125 0.1875q-1.84375 0.171875 -2.609375 0.421875q-0.765625 0.25 -1.15625 0.8125q-0.375 0.546875 -0.375 1.203125q0 0.890625 0.609375 1.46875q0.609375 0.578125 1.75 0.578125q1.0625 0 2.03125 -0.546875q0.96875 -0.5625 1.53125 -1.5625q0.5625 -1.0 0.875 -2.84375zm3.8476562 6.3125l0.34375 -1.640625l6.6875 -7.53125q0.71875 -0.796875 1.59375 -1.65625q-1.515625 0.15625 -2.171875 0.15625l-4.625 0l0.375 -1.78125l9.625 0l-0.28125 1.34375l-6.75 7.578125q-0.578125 0.640625 -1.71875 1.765625q1.78125 -0.09375 2.4375 -0.09375l4.890625 0l-0.390625 1.859375l-10.015625 0zm27.386719 -1.8125q-1.8125 2.09375 -3.796875 2.09375q-1.765625 0 -2.953125 -1.296875q-1.171875 -1.3125 -1.171875 -3.796875q0 -2.28125 0.921875 -4.15625q0.9375 -1.890625 2.34375 -2.828125q1.40625 -0.9375 2.8125 -0.9375q2.3125 0 3.5 2.25l1.40625 -6.703125l2.109375 0l-3.59375 17.1875l-1.953125 0l0.375 -1.8125zm-5.8125 -3.40625q0 1.296875 0.25 2.046875q0.265625 0.75 0.890625 1.25q0.625 0.5 1.484375 0.5q1.4375 0 2.609375 -1.5q1.578125 -1.984375 1.578125 -4.921875q0 -1.46875 -0.78125 -2.296875q-0.765625 -0.84375 -1.9375 -0.84375q-0.765625 0 -1.390625 0.34375q-0.625 0.34375 -1.25 1.15625q-0.609375 0.8125 -1.03125 2.0625q-0.421875 1.25 -0.421875 2.203125zm19.160156 3.671875q-1.09375 0.953125 -2.125 1.390625q-1.015625 0.4375 -2.171875 0.4375q-1.71875 0 -2.78125 -1.015625q-1.046875 -1.015625 -1.046875 -2.59375q0 -1.046875 0.46875 -1.84375q0.46875 -0.8125 1.25 -1.296875q0.796875 -0.484375 1.9375 -0.6875q0.703125 -0.140625 2.703125 -0.21875q2.0 -0.09375 2.875 -0.4375q0.234375 -0.859375 0.234375 -1.4375q0 -0.734375 -0.53125 -1.15625q-0.734375 -0.59375 -2.15625 -0.59375q-1.34375 0 -2.1875 0.59375q-0.84375 0.59375 -1.234375 1.6875l-2.140625 -0.1875q0.65625 -1.859375 2.078125 -2.84375q1.421875 -0.984375 3.59375 -0.984375q2.296875 0 3.65625 1.109375q1.03125 0.8125 1.03125 2.125q0 1.0 -0.296875 2.3125l-0.6875 3.09375q-0.328125 1.484375 -0.328125 2.40625q0 0.578125 0.25 1.6875l-2.140625 0q-0.171875 -0.609375 -0.25 -1.546875zm0.78125 -4.765625q-0.4375 0.1875 -0.953125 0.28125q-0.5 0.09375 -1.703125 0.1875q-1.84375 0.171875 -2.609375 0.421875q-0.765625 0.25 -1.15625 0.8125q-0.375 0.546875 -0.375 1.203125q0 0.890625 0.609375 1.46875q0.609375 0.578125 1.75 0.578125q1.0625 0 2.03125 -0.546875q0.96875 -0.5625 1.53125 -1.5625q0.5625 -1.0 0.875 -2.84375zm4.1757812 6.3125l2.609375 -12.453125l1.921875 0l-0.46875 2.171875q1.265625 -1.28125 2.34375 -1.859375q1.09375 -0.59375 2.234375 -0.59375q1.515625 0 2.375 0.828125q0.859375 0.8125 0.859375 2.1875q0 0.6875 -0.3125 2.1875l-1.578125 7.53125l-2.125 0l1.65625 -7.890625q0.25 -1.140625 0.25 -1.703125q0 -0.609375 -0.4375 -1.0q-0.421875 -0.390625 -1.234375 -0.390625q-1.625 0 -2.90625 1.171875q-1.265625 1.171875 -1.859375 4.015625l-1.203125 5.796875l-2.125 0zm22.488281 -4.234375l2.0625 0.21875q-0.4375 1.53125 -2.046875 2.921875q-1.59375 1.375 -3.8125 1.375q-1.375 0 -2.53125 -0.640625q-1.15625 -0.640625 -1.765625 -1.859375q-0.59375 -1.21875 -0.59375 -2.78125q0 -2.03125 0.9375 -3.9375q0.9375 -1.921875 2.4375 -2.859375q1.5 -0.9375 3.25 -0.9375q2.234375 0 3.5625 1.390625q1.328125 1.375 1.328125 3.765625q0 0.921875 -0.171875 1.875l-9.15625 0q-0.046875 0.375 -0.046875 0.65625q0 1.75 0.796875 2.671875q0.8125 0.921875 1.96875 0.921875q1.09375 0 2.140625 -0.71875q1.0625 -0.71875 1.640625 -2.0625zm-6.15625 -3.078125l6.984375 0q0 -0.328125 0 -0.46875q0 -1.59375 -0.796875 -2.4375q-0.796875 -0.859375 -2.046875 -0.859375q-1.359375 0 -2.484375 0.9375q-1.109375 0.9375 -1.65625 2.828125z" fill-rule="nonzero"/><path fill="#000000" fill-opacity="0.0" d="m195.30708 283.45166l175.07469 0l0 -26.22528l28.326874 45.716522l-28.326874 45.716553l0 -26.225311l-175.07469 0z" fill-rule="evenodd"/><path stroke="#666666" stroke-width="1.0" stroke-linejoin="round" stroke-linecap="butt" stroke-dasharray="4.0,3.0" d="m195.30708 283.45166l175.07469 0l0 -26.22528l28.326874 45.716522l-28.326874 45.716553l0 -26.225311l-175.07469 0z" fill-rule="evenodd"/><path fill="#666666" d="m243.5279 306.1548q0 1.265625 -0.359375 2.296875q-0.359375 1.015625 -1.0625 1.734375q-0.6875 0.71875 -1.6875 1.125q-1.0 0.390625 -2.296875 0.390625q-1.4375 0 -2.4375 -0.375q-0.984375 -0.390625 -1.609375 -1.0625q-0.625 -0.6875 -0.921875 -1.640625q-0.28125 -0.96875 -0.28125 -2.15625l0 -10.296875l2.078125 0l0 10.125q0 0.90625 0.171875 1.59375q0.171875 0.671875 0.5625 1.140625q0.390625 0.453125 1.0 0.6875q0.609375 0.234375 1.5 0.234375q1.671875 0 2.453125 -0.953125q0.796875 -0.96875 0.796875 -2.71875l0 -10.109375l2.09375 0l0 9.984375zm6.8046875 -8.234375l-3.53125 0l0 -1.75l9.171875 0l0 1.75l-3.53125 0l0 11.78125l3.53125 0l0 1.78125l-9.171875 0l0 -1.78125l3.53125 0l0 -11.78125zm32.65625 7.0625q0 0.421875 -0.015625 0.71875q0 0.296875 -0.03125 0.546875l-8.265625 0q0 1.8125 1.0 2.78125q1.015625 0.96875 2.921875 0.96875q0.515625 0 1.03125 -0.046875q0.515625 -0.046875 0.984375 -0.109375q0.484375 -0.078125 0.921875 -0.15625q0.453125 -0.09375 0.828125 -0.203125l0 1.6875q-0.84375 0.234375 -1.890625 0.375q-1.046875 0.15625 -2.171875 0.15625q-1.515625 0 -2.609375 -0.40625q-1.078125 -0.421875 -1.78125 -1.203125q-0.6875 -0.78125 -1.03125 -1.90625q-0.328125 -1.140625 -0.328125 -2.5625q0 -1.25 0.359375 -2.34375q0.359375 -1.109375 1.03125 -1.953125q0.6875 -0.84375 1.6875 -1.328125q1.0 -0.5 2.265625 -0.5q1.234375 0 2.171875 0.390625q0.953125 0.390625 1.59375 1.109375q0.65625 0.703125 0.984375 1.71875q0.34375 1.0 0.34375 2.265625zm-2.125 -0.296875q0.046875 -0.78125 -0.140625 -1.4375q-0.1875 -0.65625 -0.59375 -1.125q-0.390625 -0.46875 -0.984375 -0.71875q-0.578125 -0.265625 -1.34375 -0.265625q-0.671875 0 -1.21875 0.265625q-0.546875 0.25 -0.953125 0.71875q-0.390625 0.46875 -0.640625 1.125q-0.25 0.65625 -0.3125 1.4375l6.1875 0zm4.2890625 -4.96875l2.3125 0l2.890625 7.78125l0.609375 1.890625l0.65625 -1.9375l2.859375 -7.734375l2.234375 0l-4.625 11.765625l-2.34375 0l-4.59375 -11.765625zm24.226562 5.265625q0 0.421875 -0.015625 0.71875q0 0.296875 -0.03125 0.546875l-8.265625 0q0 1.8125 1.0 2.78125q1.015625 0.96875 2.921875 0.96875q0.515625 0 1.03125 -0.046875q0.515625 -0.046875 0.984375 -0.109375q0.484375 -0.078125 0.921875 -0.15625q0.453125 -0.09375 0.828125 -0.203125l0 1.6875q-0.84375 0.234375 -1.890625 0.375q-1.046875 0.15625 -2.171875 0.15625q-1.515625 0 -2.609375 -0.40625q-1.078125 -0.421875 -1.78125 -1.203125q-0.6875 -0.78125 -1.03125 -1.90625q-0.328125 -1.140625 -0.328125 -2.5625q0 -1.25 0.359375 -2.34375q0.359375 -1.109375 1.03125 -1.953125q0.6875 -0.84375 1.6875 -1.328125q1.0 -0.5 2.265625 -0.5q1.234375 0 2.171875 0.390625q0.953125 0.390625 1.59375 1.109375q0.65625 0.703125 0.984375 1.71875q0.34375 1.0 0.34375 2.265625zm-2.125 -0.296875q0.046875 -0.78125 -0.140625 -1.4375q-0.1875 -0.65625 -0.59375 -1.125q-0.390625 -0.46875 -0.984375 -0.71875q-0.578125 -0.265625 -1.34375 -0.265625q-0.671875 0 -1.21875 0.265625q-0.546875 0.25 -0.953125 0.71875q-0.390625 0.46875 -0.640625 1.125q-0.25 0.65625 -0.3125 1.4375l6.1875 0zm5.3828125 -4.96875l1.8125 0l0.09375 1.890625q0.515625 -0.609375 0.984375 -1.0q0.484375 -0.40625 0.9375 -0.65625q0.46875 -0.25 0.953125 -0.34375q0.484375 -0.109375 1.0 -0.109375q1.8125 0 2.734375 1.078125q0.9375 1.078125 0.9375 3.234375l0 7.671875l-2.03125 0l0 -7.515625q0 -1.375 -0.515625 -2.03125q-0.515625 -0.671875 -1.53125 -0.671875q-0.375 0 -0.734375 0.109375q-0.359375 0.109375 -0.75 0.390625q-0.390625 0.265625 -0.84375 0.734375q-0.4375 0.46875 -1.0 1.171875l0 7.8125l-2.046875 0l0 -11.765625zm22.679688 11.59375q-0.6875 0.1875 -1.4375 0.265625q-0.734375 0.078125 -1.5 0.078125q-2.203125 0 -3.296875 -1.0q-1.09375 -1.015625 -1.09375 -3.09375l0 -6.140625l-3.296875 0l0 -1.703125l3.296875 0l0 -3.234375l2.046875 -0.53125l0 3.765625l5.28125 0l0 1.703125l-5.28125 0l0 5.984375q0 1.265625 0.671875 1.890625q0.671875 0.625 1.984375 0.625q0.5625 0 1.21875 -0.078125q0.671875 -0.09375 1.40625 -0.28125l0 1.75zm13.0234375 -3.046875q0 0.625 -0.21875 1.125q-0.203125 0.484375 -0.5625 0.875q-0.359375 0.375 -0.84375 0.640625q-0.484375 0.265625 -1.03125 0.453125q-0.53125 0.171875 -1.109375 0.25q-0.578125 0.09375 -1.125 0.09375q-1.203125 0 -2.203125 -0.109375q-1.0 -0.109375 -1.953125 -0.34375l0 -1.875q1.03125 0.296875 2.046875 0.453125q1.015625 0.140625 2.03125 0.140625q1.453125 0 2.15625 -0.390625q0.703125 -0.40625 0.703125 -1.140625q0 -0.3125 -0.109375 -0.5625q-0.109375 -0.265625 -0.40625 -0.484375q-0.28125 -0.234375 -0.90625 -0.46875q-0.609375 -0.25 -1.671875 -0.578125q-0.796875 -0.234375 -1.484375 -0.53125q-0.671875 -0.296875 -1.171875 -0.703125q-0.484375 -0.40625 -0.765625 -0.953125q-0.28125 -0.5625 -0.28125 -1.3125q0 -0.484375 0.234375 -1.0625q0.234375 -0.59375 0.78125 -1.09375q0.546875 -0.515625 1.484375 -0.84375q0.9375 -0.34375 2.34375 -0.34375q0.6875 0 1.53125 0.078125q0.84375 0.078125 1.765625 0.265625l0 1.8125q-0.96875 -0.234375 -1.828125 -0.34375q-0.859375 -0.109375 -1.484375 -0.109375q-0.765625 0 -1.296875 0.125q-0.515625 0.109375 -0.84375 0.3125q-0.3125 0.203125 -0.453125 0.484375q-0.140625 0.28125 -0.140625 0.59375q0 0.3125 0.125 0.578125q0.125 0.25 0.453125 0.5q0.328125 0.234375 0.921875 0.484375q0.609375 0.234375 1.5625 0.515625q1.046875 0.296875 1.765625 0.640625q0.71875 0.328125 1.15625 0.734375q0.453125 0.40625 0.640625 0.921875q0.1875 0.515625 0.1875 1.171875z" fill-rule="nonzero"/><path fill="#000000" fill-opacity="0.0" d="m561.2913 283.45166l175.0747 0l0 -26.22528l28.326904 45.716522l-28.326904 45.716553l0 -26.225311l-175.0747 0z" fill-rule="evenodd"/><path stroke="#666666" stroke-width="1.0" stroke-linejoin="round" stroke-linecap="butt" d="m561.2913 283.45166l175.0747 0l0 -26.22528l28.326904 45.716522l-28.326904 45.716553l0 -26.225311l-175.0747 0z" fill-rule="evenodd"/><path fill="#666666" d="m628.69574 311.4829l-1.828125 0l-0.0625 -1.90625q-0.53125 0.609375 -1.015625 1.015625q-0.46875 0.40625 -0.9375 0.65625q-0.46875 0.25 -0.9375 0.34375q-0.46875 0.109375 -1.0 0.109375q-1.8125 0 -2.75 -1.0625q-0.921875 -1.078125 -0.921875 -3.234375l0 -7.6875l2.046875 0l0 7.515625q0 2.71875 2.03125 2.71875q0.375 0 0.734375 -0.109375q0.359375 -0.125 0.75 -0.390625q0.390625 -0.28125 0.84375 -0.75q0.453125 -0.46875 1.015625 -1.1875l0 -7.796875l2.03125 0l0 11.765625zm13.8046875 -6.09375q0 1.5625 -0.453125 2.734375q-0.4375 1.171875 -1.21875 1.953125q-0.765625 0.765625 -1.828125 1.15625q-1.046875 0.390625 -2.265625 0.390625q-0.5625 0 -1.125 -0.0625q-0.5625 -0.046875 -1.125 -0.203125l0 4.9375l-2.046875 0l0 -16.578125l1.8125 0l0.140625 1.96875q0.875 -1.203125 1.859375 -1.6875q1.0 -0.5 2.171875 -0.5q1.0 0 1.765625 0.421875q0.765625 0.421875 1.28125 1.203125q0.515625 0.765625 0.765625 1.84375q0.265625 1.078125 0.265625 2.421875zm-2.09375 0.09375q0 -0.921875 -0.140625 -1.6875q-0.125 -0.78125 -0.421875 -1.328125q-0.296875 -0.5625 -0.75 -0.875q-0.453125 -0.3125 -1.09375 -0.3125q-0.375 0 -0.78125 0.125q-0.390625 0.125 -0.828125 0.421875q-0.421875 0.28125 -0.90625 0.765625q-0.46875 0.46875 -1.0 1.171875l0 5.703125q0.5625 0.234375 1.171875 0.375q0.625 0.125 1.21875 0.125q1.65625 0 2.59375 -1.109375q0.9375 -1.125 0.9375 -3.375zm4.6328125 0.359375q0 -1.5 0.40625 -2.65625q0.40625 -1.171875 1.15625 -1.96875q0.765625 -0.8125 1.828125 -1.21875q1.0625 -0.421875 2.359375 -0.421875q0.5625 0 1.109375 0.078125q0.546875 0.0625 1.078125 0.21875l0 -4.953125l2.046875 0l0 16.5625l-1.828125 0l-0.078125 -2.234375q-0.84375 1.25 -1.84375 1.859375q-1.0 0.59375 -2.15625 0.59375q-1.015625 0 -1.78125 -0.421875q-0.765625 -0.4375 -1.28125 -1.203125q-0.5 -0.765625 -0.765625 -1.84375q-0.25 -1.078125 -0.25 -2.390625zm2.078125 -0.125q0 2.125 0.625 3.1875q0.640625 1.046875 1.78125 1.046875q0.78125 0 1.640625 -0.6875q0.859375 -0.703125 1.8125 -2.0625l0 -5.453125q-0.515625 -0.234375 -1.125 -0.359375q-0.609375 -0.125 -1.203125 -0.125q-1.65625 0 -2.59375 1.078125q-0.9375 1.078125 -0.9375 3.375zm19.273438 5.765625l-0.046875 -1.578125q-0.96875 0.9375 -1.953125 1.375q-0.984375 0.421875 -2.078125 0.421875q-1.015625 0 -1.734375 -0.265625q-0.703125 -0.265625 -1.171875 -0.703125q-0.453125 -0.453125 -0.671875 -1.0625q-0.21875 -0.609375 -0.21875 -1.328125q0 -1.765625 1.3125 -2.765625q1.328125 -1.015625 3.90625 -1.015625l2.4375 0l0 -1.03125q0 -1.03125 -0.671875 -1.65625q-0.671875 -0.640625 -2.046875 -0.640625q-0.984375 0 -1.953125 0.234375q-0.96875 0.21875 -2.0 0.625l0 -1.84375q0.390625 -0.140625 0.859375 -0.265625q0.46875 -0.140625 1.0 -0.234375q0.53125 -0.109375 1.09375 -0.171875q0.578125 -0.078125 1.171875 -0.078125q1.0625 0 1.921875 0.234375q0.859375 0.234375 1.4375 0.71875q0.59375 0.484375 0.90625 1.21875q0.328125 0.71875 0.328125 1.703125l0 8.109375l-1.828125 0zm-0.21875 -5.359375l-2.59375 0q-0.765625 0 -1.3125 0.15625q-0.546875 0.15625 -0.90625 0.4375q-0.34375 0.28125 -0.515625 0.671875q-0.171875 0.390625 -0.171875 0.875q0 0.34375 0.09375 0.65625q0.109375 0.3125 0.34375 0.5625q0.234375 0.234375 0.609375 0.375q0.375 0.140625 0.921875 0.140625q0.703125 0 1.609375 -0.421875q0.90625 -0.4375 1.921875 -1.359375l0 -2.09375zm15.3359375 5.1875q-0.6875 0.1875 -1.4375 0.265625q-0.734375 0.078125 -1.5 0.078125q-2.203125 0 -3.296875 -1.0q-1.09375 -1.015625 -1.09375 -3.09375l0 -6.140625l-3.296875 0l0 -1.703125l3.296875 0l0 -3.234375l2.046875 -0.53125l0 3.765625l5.28125 0l0 1.703125l-5.28125 0l0 5.984375q0 1.265625 0.671875 1.890625q0.671875 0.625 1.984375 0.625q0.5625 0 1.21875 -0.078125q0.671875 -0.09375 1.40625 -0.28125l0 1.75zm13.6484375 -6.328125q0 0.421875 -0.015625 0.71875q0 0.296875 -0.03125 0.546875l-8.265625 0q0 1.8125 1.0 2.78125q1.015625 0.96875 2.921875 0.96875q0.515625 0 1.03125 -0.046875q0.515625 -0.046875 0.984375 -0.109375q0.484375 -0.078125 0.921875 -0.15625q0.453125 -0.09375 0.828125 -0.203125l0 1.6875q-0.84375 0.234375 -1.890625 0.375q-1.046875 0.15625 -2.171875 0.15625q-1.515625 0 -2.609375 -0.40625q-1.078125 -0.421875 -1.78125 -1.203125q-0.6875 -0.78125 -1.03125 -1.90625q-0.328125 -1.140625 -0.328125 -2.5625q0 -1.25 0.359375 -2.34375q0.359375 -1.109375 1.03125 -1.953125q0.6875 -0.84375 1.6875 -1.328125q1.0 -0.5 2.265625 -0.5q1.234375 0 2.171875 0.390625q0.953125 0.390625 1.59375 1.109375q0.65625 0.703125 0.984375 1.71875q0.34375 1.0 0.34375 2.265625zm-2.125 -0.296875q0.046875 -0.78125 -0.140625 -1.4375q-0.1875 -0.65625 -0.59375 -1.125q-0.390625 -0.46875 -0.984375 -0.71875q-0.578125 -0.265625 -1.34375 -0.265625q-0.671875 0 -1.21875 0.265625q-0.546875 0.25 -0.953125 0.71875q-0.390625 0.46875 -0.640625 1.125q-0.25 0.65625 -0.3125 1.4375l6.1875 0z" fill-rule="nonzero"/><path fill="#000000" fill-opacity="0.0" d="m764.69293 171.45955l-175.0747 0l0 -26.225296l-28.326904 45.716537l28.326904 45.716537l0 -26.225296l175.0747 0z" fill-rule="evenodd"/><path stroke="#666666" stroke-width="1.0" stroke-linejoin="round" stroke-linecap="butt" d="m764.69293 171.45955l-175.0747 0l0 -26.225296l-28.326904 45.716537l28.326904 45.716537l0 -26.225296l175.0747 0z" fill-rule="evenodd"/><path fill="#666666" d="m644.99945 187.72516l1.859375 0l0.0625 2.171875q1.046875 -1.265625 2.046875 -1.828125q1.015625 -0.5625 2.046875 -0.5625q1.828125 0 2.765625 1.1875q0.953125 1.1875 0.890625 3.515625l-2.0625 0q0.03125 -1.546875 -0.453125 -2.234375q-0.484375 -0.703125 -1.421875 -0.703125q-0.421875 0 -0.84375 0.15625q-0.40625 0.140625 -0.84375 0.46875q-0.4375 0.3125 -0.9375 0.8125q-0.484375 0.5 -1.046875 1.21875l0 7.5625l-2.0625 0l0 -11.765625zm22.648438 5.265625q0 0.421875 -0.015625 0.71875q0 0.296875 -0.03125 0.546875l-8.265625 0q0 1.8125 1.0 2.78125q1.015625 0.96875 2.921875 0.96875q0.515625 0 1.03125 -0.046875q0.515625 -0.046875 0.984375 -0.109375q0.484375 -0.078125 0.921875 -0.15625q0.453125 -0.09375 0.828125 -0.203125l0 1.6875q-0.84375 0.234375 -1.890625 0.375q-1.046875 0.15625 -2.171875 0.15625q-1.515625 0 -2.609375 -0.40625q-1.078125 -0.421875 -1.78125 -1.203125q-0.6875 -0.78125 -1.03125 -1.90625q-0.328125 -1.140625 -0.328125 -2.5625q0 -1.25 0.359375 -2.34375q0.359375 -1.109375 1.03125 -1.953125q0.6875 -0.84375 1.6875 -1.328125q1.0 -0.5 2.265625 -0.5q1.234375 0 2.171875 0.390625q0.953125 0.390625 1.59375 1.109375q0.65625 0.703125 0.984375 1.71875q0.34375 1.0 0.34375 2.265625zm-2.125 -0.296875q0.046875 -0.78125 -0.140625 -1.4375q-0.1875 -0.65625 -0.59375 -1.125q-0.390625 -0.46875 -0.984375 -0.71875q-0.578125 -0.265625 -1.34375 -0.265625q-0.671875 0 -1.21875 0.265625q-0.546875 0.25 -0.953125 0.71875q-0.390625 0.46875 -0.640625 1.125q-0.25 0.65625 -0.3125 1.4375l6.1875 0zm12.9453125 6.796875l-0.046875 -1.578125q-0.96875 0.9375 -1.953125 1.375q-0.984375 0.421875 -2.078125 0.421875q-1.015625 0 -1.734375 -0.265625q-0.703125 -0.265625 -1.171875 -0.703125q-0.453125 -0.453125 -0.671875 -1.0625q-0.21875 -0.609375 -0.21875 -1.328125q0 -1.765625 1.3125 -2.765625q1.328125 -1.015625 3.90625 -1.015625l2.4375 0l0 -1.03125q0 -1.03125 -0.671875 -1.65625q-0.671875 -0.640625 -2.046875 -0.640625q-0.984375 0 -1.953125 0.234375q-0.96875 0.21875 -2.0 0.625l0 -1.84375q0.390625 -0.140625 0.859375 -0.265625q0.46875 -0.140625 1.0 -0.234375q0.53125 -0.109375 1.09375 -0.171875q0.578125 -0.078125 1.171875 -0.078125q1.0625 0 1.921875 0.234375q0.859375 0.234375 1.4375 0.71875q0.59375 0.484375 0.90625 1.21875q0.328125 0.71875 0.328125 1.703125l0 8.109375l-1.828125 0zm-0.21875 -5.359375l-2.59375 0q-0.765625 0 -1.3125 0.15625q-0.546875 0.15625 -0.90625 0.4375q-0.34375 0.28125 -0.515625 0.671875q-0.171875 0.390625 -0.171875 0.875q0 0.34375 0.09375 0.65625q0.109375 0.3125 0.34375 0.5625q0.234375 0.234375 0.609375 0.375q0.375 0.140625 0.921875 0.140625q0.703125 0 1.609375 -0.421875q0.90625 -0.4375 1.921875 -1.359375l0 -2.09375zm5.2578125 -0.28125q0 -1.5 0.40625 -2.65625q0.40625 -1.171875 1.15625 -1.96875q0.765625 -0.8125 1.828125 -1.21875q1.0625 -0.421875 2.359375 -0.421875q0.5625 0 1.109375 0.078125q0.546875 0.0625 1.078125 0.21875l0 -4.953125l2.046875 0l0 16.5625l-1.828125 0l-0.078125 -2.234375q-0.84375 1.25 -1.84375 1.859375q-1.0 0.59375 -2.15625 0.59375q-1.015625 0 -1.78125 -0.421875q-0.765625 -0.4375 -1.28125 -1.203125q-0.5 -0.765625 -0.765625 -1.84375q-0.25 -1.078125 -0.25 -2.390625zm2.078125 -0.125q0 2.125 0.625 3.1875q0.640625 1.046875 1.78125 1.046875q0.78125 0 1.640625 -0.6875q0.859375 -0.703125 1.8125 -2.0625l0 -5.453125q-0.515625 -0.234375 -1.125 -0.359375q-0.609375 -0.125 -1.203125 -0.125q-1.65625 0 -2.59375 1.078125q-0.9375 1.078125 -0.9375 3.375z" fill-rule="nonzero"/><path fill="#000000" fill-opacity="0.0" d="m398.70865 171.45955l-175.07468 0l0 -26.225296l-28.326889 45.716537l28.326889 45.716537l0 -26.225296l175.07468 0z" fill-rule="evenodd"/><path stroke="#666666" stroke-width="1.0" stroke-linejoin="round" stroke-linecap="butt" d="m398.70865 171.45955l-175.07468 0l0 -26.225296l-28.326889 45.716537l28.326889 45.716537l0 -26.225296l175.07468 0z" fill-rule="evenodd"/><path fill="#666666" d="m260.60895 189.38141q0.328125 0.421875 0.515625 0.96875q0.1875 0.53125 0.1875 1.171875q0 0.90625 -0.34375 1.671875q-0.328125 0.75 -0.9375 1.296875q-0.609375 0.53125 -1.46875 0.828125q-0.84375 0.296875 -1.859375 0.296875q-0.73435974 0 -1.3906097 -0.15625q-0.640625 -0.15625 -1.015625 -0.390625q-0.21875 0.328125 -0.375 0.625q-0.15625 0.296875 -0.15625 0.65625q0 0.4375 0.421875 0.734375q0.4375 0.296875 1.140625 0.3125l3.0937347 0.125q0.875 0.015625 1.625 0.21875q0.75 0.203125 1.28125 0.578125q0.53125 0.375 0.828125 0.9375q0.296875 0.546875 0.296875 1.265625q0 0.78125 -0.34375 1.484375q-0.328125 0.703125 -1.046875 1.234375q-0.703125 0.546875 -1.796875 0.859375q-1.09375 0.3125 -2.59375 0.3125q-1.4218597 0 -2.4218597 -0.234375q-1.0 -0.21875 -1.65625 -0.625q-0.640625 -0.40625 -0.9375 -0.96875q-0.28125 -0.546875 -0.28125 -1.21875q0 -0.859375 0.390625 -1.5q0.40625 -0.640625 1.234375 -1.25q-0.3125 -0.140625 -0.53125 -0.34375q-0.21875 -0.21875 -0.359375 -0.46875q-0.140625 -0.25 -0.21875 -0.53125q-0.0625 -0.28125 -0.0625 -0.546875q0 -0.765625 0.359375 -1.390625q0.359375 -0.640625 0.84375 -1.203125q-0.21875 -0.265625 -0.390625 -0.515625q-0.171875 -0.265625 -0.296875 -0.5625q-0.125 -0.296875 -0.1875 -0.640625q-0.0625 -0.359375 -0.0625 -0.796875q0 -0.921875 0.328125 -1.671875q0.34375 -0.75 0.9375 -1.28125q0.609375 -0.546875 1.453125 -0.84375q0.859375 -0.3125 1.8906097 -0.3125q0.4375 0 0.828125 0.0625q0.40625 0.0625 0.703125 0.15625l4.265625 0l0 1.65625l-1.890625 0zm-7.0781097 11.8125q0 0.828125 0.859375 1.203125q0.875 0.390625 2.4218597 0.390625q0.984375 0 1.640625 -0.1875q0.65625 -0.171875 1.0625 -0.453125q0.40625 -0.28125 0.578125 -0.65625q0.1875 -0.375 0.1875 -0.75q0 -0.71875 -0.59375 -1.0625q-0.578125 -0.34375 -1.796875 -0.40625l-3.0624847 -0.09375q-0.390625 0.25 -0.640625 0.5q-0.25 0.25 -0.390625 0.5q-0.140625 0.25 -0.203125 0.5q-0.0625 0.25 -0.0625 0.515625zm0.625 -9.625q0 0.5625 0.1875 1.03125q0.1875 0.46875 0.53125 0.796875q0.34375 0.328125 0.796875 0.515625q0.46873474 0.171875 1.0312347 0.171875q0.609375 0 1.078125 -0.203125q0.484375 -0.203125 0.796875 -0.546875q0.328125 -0.359375 0.5 -0.8125q0.171875 -0.46875 0.171875 -0.953125q0 -0.5625 -0.1875 -1.03125q-0.1875 -0.46875 -0.53125 -0.796875q-0.34375 -0.328125 -0.8125 -0.5q-0.453125 -0.1875 -1.015625 -0.1875q-0.609375 0 -1.0937347 0.21875q-0.46875 0.203125 -0.796875 0.546875q-0.3125 0.34375 -0.484375 0.796875q-0.171875 0.453125 -0.171875 0.953125zm21.117172 1.421875q0 0.421875 -0.015625 0.71875q0 0.296875 -0.03125 0.546875l-8.265625 0q0 1.8125 1.0 2.78125q1.015625 0.96875 2.921875 0.96875q0.515625 0 1.03125 -0.046875q0.515625 -0.046875 0.984375 -0.109375q0.484375 -0.078125 0.921875 -0.15625q0.453125 -0.09375 0.828125 -0.203125l0 1.6875q-0.84375 0.234375 -1.890625 0.375q-1.046875 0.15625 -2.171875 0.15625q-1.515625 0 -2.609375 -0.40625q-1.078125 -0.421875 -1.78125 -1.203125q-0.6875 -0.78125 -1.03125 -1.90625q-0.328125 -1.140625 -0.328125 -2.5625q0 -1.25 0.359375 -2.34375q0.359375 -1.109375 1.03125 -1.953125q0.6875 -0.84375 1.6875 -1.328125q1.0 -0.5 2.265625 -0.5q1.234375 0 2.171875 0.390625q0.953125 0.390625 1.59375 1.109375q0.65625 0.703125 0.984375 1.71875q0.34375 1.0 0.34375 2.265625zm-2.125 -0.296875q0.046875 -0.78125 -0.140625 -1.4375q-0.1875 -0.65625 -0.59375 -1.125q-0.390625 -0.46875 -0.984375 -0.71875q-0.578125 -0.265625 -1.34375 -0.265625q-0.671875 0 -1.21875 0.265625q-0.546875 0.25 -0.953125 0.71875q-0.390625 0.46875 -0.640625 1.125q-0.25 0.65625 -0.3125 1.4375l6.1875 0zm14.8671875 6.625q-0.6875 0.1875 -1.4375 0.265625q-0.734375 0.078125 -1.5 0.078125q-2.203125 0 -3.296875 -1.0q-1.09375 -1.015625 -1.09375 -3.09375l0 -6.140625l-3.296875 0l0 -1.703125l3.296875 0l0 -3.234375l2.046875 -0.53125l0 3.765625l5.28125 0l0 1.703125l-5.28125 0l0 5.984375q0 1.265625 0.671875 1.890625q0.671875 0.625 1.984375 0.625q0.5625 0 1.21875 -0.078125q0.671875 -0.09375 1.40625 -0.28125l0 1.75zm16.3125 -5.46875q0 -1.5 0.40625 -2.65625q0.40625 -1.171875 1.15625 -1.96875q0.765625 -0.8125 1.828125 -1.21875q1.0625 -0.421875 2.359375 -0.421875q0.5625 0 1.109375 0.078125q0.546875 0.0625 1.078125 0.21875l0 -4.953125l2.046875 0l0 16.5625l-1.828125 0l-0.078125 -2.234375q-0.84375 1.25 -1.84375 1.859375q-1.0 0.59375 -2.15625 0.59375q-1.015625 0 -1.78125 -0.421875q-0.765625 -0.4375 -1.28125 -1.203125q-0.5 -0.765625 -0.765625 -1.84375q-0.25 -1.078125 -0.25 -2.390625zm2.078125 -0.125q0 2.125 0.625 3.1875q0.640625 1.046875 1.78125 1.046875q0.78125 0 1.640625 -0.6875q0.859375 -0.703125 1.8125 -2.0625l0 -5.453125q-0.515625 -0.234375 -1.125 -0.359375q-0.609375 -0.125 -1.203125 -0.125q-1.65625 0 -2.59375 1.078125q-0.9375 1.078125 -0.9375 3.375zm19.273438 5.765625l-0.046875 -1.578125q-0.96875 0.9375 -1.953125 1.375q-0.984375 0.421875 -2.078125 0.421875q-1.015625 0 -1.734375 -0.265625q-0.703125 -0.265625 -1.171875 -0.703125q-0.453125 -0.453125 -0.671875 -1.0625q-0.21875 -0.609375 -0.21875 -1.328125q0 -1.765625 1.3125 -2.765625q1.328125 -1.015625 3.90625 -1.015625l2.4375 0l0 -1.03125q0 -1.03125 -0.671875 -1.65625q-0.671875 -0.640625 -2.046875 -0.640625q-0.984375 0 -1.953125 0.234375q-0.96875 0.21875 -2.0 0.625l0 -1.84375q0.390625 -0.140625 0.859375 -0.265625q0.46875 -0.140625 1.0 -0.234375q0.53125 -0.109375 1.09375 -0.171875q0.578125 -0.078125 1.171875 -0.078125q1.0625 0 1.921875 0.234375q0.859375 0.234375 1.4375 0.71875q0.59375 0.484375 0.90625 1.21875q0.328125 0.71875 0.328125 1.703125l0 8.109375l-1.828125 0zm-0.21875 -5.359375l-2.59375 0q-0.765625 0 -1.3125 0.15625q-0.546875 0.15625 -0.90625 0.4375q-0.34375 0.28125 -0.515625 0.671875q-0.171875 0.390625 -0.171875 0.875q0 0.34375 0.09375 0.65625q0.109375 0.3125 0.34375 0.5625q0.234375 0.234375 0.609375 0.375q0.375 0.140625 0.921875 0.140625q0.703125 0 1.609375 -0.421875q0.90625 -0.4375 1.921875 -1.359375l0 -2.09375zm15.3359375 5.1875q-0.6875 0.1875 -1.4375 0.265625q-0.734375 0.078125 -1.5 0.078125q-2.203125 0 -3.296875 -1.0q-1.09375 -1.015625 -1.09375 -3.09375l0 -6.140625l-3.296875 0l0 -1.703125l3.296875 0l0 -3.234375l2.046875 -0.53125l0 3.765625l5.28125 0l0 1.703125l-5.28125 0l0 5.984375q0 1.265625 0.671875 1.890625q0.671875 0.625 1.984375 0.625q0.5625 0 1.21875 -0.078125q0.671875 -0.09375 1.40625 -0.28125l0 1.75zm11.2734375 0.171875l-0.046875 -1.578125q-0.96875 0.9375 -1.953125 1.375q-0.984375 0.421875 -2.078125 0.421875q-1.015625 0 -1.734375 -0.265625q-0.703125 -0.265625 -1.171875 -0.703125q-0.453125 -0.453125 -0.671875 -1.0625q-0.21875 -0.609375 -0.21875 -1.328125q0 -1.765625 1.3125 -2.765625q1.328125 -1.015625 3.90625 -1.015625l2.4375 0l0 -1.03125q0 -1.03125 -0.671875 -1.65625q-0.671875 -0.640625 -2.046875 -0.640625q-0.984375 0 -1.953125 0.234375q-0.96875 0.21875 -2.0 0.625l0 -1.84375q0.390625 -0.140625 0.859375 -0.265625q0.46875 -0.140625 1.0 -0.234375q0.53125 -0.109375 1.09375 -0.171875q0.578125 -0.078125 1.171875 -0.078125q1.0625 0 1.921875 0.234375q0.859375 0.234375 1.4375 0.71875q0.59375 0.484375 0.90625 1.21875q0.328125 0.71875 0.328125 1.703125l0 8.109375l-1.828125 0zm-0.21875 -5.359375l-2.59375 0q-0.765625 0 -1.3125 0.15625q-0.546875 0.15625 -0.90625 0.4375q-0.34375 0.28125 -0.515625 0.671875q-0.171875 0.390625 -0.171875 0.875q0 0.34375 0.09375 0.65625q0.109375 0.3125 0.34375 0.5625q0.234375 0.234375 0.609375 0.375q0.375 0.140625 0.921875 0.140625q0.703125 0 1.609375 -0.421875q0.90625 -0.4375 1.921875 -1.359375l0 -2.09375z" fill-rule="nonzero"/><path fill="#000000" fill-opacity="0.0" d="m398.70865 395.4438l-175.07468 0l0 -26.22528l-28.326889 45.716522l28.326889 45.716553l0 -26.225311l175.07468 0z" fill-rule="evenodd"/><path stroke="#666666" stroke-width="1.0" stroke-linejoin="round" stroke-linecap="butt" stroke-dasharray="4.0,3.0" d="m398.70865 395.4438l-175.07468 0l0 -26.22528l-28.326889 45.716522l28.326889 45.716553l0 -26.225311l175.07468 0z" fill-rule="evenodd"/><path fill="#666666" d="m265.3355 411.7094l1.8125 0l0.09375 1.890625q0.515625 -0.609375 0.984375 -1.0q0.484375 -0.40625 0.9375 -0.65625q0.46875 -0.25 0.953125 -0.34375q0.484375 -0.109375 1.0 -0.109375q1.8125 0 2.734375 1.078125q0.9375 1.078125 0.9375 3.234375l0 7.671875l-2.03125 0l0 -7.515625q0 -1.375 -0.515625 -2.03125q-0.515625 -0.671875 -1.53125 -0.671875q-0.375 0 -0.734375 0.109375q-0.359375 0.109375 -0.75 0.390625q-0.390625 0.265625 -0.84375 0.734375q-0.4375 0.46875 -1.0 1.171875l0 7.8125l-2.046875 0l0 -11.765625zm23.445312 5.78125q0 1.375 -0.390625 2.515625q-0.390625 1.140625 -1.125 1.96875q-0.71875 0.8125 -1.765625 1.265625q-1.03125 0.453125 -2.359375 0.453125q-1.265625 0 -2.265625 -0.390625q-1.0 -0.40625 -1.703125 -1.15625q-0.703125 -0.765625 -1.078125 -1.890625q-0.359375 -1.125 -0.359375 -2.59375q0 -1.375 0.390625 -2.5q0.390625 -1.140625 1.109375 -1.953125q0.734375 -0.8125 1.765625 -1.265625q1.046875 -0.453125 2.375 -0.453125q1.265625 0 2.265625 0.40625q1.0 0.390625 1.6875 1.140625q0.703125 0.75 1.078125 1.875q0.375 1.125 0.375 2.578125zm-2.09375 0.09375q0 -1.078125 -0.25 -1.890625q-0.234375 -0.828125 -0.6875 -1.359375q-0.4375 -0.546875 -1.078125 -0.828125q-0.625 -0.28125 -1.421875 -0.28125q-0.90625 0 -1.5625 0.359375q-0.640625 0.359375 -1.0625 0.96875q-0.421875 0.59375 -0.609375 1.390625q-0.1875 0.78125 -0.1875 1.640625q0 1.09375 0.234375 1.921875q0.234375 0.8125 0.671875 1.359375q0.453125 0.546875 1.078125 0.828125q0.640625 0.265625 1.4375 0.265625q0.921875 0 1.5625 -0.359375q0.65625 -0.359375 1.0625 -0.953125q0.421875 -0.59375 0.609375 -1.375q0.203125 -0.796875 0.203125 -1.6875zm14.5234375 5.71875q-0.6875 0.1875 -1.4375 0.265625q-0.734375 0.078125 -1.5 0.078125q-2.203125 0 -3.296875 -1.0q-1.09375 -1.015625 -1.09375 -3.09375l0 -6.140625l-3.296875 0l0 -1.703125l3.296875 0l0 -3.234375l2.046875 -0.53125l0 3.765625l5.28125 0l0 1.703125l-5.28125 0l0 5.984375q0 1.265625 0.671875 1.890625q0.671875 0.625 1.984375 0.625q0.5625 0 1.21875 -0.078125q0.671875 -0.09375 1.40625 -0.28125l0 1.75zm7.7265625 -9.90625l-3.484375 0l0 -1.6875l5.546875 0l0 10.0625l3.5 0l0 1.703125l-9.4375 0l0 -1.703125l3.875 0l0 -8.375zm0.703125 -6.625q0.34375 0 0.640625 0.125q0.296875 0.125 0.5 0.34375q0.21875 0.21875 0.34375 0.515625q0.125 0.28125 0.125 0.625q0 0.328125 -0.125 0.625q-0.125 0.28125 -0.34375 0.515625q-0.203125 0.21875 -0.5 0.34375q-0.296875 0.125 -0.640625 0.125q-0.328125 0 -0.625 -0.125q-0.296875 -0.125 -0.515625 -0.34375q-0.21875 -0.234375 -0.34375 -0.515625q-0.109375 -0.296875 -0.109375 -0.625q0 -0.34375 0.109375 -0.625q0.125 -0.296875 0.34375 -0.515625q0.21875 -0.21875 0.515625 -0.34375q0.296875 -0.125 0.625 -0.125zm18.914062 2.046875q-1.59375 -0.34375 -2.765625 -0.34375q-2.75 0 -2.75 2.875l0 2.0625l5.15625 0l0 1.703125l-5.15625 0l0 8.359375l-2.078125 0l0 -8.359375l-3.78125 0l0 -1.703125l3.78125 0l0 -1.9375q0 -4.703125 4.90625 -4.703125q1.21875 0 2.6875 0.28125l0 1.765625zm-12.3125 2.890625l0 0zm25.539062 0l-4.015625 10.515625q-0.609375 1.609375 -1.28125 2.765625q-0.65625 1.171875 -1.453125 1.90625q-0.78125 0.75 -1.71875 1.09375q-0.9375 0.359375 -2.09375 0.359375q-0.296875 0 -0.546875 -0.015625q-0.25 0 -0.546875 -0.03125l0 -1.84375q0.265625 0.03125 0.5625 0.0625q0.3125 0.03125 0.65625 0.03125q0.5625 0 1.046875 -0.171875q0.484375 -0.15625 0.90625 -0.53125q0.4375 -0.375 0.828125 -0.96875q0.40625 -0.578125 0.78125 -1.40625l-4.6875 -11.765625l2.3125 0l2.984375 7.78125l0.59375 1.828125l0.671875 -1.875l2.765625 -7.734375l2.234375 0z" fill-rule="nonzero"/><path fill="#000000" fill-opacity="0.0" d="m764.69293 395.4438l-175.0747 0l0 -26.22528l-28.326904 45.716522l28.326904 45.716553l0 -26.225311l175.0747 0z" fill-rule="evenodd"/><path stroke="#666666" stroke-width="1.0" stroke-linejoin="round" stroke-linecap="butt" stroke-dasharray="4.0,3.0" d="m764.69293 395.4438l-175.0747 0l0 -26.22528l-28.326904 45.716522l28.326904 45.716553l0 -26.225311l175.0747 0z" fill-rule="evenodd"/><path fill="#666666" d="m631.31976 411.7094l1.8125 0l0.09375 1.890625q0.515625 -0.609375 0.984375 -1.0q0.484375 -0.40625 0.9375 -0.65625q0.46875 -0.25 0.953125 -0.34375q0.484375 -0.109375 1.0 -0.109375q1.8125 0 2.734375 1.078125q0.9375 1.078125 0.9375 3.234375l0 7.671875l-2.03125 0l0 -7.515625q0 -1.375 -0.515625 -2.03125q-0.515625 -0.671875 -1.53125 -0.671875q-0.375 0 -0.734375 0.109375q-0.359375 0.109375 -0.75 0.390625q-0.390625 0.265625 -0.84375 0.734375q-0.4375 0.46875 -1.0 1.171875l0 7.8125l-2.046875 0l0 -11.765625zm23.445312 5.78125q0 1.375 -0.390625 2.515625q-0.390625 1.140625 -1.125 1.96875q-0.71875 0.8125 -1.765625 1.265625q-1.03125 0.453125 -2.359375 0.453125q-1.265625 0 -2.265625 -0.390625q-1.0 -0.40625 -1.703125 -1.15625q-0.703125 -0.765625 -1.078125 -1.890625q-0.359375 -1.125 -0.359375 -2.59375q0 -1.375 0.390625 -2.5q0.390625 -1.140625 1.109375 -1.953125q0.734375 -0.8125 1.765625 -1.265625q1.046875 -0.453125 2.375 -0.453125q1.265625 0 2.265625 0.40625q1.0 0.390625 1.6875 1.140625q0.703125 0.75 1.078125 1.875q0.375 1.125 0.375 2.578125zm-2.09375 0.09375q0 -1.078125 -0.25 -1.890625q-0.234375 -0.828125 -0.6875 -1.359375q-0.4375 -0.546875 -1.078125 -0.828125q-0.625 -0.28125 -1.421875 -0.28125q-0.90625 0 -1.5625 0.359375q-0.640625 0.359375 -1.0625 0.96875q-0.421875 0.59375 -0.609375 1.390625q-0.1875 0.78125 -0.1875 1.640625q0 1.09375 0.234375 1.921875q0.234375 0.8125 0.671875 1.359375q0.453125 0.546875 1.078125 0.828125q0.640625 0.265625 1.4375 0.265625q0.921875 0 1.5625 -0.359375q0.65625 -0.359375 1.0625 -0.953125q0.421875 -0.59375 0.609375 -1.375q0.203125 -0.796875 0.203125 -1.6875zm14.5234375 5.71875q-0.6875 0.1875 -1.4375 0.265625q-0.734375 0.078125 -1.5 0.078125q-2.203125 0 -3.296875 -1.0q-1.09375 -1.015625 -1.09375 -3.09375l0 -6.140625l-3.296875 0l0 -1.703125l3.296875 0l0 -3.234375l2.046875 -0.53125l0 3.765625l5.28125 0l0 1.703125l-5.28125 0l0 5.984375q0 1.265625 0.671875 1.890625q0.671875 0.625 1.984375 0.625q0.5625 0 1.21875 -0.078125q0.671875 -0.09375 1.40625 -0.28125l0 1.75zm7.7265625 -9.90625l-3.484375 0l0 -1.6875l5.546875 0l0 10.0625l3.5 0l0 1.703125l-9.4375 0l0 -1.703125l3.875 0l0 -8.375zm0.703125 -6.625q0.34375 0 0.640625 0.125q0.296875 0.125 0.5 0.34375q0.21875 0.21875 0.34375 0.515625q0.125 0.28125 0.125 0.625q0 0.328125 -0.125 0.625q-0.125 0.28125 -0.34375 0.515625q-0.203125 0.21875 -0.5 0.34375q-0.296875 0.125 -0.640625 0.125q-0.328125 0 -0.625 -0.125q-0.296875 -0.125 -0.515625 -0.34375q-0.21875 -0.234375 -0.34375 -0.515625q-0.109375 -0.296875 -0.109375 -0.625q0 -0.34375 0.109375 -0.625q0.125 -0.296875 0.34375 -0.515625q0.21875 -0.21875 0.515625 -0.34375q0.296875 -0.125 0.625 -0.125zm18.914062 2.046875q-1.59375 -0.34375 -2.765625 -0.34375q-2.75 0 -2.75 2.875l0 2.0625l5.15625 0l0 1.703125l-5.15625 0l0 8.359375l-2.078125 0l0 -8.359375l-3.78125 0l0 -1.703125l3.78125 0l0 -1.9375q0 -4.703125 4.90625 -4.703125q1.21875 0 2.6875 0.28125l0 1.765625zm-12.3125 2.890625l0 0zm25.539062 0l-4.015625 10.515625q-0.609375 1.609375 -1.28125 2.765625q-0.65625 1.171875 -1.453125 1.90625q-0.78125 0.75 -1.71875 1.09375q-0.9375 0.359375 -2.09375 0.359375q-0.296875 0 -0.546875 -0.015625q-0.25 0 -0.546875 -0.03125l0 -1.84375q0.265625 0.03125 0.5625 0.0625q0.3125 0.03125 0.65625 0.03125q0.5625 0 1.046875 -0.171875q0.484375 -0.15625 0.90625 -0.53125q0.4375 -0.375 0.828125 -0.96875q0.40625 -0.578125 0.78125 -1.40625l-4.6875 -11.765625l2.3125 0l2.984375 7.78125l0.59375 1.828125l0.671875 -1.875l2.765625 -7.734375l2.234375 0z" fill-rule="nonzero"/></g></svg>